{
	"asset":{
		"generator":"Khronos glTF Blender I/O v5.2.39",
		"version":"2.0"
	},
	"scene":0,
	"scenes":[
		{
			"name":"Scene",
			"nodes":[
				0
			]
		}
	],
	"nodes":[
		{
			"mesh":0,
			"name":"Cylinder"
		}
	],
	"materials":[
		{
			"doubleSided":true,
			"name":"Common",
			"pbrMetallicRoughness":{
				"baseColorTexture":{
					"index":0
				},
				"metallicFactor":0,
				"roughnessFactor":0.5
			}
		}
	],
	"meshes":[
		{
			"name":"Cylinder",
			"primitives":[
				{
					"attributes":{
						"POSITION":0,
						"NORMAL":1,
						"TEXCOORD_0":2
					},
					"indices":3,
					"material":0
				}
			]
		}
	],
	"textures":[
		{
			"sampler":0,
			"source":0
		}
	],
	"images":[
		{
			"mimeType":"image/png",
			"name":"Common.png",
			"uri":"textures/Common.png"
		}
	],
	"accessors":[
		{
			"bufferView":0,
			"componentType":5126,
			"count":684,
			"max":[
				0.204738050699234,
				0.21527431905269623,
				0.06392477452754974
			],
			"min":[
				-0.204738050699234,
				-0.21527431905269623,
				-0.06392477452754974
			],
			"type":"VEC3"
		},
		{
			"bufferView":1,
			"componentType":5126,
			"count":684,
			"type":"VEC3"
		},
		{
			"bufferView":2,
			"componentType":5126,
			"count":684,
			"type":"VEC2"
		},
		{
			"bufferView":3,
			"componentType":5123,
			"count":1992,
			"type":"SCALAR"
		}
	],
	"bufferViews":[
		{
			"buffer":0,
			"byteLength":8208,
			"byteOffset":0,
			"target":34962
		},
		{
			"buffer":0,
			"byteLength":8208,
			"byteOffset":8208,
			"target":34962
		},
		{
			"buffer":0,
			"byteLength":5472,
			"byteOffset":16416,
			"target":34962
		},
		{
			"buffer":0,
			"byteLength":3984,
			"byteOffset":21888,
			"target":34963
		}
	],
	"samplers":[
		{
			"magFilter":9729,
			"minFilter":9987
		}
	],
	"buffers":[
		{
			"byteLength":25872,
			"uri":"Coin.bin"
		}
	]
}
