{
	"asset":{
		"generator":"Khronos glTF Blender I/O v5.2.39",
		"version":"2.0"
	},
	"scene":0,
	"scenes":[
		{
			"name":"Scene",
			"nodes":[
				25
			]
		}
	],
	"nodes":[
		{
			"name":"IKpole.L",
			"rotation":[
				0.6989340782165527,
				2.4725402454350842e-06,
				2.416353254375281e-06,
				0.7151861786842346
			],
			"translation":[
				0.16069836914539337,
				0.4526914656162262,
				0.9920584559440613
			]
		},
		{
			"name":"IKpole.R",
			"rotation":[
				0.6989340782165527,
				-2.4725402454350842e-06,
				-2.416353254375281e-06,
				0.7151861786842346
			],
			"translation":[
				-0.16069836914539337,
				0.4526914656162262,
				0.9920584559440613
			]
		},
		{
			"name":"IKTarget.L",
			"rotation":[
				-0.7071067690849304,
				0,
				0,
				0.7071067690849304
			],
			"translation":[
				0.16069836914539337,
				0.03891152888536453,
				-0.01028988603502512
			]
		},
		{
			"name":"IKTarget.R",
			"rotation":[
				-0.7071067690849304,
				0,
				0,
				0.7071067690849304
			],
			"translation":[
				-0.16069836914539337,
				0.03891152888536453,
				-0.01028988603502512
			]
		},
		{
			"mesh":1,
			"name":"Hero1Backbag",
			"rotation":[
				-0.08608556538820267,
				-9.940711606759578e-05,
				-0.0020319130271673203,
				0.996285617351532
			],
			"scale":[
				0.20121195912361145,
				0.20121197402477264,
				0.20121197402477264
			],
			"translation":[
				0.00041415562736801803,
				-0.0749891996383667,
				-0.009394335560500622
			]
		},
		{
			"mesh":2,
			"name":"Hero1Hate",
			"rotation":[
				0.014313890598714352,
				-0.0003027829516213387,
				-0.0020116844680160284,
				0.999895453453064
			],
			"scale":[
				0.20121198892593384,
				0.20121197402477264,
				0.20121197402477264
			],
			"translation":[
				0.0011959145776927471,
				0.11583924293518066,
				-0.032031118869781494
			]
		},
		{
			"children":[
				4,
				5
			],
			"name":"Head",
			"translation":[
				0,
				0.17643868923187256,
				0
			]
		},
		{
			"name":"Hand.L",
			"rotation":[
				-0.040850911289453506,
				3.2084473017843576e-14,
				-1.1525270515733155e-08,
				0.9991652965545654
			],
			"scale":[
				1,
				0.9999999403953552,
				0.9999999403953552
			],
			"translation":[
				1.2345156896742537e-08,
				0.16806603968143463,
				-7.743254926140253e-10
			]
		},
		{
			"children":[
				7
			],
			"name":"LowerArm.L",
			"rotation":[
				0.07685913890600204,
				5.6809856374684387e-08,
				-3.3503622098862706e-09,
				0.9970420002937317
			],
			"translation":[
				1.3054607173046406e-08,
				0.1903342604637146,
				1.923837089634617e-09
			]
		},
		{
			"children":[
				8
			],
			"name":"UpperArm.L",
			"rotation":[
				-0.034844253212213516,
				-0.00930354930460453,
				0.25779905915260315,
				0.9655252695083618
			],
			"scale":[
				0.9999999403953552,
				1.0000001192092896,
				0.9999999403953552
			],
			"translation":[
				-5.215406062575312e-08,
				0.20610311627388,
				2.0539125955565396e-15
			]
		},
		{
			"children":[
				9
			],
			"name":"Shoulder.L",
			"rotation":[
				4.1788485560800837e-08,
				6.706805066869492e-08,
				-0.8655839562416077,
				0.5007638335227966
			],
			"scale":[
				0.9999997019767761,
				0.9999998807907104,
				1
			],
			"translation":[
				0,
				0.17643868923187256,
				0
			]
		},
		{
			"name":"Hand.R",
			"rotation":[
				-0.040850911289453506,
				-3.2084473017843576e-14,
				1.1525270515733155e-08,
				0.9991652965545654
			],
			"scale":[
				1,
				0.9999999403953552,
				0.9999999403953552
			],
			"translation":[
				-1.2345156896742537e-08,
				0.16806603968143463,
				-7.743254926140253e-10
			]
		},
		{
			"children":[
				11
			],
			"name":"LowerArm.R",
			"rotation":[
				0.07685913890600204,
				-5.6809856374684387e-08,
				3.3503622098862706e-09,
				0.9970420002937317
			],
			"translation":[
				-1.3054607173046406e-08,
				0.1903342604637146,
				1.923837089634617e-09
			]
		},
		{
			"children":[
				12
			],
			"name":"UpperArm.R",
			"rotation":[
				-0.034844253212213516,
				0.00930354930460453,
				-0.25779905915260315,
				0.9655252695083618
			],
			"scale":[
				0.9999999403953552,
				1.0000001192092896,
				0.9999999403953552
			],
			"translation":[
				5.215406062575312e-08,
				0.20610311627388,
				2.0539125955565396e-15
			]
		},
		{
			"children":[
				13
			],
			"name":"Shoulder.R",
			"rotation":[
				4.1788485560800837e-08,
				-6.706805066869492e-08,
				0.8655839562416077,
				0.5007638335227966
			],
			"scale":[
				0.9999997019767761,
				0.9999998807907104,
				1
			],
			"translation":[
				0,
				0.17643868923187256,
				0
			]
		},
		{
			"children":[
				6,
				10,
				14
			],
			"name":"Spine3",
			"rotation":[
				0,
				-5.960464477539063e-08,
				0,
				1
			],
			"translation":[
				0,
				0.16303831338882446,
				0
			]
		},
		{
			"children":[
				15
			],
			"name":"Spine2",
			"rotation":[
				0,
				5.960464477539063e-08,
				0,
				1
			],
			"scale":[
				1,
				0.9999999403953552,
				1
			],
			"translation":[
				0,
				0.24261754751205444,
				0
			]
		},
		{
			"name":"Foot.L",
			"rotation":[
				0.7217445373535156,
				-9.901762041408801e-07,
				-1.1414794016673113e-06,
				0.6921595335006714
			],
			"scale":[
				1,
				0.9999998807907104,
				0.9999998807907104
			],
			"translation":[
				-2.4161119771548556e-09,
				0.2519327998161316,
				5.160494254141668e-10
			]
		},
		{
			"children":[
				17
			],
			"name":"LowerLeg.L",
			"rotation":[
				-0.13275811076164246,
				-6.222755359885923e-07,
				-6.330406421284351e-08,
				0.9911485314369202
			],
			"scale":[
				1,
				0.9999999403953552,
				1
			],
			"translation":[
				-7.3186150473247835e-09,
				0.2371281087398529,
				-2.4299851020259666e-09
			]
		},
		{
			"children":[
				18
			],
			"name":"UpperLeg.L",
			"rotation":[
				5.514066856449062e-07,
				-0.0579557865858078,
				-0.998319149017334,
				3.201100184924144e-08
			],
			"scale":[
				1,
				0.9999999403953552,
				1.000000238418579
			],
			"translation":[
				0.16069836914539337,
				0.027463674545288086,
				-3.901003076123288e-09
			]
		},
		{
			"name":"Foot.R",
			"rotation":[
				0.7217445373535156,
				-1.0946926067845197e-06,
				-1.0325030643798527e-06,
				0.6921595335006714
			],
			"scale":[
				1,
				0.9999998807907104,
				0.9999998807907104
			],
			"translation":[
				2.4161119771548556e-09,
				0.2519327998161316,
				5.160494254141668e-10
			]
		},
		{
			"children":[
				20
			],
			"name":"LowerLeg.R",
			"rotation":[
				-0.13275811076164246,
				6.222755359885923e-07,
				6.330406421284351e-08,
				0.9911485314369202
			],
			"scale":[
				1,
				0.9999999403953552,
				1
			],
			"translation":[
				7.3186150473247835e-09,
				0.2371281087398529,
				-2.4299851020259666e-09
			]
		},
		{
			"children":[
				21
			],
			"name":"UpperLeg.R",
			"rotation":[
				5.514066856449062e-07,
				0.0579557865858078,
				0.998319149017334,
				3.201100184924144e-08
			],
			"scale":[
				1,
				0.9999999403953552,
				1.000000238418579
			],
			"translation":[
				-0.16069836914539337,
				0.027463674545288086,
				-3.901003076123288e-09
			]
		},
		{
			"children":[
				16,
				19,
				22
			],
			"name":"Spine1",
			"translation":[
				0,
				0.4960745573043823,
				0
			]
		},
		{
			"mesh":0,
			"name":"Hero",
			"skin":0
		},
		{
			"children":[
				24,
				0,
				1,
				2,
				3,
				23
			],
			"name":"HeroArmature"
		}
	],
	"animations":[
		{
			"channels":[
				{
					"sampler":0,
					"target":{
						"node":0,
						"path":"translation"
					}
				},
				{
					"sampler":1,
					"target":{
						"node":0,
						"path":"rotation"
					}
				},
				{
					"sampler":2,
					"target":{
						"node":0,
						"path":"scale"
					}
				},
				{
					"sampler":3,
					"target":{
						"node":1,
						"path":"translation"
					}
				},
				{
					"sampler":4,
					"target":{
						"node":1,
						"path":"rotation"
					}
				},
				{
					"sampler":5,
					"target":{
						"node":1,
						"path":"scale"
					}
				},
				{
					"sampler":6,
					"target":{
						"node":2,
						"path":"translation"
					}
				},
				{
					"sampler":7,
					"target":{
						"node":2,
						"path":"rotation"
					}
				},
				{
					"sampler":8,
					"target":{
						"node":2,
						"path":"scale"
					}
				},
				{
					"sampler":9,
					"target":{
						"node":3,
						"path":"translation"
					}
				},
				{
					"sampler":10,
					"target":{
						"node":3,
						"path":"rotation"
					}
				},
				{
					"sampler":11,
					"target":{
						"node":3,
						"path":"scale"
					}
				},
				{
					"sampler":12,
					"target":{
						"node":23,
						"path":"translation"
					}
				},
				{
					"sampler":13,
					"target":{
						"node":23,
						"path":"rotation"
					}
				},
				{
					"sampler":14,
					"target":{
						"node":23,
						"path":"scale"
					}
				},
				{
					"sampler":15,
					"target":{
						"node":16,
						"path":"translation"
					}
				},
				{
					"sampler":16,
					"target":{
						"node":16,
						"path":"rotation"
					}
				},
				{
					"sampler":17,
					"target":{
						"node":16,
						"path":"scale"
					}
				},
				{
					"sampler":18,
					"target":{
						"node":15,
						"path":"translation"
					}
				},
				{
					"sampler":19,
					"target":{
						"node":15,
						"path":"rotation"
					}
				},
				{
					"sampler":20,
					"target":{
						"node":15,
						"path":"scale"
					}
				},
				{
					"sampler":21,
					"target":{
						"node":6,
						"path":"translation"
					}
				},
				{
					"sampler":22,
					"target":{
						"node":6,
						"path":"rotation"
					}
				},
				{
					"sampler":23,
					"target":{
						"node":6,
						"path":"scale"
					}
				},
				{
					"sampler":24,
					"target":{
						"node":10,
						"path":"translation"
					}
				},
				{
					"sampler":25,
					"target":{
						"node":10,
						"path":"rotation"
					}
				},
				{
					"sampler":26,
					"target":{
						"node":10,
						"path":"scale"
					}
				},
				{
					"sampler":27,
					"target":{
						"node":9,
						"path":"translation"
					}
				},
				{
					"sampler":28,
					"target":{
						"node":9,
						"path":"rotation"
					}
				},
				{
					"sampler":29,
					"target":{
						"node":9,
						"path":"scale"
					}
				},
				{
					"sampler":30,
					"target":{
						"node":8,
						"path":"translation"
					}
				},
				{
					"sampler":31,
					"target":{
						"node":8,
						"path":"rotation"
					}
				},
				{
					"sampler":32,
					"target":{
						"node":8,
						"path":"scale"
					}
				},
				{
					"sampler":33,
					"target":{
						"node":7,
						"path":"translation"
					}
				},
				{
					"sampler":34,
					"target":{
						"node":7,
						"path":"rotation"
					}
				},
				{
					"sampler":35,
					"target":{
						"node":7,
						"path":"scale"
					}
				},
				{
					"sampler":36,
					"target":{
						"node":14,
						"path":"translation"
					}
				},
				{
					"sampler":37,
					"target":{
						"node":14,
						"path":"rotation"
					}
				},
				{
					"sampler":38,
					"target":{
						"node":14,
						"path":"scale"
					}
				},
				{
					"sampler":39,
					"target":{
						"node":13,
						"path":"translation"
					}
				},
				{
					"sampler":40,
					"target":{
						"node":13,
						"path":"rotation"
					}
				},
				{
					"sampler":41,
					"target":{
						"node":13,
						"path":"scale"
					}
				},
				{
					"sampler":42,
					"target":{
						"node":12,
						"path":"translation"
					}
				},
				{
					"sampler":43,
					"target":{
						"node":12,
						"path":"rotation"
					}
				},
				{
					"sampler":44,
					"target":{
						"node":12,
						"path":"scale"
					}
				},
				{
					"sampler":45,
					"target":{
						"node":11,
						"path":"translation"
					}
				},
				{
					"sampler":46,
					"target":{
						"node":11,
						"path":"rotation"
					}
				},
				{
					"sampler":47,
					"target":{
						"node":11,
						"path":"scale"
					}
				},
				{
					"sampler":48,
					"target":{
						"node":19,
						"path":"translation"
					}
				},
				{
					"sampler":49,
					"target":{
						"node":19,
						"path":"rotation"
					}
				},
				{
					"sampler":50,
					"target":{
						"node":19,
						"path":"scale"
					}
				},
				{
					"sampler":51,
					"target":{
						"node":18,
						"path":"translation"
					}
				},
				{
					"sampler":52,
					"target":{
						"node":18,
						"path":"rotation"
					}
				},
				{
					"sampler":53,
					"target":{
						"node":18,
						"path":"scale"
					}
				},
				{
					"sampler":54,
					"target":{
						"node":17,
						"path":"translation"
					}
				},
				{
					"sampler":55,
					"target":{
						"node":17,
						"path":"rotation"
					}
				},
				{
					"sampler":56,
					"target":{
						"node":17,
						"path":"scale"
					}
				},
				{
					"sampler":57,
					"target":{
						"node":22,
						"path":"translation"
					}
				},
				{
					"sampler":58,
					"target":{
						"node":22,
						"path":"rotation"
					}
				},
				{
					"sampler":59,
					"target":{
						"node":22,
						"path":"scale"
					}
				},
				{
					"sampler":60,
					"target":{
						"node":21,
						"path":"translation"
					}
				},
				{
					"sampler":61,
					"target":{
						"node":21,
						"path":"rotation"
					}
				},
				{
					"sampler":62,
					"target":{
						"node":21,
						"path":"scale"
					}
				},
				{
					"sampler":63,
					"target":{
						"node":20,
						"path":"translation"
					}
				},
				{
					"sampler":64,
					"target":{
						"node":20,
						"path":"rotation"
					}
				},
				{
					"sampler":65,
					"target":{
						"node":20,
						"path":"scale"
					}
				}
			],
			"name":"Idle",
			"samplers":[
				{
					"input":15,
					"interpolation":"STEP",
					"output":16
				},
				{
					"input":15,
					"interpolation":"STEP",
					"output":17
				},
				{
					"input":15,
					"interpolation":"STEP",
					"output":18
				},
				{
					"input":15,
					"interpolation":"STEP",
					"output":19
				},
				{
					"input":15,
					"interpolation":"STEP",
					"output":20
				},
				{
					"input":15,
					"interpolation":"STEP",
					"output":18
				},
				{
					"input":15,
					"interpolation":"STEP",
					"output":21
				},
				{
					"input":15,
					"interpolation":"STEP",
					"output":22
				},
				{
					"input":15,
					"interpolation":"STEP",
					"output":18
				},
				{
					"input":15,
					"interpolation":"STEP",
					"output":23
				},
				{
					"input":15,
					"interpolation":"STEP",
					"output":22
				},
				{
					"input":15,
					"interpolation":"STEP",
					"output":18
				},
				{
					"input":15,
					"interpolation":"STEP",
					"output":24
				},
				{
					"input":15,
					"interpolation":"STEP",
					"output":25
				},
				{
					"input":15,
					"interpolation":"STEP",
					"output":18
				},
				{
					"input":15,
					"interpolation":"STEP",
					"output":26
				},
				{
					"input":15,
					"interpolation":"STEP",
					"output":27
				},
				{
					"input":15,
					"interpolation":"STEP",
					"output":28
				},
				{
					"input":15,
					"interpolation":"STEP",
					"output":29
				},
				{
					"input":30,
					"interpolation":"LINEAR",
					"output":31
				},
				{
					"input":15,
					"interpolation":"STEP",
					"output":32
				},
				{
					"input":15,
					"interpolation":"STEP",
					"output":33
				},
				{
					"input":30,
					"interpolation":"LINEAR",
					"output":34
				},
				{
					"input":15,
					"interpolation":"STEP",
					"output":35
				},
				{
					"input":15,
					"interpolation":"STEP",
					"output":36
				},
				{
					"input":30,
					"interpolation":"LINEAR",
					"output":37
				},
				{
					"input":15,
					"interpolation":"STEP",
					"output":38
				},
				{
					"input":15,
					"interpolation":"STEP",
					"output":39
				},
				{
					"input":15,
					"interpolation":"STEP",
					"output":40
				},
				{
					"input":15,
					"interpolation":"STEP",
					"output":41
				},
				{
					"input":15,
					"interpolation":"STEP",
					"output":42
				},
				{
					"input":15,
					"interpolation":"STEP",
					"output":43
				},
				{
					"input":15,
					"interpolation":"STEP",
					"output":44
				},
				{
					"input":15,
					"interpolation":"STEP",
					"output":45
				},
				{
					"input":15,
					"interpolation":"STEP",
					"output":46
				},
				{
					"input":15,
					"interpolation":"STEP",
					"output":47
				},
				{
					"input":15,
					"interpolation":"STEP",
					"output":48
				},
				{
					"input":30,
					"interpolation":"LINEAR",
					"output":49
				},
				{
					"input":15,
					"interpolation":"STEP",
					"output":50
				},
				{
					"input":15,
					"interpolation":"STEP",
					"output":51
				},
				{
					"input":30,
					"interpolation":"LINEAR",
					"output":52
				},
				{
					"input":15,
					"interpolation":"STEP",
					"output":53
				},
				{
					"input":15,
					"interpolation":"STEP",
					"output":54
				},
				{
					"input":15,
					"interpolation":"STEP",
					"output":55
				},
				{
					"input":15,
					"interpolation":"STEP",
					"output":56
				},
				{
					"input":15,
					"interpolation":"STEP",
					"output":57
				},
				{
					"input":15,
					"interpolation":"STEP",
					"output":58
				},
				{
					"input":15,
					"interpolation":"STEP",
					"output":59
				},
				{
					"input":15,
					"interpolation":"STEP",
					"output":60
				},
				{
					"input":15,
					"interpolation":"STEP",
					"output":61
				},
				{
					"input":15,
					"interpolation":"STEP",
					"output":62
				},
				{
					"input":15,
					"interpolation":"STEP",
					"output":63
				},
				{
					"input":15,
					"interpolation":"STEP",
					"output":64
				},
				{
					"input":15,
					"interpolation":"STEP",
					"output":65
				},
				{
					"input":15,
					"interpolation":"STEP",
					"output":66
				},
				{
					"input":15,
					"interpolation":"STEP",
					"output":67
				},
				{
					"input":15,
					"interpolation":"STEP",
					"output":68
				},
				{
					"input":15,
					"interpolation":"STEP",
					"output":69
				},
				{
					"input":15,
					"interpolation":"STEP",
					"output":70
				},
				{
					"input":15,
					"interpolation":"STEP",
					"output":62
				},
				{
					"input":15,
					"interpolation":"STEP",
					"output":71
				},
				{
					"input":15,
					"interpolation":"STEP",
					"output":72
				},
				{
					"input":15,
					"interpolation":"STEP",
					"output":65
				},
				{
					"input":15,
					"interpolation":"STEP",
					"output":73
				},
				{
					"input":15,
					"interpolation":"STEP",
					"output":74
				},
				{
					"input":15,
					"interpolation":"STEP",
					"output":68
				}
			]
		},
		{
			"channels":[
				{
					"sampler":0,
					"target":{
						"node":0,
						"path":"translation"
					}
				},
				{
					"sampler":1,
					"target":{
						"node":0,
						"path":"rotation"
					}
				},
				{
					"sampler":2,
					"target":{
						"node":0,
						"path":"scale"
					}
				},
				{
					"sampler":3,
					"target":{
						"node":1,
						"path":"translation"
					}
				},
				{
					"sampler":4,
					"target":{
						"node":1,
						"path":"rotation"
					}
				},
				{
					"sampler":5,
					"target":{
						"node":1,
						"path":"scale"
					}
				},
				{
					"sampler":6,
					"target":{
						"node":2,
						"path":"translation"
					}
				},
				{
					"sampler":7,
					"target":{
						"node":2,
						"path":"rotation"
					}
				},
				{
					"sampler":8,
					"target":{
						"node":2,
						"path":"scale"
					}
				},
				{
					"sampler":9,
					"target":{
						"node":3,
						"path":"translation"
					}
				},
				{
					"sampler":10,
					"target":{
						"node":3,
						"path":"rotation"
					}
				},
				{
					"sampler":11,
					"target":{
						"node":3,
						"path":"scale"
					}
				},
				{
					"sampler":12,
					"target":{
						"node":23,
						"path":"translation"
					}
				},
				{
					"sampler":13,
					"target":{
						"node":23,
						"path":"rotation"
					}
				},
				{
					"sampler":14,
					"target":{
						"node":23,
						"path":"scale"
					}
				},
				{
					"sampler":15,
					"target":{
						"node":16,
						"path":"translation"
					}
				},
				{
					"sampler":16,
					"target":{
						"node":16,
						"path":"rotation"
					}
				},
				{
					"sampler":17,
					"target":{
						"node":16,
						"path":"scale"
					}
				},
				{
					"sampler":18,
					"target":{
						"node":15,
						"path":"translation"
					}
				},
				{
					"sampler":19,
					"target":{
						"node":15,
						"path":"rotation"
					}
				},
				{
					"sampler":20,
					"target":{
						"node":15,
						"path":"scale"
					}
				},
				{
					"sampler":21,
					"target":{
						"node":6,
						"path":"translation"
					}
				},
				{
					"sampler":22,
					"target":{
						"node":6,
						"path":"rotation"
					}
				},
				{
					"sampler":23,
					"target":{
						"node":6,
						"path":"scale"
					}
				},
				{
					"sampler":24,
					"target":{
						"node":10,
						"path":"translation"
					}
				},
				{
					"sampler":25,
					"target":{
						"node":10,
						"path":"rotation"
					}
				},
				{
					"sampler":26,
					"target":{
						"node":10,
						"path":"scale"
					}
				},
				{
					"sampler":27,
					"target":{
						"node":9,
						"path":"translation"
					}
				},
				{
					"sampler":28,
					"target":{
						"node":9,
						"path":"rotation"
					}
				},
				{
					"sampler":29,
					"target":{
						"node":9,
						"path":"scale"
					}
				},
				{
					"sampler":30,
					"target":{
						"node":8,
						"path":"translation"
					}
				},
				{
					"sampler":31,
					"target":{
						"node":8,
						"path":"rotation"
					}
				},
				{
					"sampler":32,
					"target":{
						"node":8,
						"path":"scale"
					}
				},
				{
					"sampler":33,
					"target":{
						"node":7,
						"path":"translation"
					}
				},
				{
					"sampler":34,
					"target":{
						"node":7,
						"path":"rotation"
					}
				},
				{
					"sampler":35,
					"target":{
						"node":7,
						"path":"scale"
					}
				},
				{
					"sampler":36,
					"target":{
						"node":14,
						"path":"translation"
					}
				},
				{
					"sampler":37,
					"target":{
						"node":14,
						"path":"rotation"
					}
				},
				{
					"sampler":38,
					"target":{
						"node":14,
						"path":"scale"
					}
				},
				{
					"sampler":39,
					"target":{
						"node":13,
						"path":"translation"
					}
				},
				{
					"sampler":40,
					"target":{
						"node":13,
						"path":"rotation"
					}
				},
				{
					"sampler":41,
					"target":{
						"node":13,
						"path":"scale"
					}
				},
				{
					"sampler":42,
					"target":{
						"node":12,
						"path":"translation"
					}
				},
				{
					"sampler":43,
					"target":{
						"node":12,
						"path":"rotation"
					}
				},
				{
					"sampler":44,
					"target":{
						"node":12,
						"path":"scale"
					}
				},
				{
					"sampler":45,
					"target":{
						"node":11,
						"path":"translation"
					}
				},
				{
					"sampler":46,
					"target":{
						"node":11,
						"path":"rotation"
					}
				},
				{
					"sampler":47,
					"target":{
						"node":11,
						"path":"scale"
					}
				},
				{
					"sampler":48,
					"target":{
						"node":19,
						"path":"translation"
					}
				},
				{
					"sampler":49,
					"target":{
						"node":19,
						"path":"rotation"
					}
				},
				{
					"sampler":50,
					"target":{
						"node":19,
						"path":"scale"
					}
				},
				{
					"sampler":51,
					"target":{
						"node":18,
						"path":"translation"
					}
				},
				{
					"sampler":52,
					"target":{
						"node":18,
						"path":"rotation"
					}
				},
				{
					"sampler":53,
					"target":{
						"node":18,
						"path":"scale"
					}
				},
				{
					"sampler":54,
					"target":{
						"node":17,
						"path":"translation"
					}
				},
				{
					"sampler":55,
					"target":{
						"node":17,
						"path":"rotation"
					}
				},
				{
					"sampler":56,
					"target":{
						"node":17,
						"path":"scale"
					}
				},
				{
					"sampler":57,
					"target":{
						"node":22,
						"path":"translation"
					}
				},
				{
					"sampler":58,
					"target":{
						"node":22,
						"path":"rotation"
					}
				},
				{
					"sampler":59,
					"target":{
						"node":22,
						"path":"scale"
					}
				},
				{
					"sampler":60,
					"target":{
						"node":21,
						"path":"translation"
					}
				},
				{
					"sampler":61,
					"target":{
						"node":21,
						"path":"rotation"
					}
				},
				{
					"sampler":62,
					"target":{
						"node":21,
						"path":"scale"
					}
				},
				{
					"sampler":63,
					"target":{
						"node":20,
						"path":"translation"
					}
				},
				{
					"sampler":64,
					"target":{
						"node":20,
						"path":"rotation"
					}
				},
				{
					"sampler":65,
					"target":{
						"node":20,
						"path":"scale"
					}
				}
			],
			"name":"Jump",
			"samplers":[
				{
					"input":75,
					"interpolation":"STEP",
					"output":16
				},
				{
					"input":75,
					"interpolation":"STEP",
					"output":17
				},
				{
					"input":75,
					"interpolation":"STEP",
					"output":18
				},
				{
					"input":75,
					"interpolation":"STEP",
					"output":19
				},
				{
					"input":75,
					"interpolation":"STEP",
					"output":20
				},
				{
					"input":75,
					"interpolation":"STEP",
					"output":18
				},
				{
					"input":76,
					"interpolation":"LINEAR",
					"output":77
				},
				{
					"input":75,
					"interpolation":"STEP",
					"output":22
				},
				{
					"input":75,
					"interpolation":"STEP",
					"output":18
				},
				{
					"input":76,
					"interpolation":"LINEAR",
					"output":78
				},
				{
					"input":75,
					"interpolation":"STEP",
					"output":22
				},
				{
					"input":75,
					"interpolation":"STEP",
					"output":18
				},
				{
					"input":76,
					"interpolation":"LINEAR",
					"output":79
				},
				{
					"input":75,
					"interpolation":"STEP",
					"output":25
				},
				{
					"input":75,
					"interpolation":"STEP",
					"output":18
				},
				{
					"input":75,
					"interpolation":"LINEAR",
					"output":80
				},
				{
					"input":76,
					"interpolation":"LINEAR",
					"output":81
				},
				{
					"input":75,
					"interpolation":"STEP",
					"output":28
				},
				{
					"input":75,
					"interpolation":"LINEAR",
					"output":82
				},
				{
					"input":76,
					"interpolation":"LINEAR",
					"output":83
				},
				{
					"input":75,
					"interpolation":"STEP",
					"output":84
				},
				{
					"input":75,
					"interpolation":"LINEAR",
					"output":85
				},
				{
					"input":76,
					"interpolation":"LINEAR",
					"output":86
				},
				{
					"input":75,
					"interpolation":"STEP",
					"output":87
				},
				{
					"input":75,
					"interpolation":"LINEAR",
					"output":88
				},
				{
					"input":76,
					"interpolation":"LINEAR",
					"output":89
				},
				{
					"input":75,
					"interpolation":"LINEAR",
					"output":90
				},
				{
					"input":75,
					"interpolation":"LINEAR",
					"output":91
				},
				{
					"input":76,
					"interpolation":"LINEAR",
					"output":92
				},
				{
					"input":75,
					"interpolation":"STEP",
					"output":93
				},
				{
					"input":75,
					"interpolation":"LINEAR",
					"output":94
				},
				{
					"input":76,
					"interpolation":"LINEAR",
					"output":95
				},
				{
					"input":75,
					"interpolation":"STEP",
					"output":96
				},
				{
					"input":75,
					"interpolation":"LINEAR",
					"output":97
				},
				{
					"input":75,
					"interpolation":"LINEAR",
					"output":98
				},
				{
					"input":75,
					"interpolation":"STEP",
					"output":99
				},
				{
					"input":75,
					"interpolation":"LINEAR",
					"output":100
				},
				{
					"input":76,
					"interpolation":"LINEAR",
					"output":101
				},
				{
					"input":75,
					"interpolation":"LINEAR",
					"output":102
				},
				{
					"input":75,
					"interpolation":"LINEAR",
					"output":103
				},
				{
					"input":76,
					"interpolation":"LINEAR",
					"output":104
				},
				{
					"input":75,
					"interpolation":"LINEAR",
					"output":105
				},
				{
					"input":75,
					"interpolation":"LINEAR",
					"output":106
				},
				{
					"input":76,
					"interpolation":"LINEAR",
					"output":107
				},
				{
					"input":75,
					"interpolation":"STEP",
					"output":108
				},
				{
					"input":75,
					"interpolation":"LINEAR",
					"output":109
				},
				{
					"input":75,
					"interpolation":"LINEAR",
					"output":110
				},
				{
					"input":75,
					"interpolation":"LINEAR",
					"output":111
				},
				{
					"input":75,
					"interpolation":"LINEAR",
					"output":112
				},
				{
					"input":76,
					"interpolation":"LINEAR",
					"output":113
				},
				{
					"input":75,
					"interpolation":"LINEAR",
					"output":114
				},
				{
					"input":75,
					"interpolation":"LINEAR",
					"output":115
				},
				{
					"input":76,
					"interpolation":"LINEAR",
					"output":116
				},
				{
					"input":75,
					"interpolation":"LINEAR",
					"output":117
				},
				{
					"input":75,
					"interpolation":"LINEAR",
					"output":118
				},
				{
					"input":76,
					"interpolation":"LINEAR",
					"output":119
				},
				{
					"input":75,
					"interpolation":"LINEAR",
					"output":120
				},
				{
					"input":75,
					"interpolation":"LINEAR",
					"output":121
				},
				{
					"input":76,
					"interpolation":"LINEAR",
					"output":122
				},
				{
					"input":75,
					"interpolation":"LINEAR",
					"output":123
				},
				{
					"input":75,
					"interpolation":"LINEAR",
					"output":124
				},
				{
					"input":76,
					"interpolation":"LINEAR",
					"output":125
				},
				{
					"input":75,
					"interpolation":"LINEAR",
					"output":126
				},
				{
					"input":75,
					"interpolation":"LINEAR",
					"output":127
				},
				{
					"input":76,
					"interpolation":"LINEAR",
					"output":128
				},
				{
					"input":75,
					"interpolation":"LINEAR",
					"output":120
				}
			]
		},
		{
			"channels":[
				{
					"sampler":0,
					"target":{
						"node":0,
						"path":"translation"
					}
				},
				{
					"sampler":1,
					"target":{
						"node":0,
						"path":"rotation"
					}
				},
				{
					"sampler":2,
					"target":{
						"node":0,
						"path":"scale"
					}
				},
				{
					"sampler":3,
					"target":{
						"node":1,
						"path":"translation"
					}
				},
				{
					"sampler":4,
					"target":{
						"node":1,
						"path":"rotation"
					}
				},
				{
					"sampler":5,
					"target":{
						"node":1,
						"path":"scale"
					}
				},
				{
					"sampler":6,
					"target":{
						"node":2,
						"path":"translation"
					}
				},
				{
					"sampler":7,
					"target":{
						"node":2,
						"path":"rotation"
					}
				},
				{
					"sampler":8,
					"target":{
						"node":2,
						"path":"scale"
					}
				},
				{
					"sampler":9,
					"target":{
						"node":3,
						"path":"translation"
					}
				},
				{
					"sampler":10,
					"target":{
						"node":3,
						"path":"rotation"
					}
				},
				{
					"sampler":11,
					"target":{
						"node":3,
						"path":"scale"
					}
				},
				{
					"sampler":12,
					"target":{
						"node":23,
						"path":"translation"
					}
				},
				{
					"sampler":13,
					"target":{
						"node":23,
						"path":"rotation"
					}
				},
				{
					"sampler":14,
					"target":{
						"node":23,
						"path":"scale"
					}
				},
				{
					"sampler":15,
					"target":{
						"node":16,
						"path":"translation"
					}
				},
				{
					"sampler":16,
					"target":{
						"node":16,
						"path":"rotation"
					}
				},
				{
					"sampler":17,
					"target":{
						"node":16,
						"path":"scale"
					}
				},
				{
					"sampler":18,
					"target":{
						"node":15,
						"path":"translation"
					}
				},
				{
					"sampler":19,
					"target":{
						"node":15,
						"path":"rotation"
					}
				},
				{
					"sampler":20,
					"target":{
						"node":15,
						"path":"scale"
					}
				},
				{
					"sampler":21,
					"target":{
						"node":6,
						"path":"translation"
					}
				},
				{
					"sampler":22,
					"target":{
						"node":6,
						"path":"rotation"
					}
				},
				{
					"sampler":23,
					"target":{
						"node":6,
						"path":"scale"
					}
				},
				{
					"sampler":24,
					"target":{
						"node":10,
						"path":"translation"
					}
				},
				{
					"sampler":25,
					"target":{
						"node":10,
						"path":"rotation"
					}
				},
				{
					"sampler":26,
					"target":{
						"node":10,
						"path":"scale"
					}
				},
				{
					"sampler":27,
					"target":{
						"node":9,
						"path":"translation"
					}
				},
				{
					"sampler":28,
					"target":{
						"node":9,
						"path":"rotation"
					}
				},
				{
					"sampler":29,
					"target":{
						"node":9,
						"path":"scale"
					}
				},
				{
					"sampler":30,
					"target":{
						"node":8,
						"path":"translation"
					}
				},
				{
					"sampler":31,
					"target":{
						"node":8,
						"path":"rotation"
					}
				},
				{
					"sampler":32,
					"target":{
						"node":8,
						"path":"scale"
					}
				},
				{
					"sampler":33,
					"target":{
						"node":7,
						"path":"translation"
					}
				},
				{
					"sampler":34,
					"target":{
						"node":7,
						"path":"rotation"
					}
				},
				{
					"sampler":35,
					"target":{
						"node":7,
						"path":"scale"
					}
				},
				{
					"sampler":36,
					"target":{
						"node":14,
						"path":"translation"
					}
				},
				{
					"sampler":37,
					"target":{
						"node":14,
						"path":"rotation"
					}
				},
				{
					"sampler":38,
					"target":{
						"node":14,
						"path":"scale"
					}
				},
				{
					"sampler":39,
					"target":{
						"node":13,
						"path":"translation"
					}
				},
				{
					"sampler":40,
					"target":{
						"node":13,
						"path":"rotation"
					}
				},
				{
					"sampler":41,
					"target":{
						"node":13,
						"path":"scale"
					}
				},
				{
					"sampler":42,
					"target":{
						"node":12,
						"path":"translation"
					}
				},
				{
					"sampler":43,
					"target":{
						"node":12,
						"path":"rotation"
					}
				},
				{
					"sampler":44,
					"target":{
						"node":12,
						"path":"scale"
					}
				},
				{
					"sampler":45,
					"target":{
						"node":11,
						"path":"translation"
					}
				},
				{
					"sampler":46,
					"target":{
						"node":11,
						"path":"rotation"
					}
				},
				{
					"sampler":47,
					"target":{
						"node":11,
						"path":"scale"
					}
				},
				{
					"sampler":48,
					"target":{
						"node":19,
						"path":"translation"
					}
				},
				{
					"sampler":49,
					"target":{
						"node":19,
						"path":"rotation"
					}
				},
				{
					"sampler":50,
					"target":{
						"node":19,
						"path":"scale"
					}
				},
				{
					"sampler":51,
					"target":{
						"node":18,
						"path":"translation"
					}
				},
				{
					"sampler":52,
					"target":{
						"node":18,
						"path":"rotation"
					}
				},
				{
					"sampler":53,
					"target":{
						"node":18,
						"path":"scale"
					}
				},
				{
					"sampler":54,
					"target":{
						"node":17,
						"path":"translation"
					}
				},
				{
					"sampler":55,
					"target":{
						"node":17,
						"path":"rotation"
					}
				},
				{
					"sampler":56,
					"target":{
						"node":17,
						"path":"scale"
					}
				},
				{
					"sampler":57,
					"target":{
						"node":22,
						"path":"translation"
					}
				},
				{
					"sampler":58,
					"target":{
						"node":22,
						"path":"rotation"
					}
				},
				{
					"sampler":59,
					"target":{
						"node":22,
						"path":"scale"
					}
				},
				{
					"sampler":60,
					"target":{
						"node":21,
						"path":"translation"
					}
				},
				{
					"sampler":61,
					"target":{
						"node":21,
						"path":"rotation"
					}
				},
				{
					"sampler":62,
					"target":{
						"node":21,
						"path":"scale"
					}
				},
				{
					"sampler":63,
					"target":{
						"node":20,
						"path":"translation"
					}
				},
				{
					"sampler":64,
					"target":{
						"node":20,
						"path":"rotation"
					}
				},
				{
					"sampler":65,
					"target":{
						"node":20,
						"path":"scale"
					}
				}
			],
			"name":"Run",
			"samplers":[
				{
					"input":129,
					"interpolation":"STEP",
					"output":16
				},
				{
					"input":129,
					"interpolation":"STEP",
					"output":17
				},
				{
					"input":129,
					"interpolation":"STEP",
					"output":18
				},
				{
					"input":129,
					"interpolation":"STEP",
					"output":19
				},
				{
					"input":129,
					"interpolation":"STEP",
					"output":20
				},
				{
					"input":129,
					"interpolation":"STEP",
					"output":18
				},
				{
					"input":130,
					"interpolation":"LINEAR",
					"output":131
				},
				{
					"input":130,
					"interpolation":"LINEAR",
					"output":132
				},
				{
					"input":129,
					"interpolation":"STEP",
					"output":133
				},
				{
					"input":130,
					"interpolation":"LINEAR",
					"output":134
				},
				{
					"input":130,
					"interpolation":"LINEAR",
					"output":135
				},
				{
					"input":129,
					"interpolation":"STEP",
					"output":18
				},
				{
					"input":130,
					"interpolation":"LINEAR",
					"output":136
				},
				{
					"input":129,
					"interpolation":"STEP",
					"output":25
				},
				{
					"input":129,
					"interpolation":"STEP",
					"output":18
				},
				{
					"input":129,
					"interpolation":"STEP",
					"output":137
				},
				{
					"input":129,
					"interpolation":"STEP",
					"output":27
				},
				{
					"input":129,
					"interpolation":"STEP",
					"output":28
				},
				{
					"input":129,
					"interpolation":"STEP",
					"output":138
				},
				{
					"input":130,
					"interpolation":"LINEAR",
					"output":139
				},
				{
					"input":129,
					"interpolation":"STEP",
					"output":32
				},
				{
					"input":129,
					"interpolation":"STEP",
					"output":140
				},
				{
					"input":129,
					"interpolation":"STEP",
					"output":141
				},
				{
					"input":129,
					"interpolation":"STEP",
					"output":35
				},
				{
					"input":129,
					"interpolation":"STEP",
					"output":142
				},
				{
					"input":129,
					"interpolation":"STEP",
					"output":143
				},
				{
					"input":129,
					"interpolation":"STEP",
					"output":38
				},
				{
					"input":129,
					"interpolation":"STEP",
					"output":144
				},
				{
					"input":130,
					"interpolation":"LINEAR",
					"output":145
				},
				{
					"input":129,
					"interpolation":"STEP",
					"output":146
				},
				{
					"input":129,
					"interpolation":"STEP",
					"output":147
				},
				{
					"input":130,
					"interpolation":"LINEAR",
					"output":148
				},
				{
					"input":129,
					"interpolation":"STEP",
					"output":35
				},
				{
					"input":129,
					"interpolation":"STEP",
					"output":149
				},
				{
					"input":129,
					"interpolation":"STEP",
					"output":150
				},
				{
					"input":129,
					"interpolation":"STEP",
					"output":151
				},
				{
					"input":129,
					"interpolation":"STEP",
					"output":152
				},
				{
					"input":129,
					"interpolation":"STEP",
					"output":153
				},
				{
					"input":129,
					"interpolation":"STEP",
					"output":50
				},
				{
					"input":129,
					"interpolation":"STEP",
					"output":154
				},
				{
					"input":130,
					"interpolation":"LINEAR",
					"output":155
				},
				{
					"input":129,
					"interpolation":"STEP",
					"output":156
				},
				{
					"input":129,
					"interpolation":"STEP",
					"output":157
				},
				{
					"input":130,
					"interpolation":"LINEAR",
					"output":158
				},
				{
					"input":129,
					"interpolation":"STEP",
					"output":18
				},
				{
					"input":129,
					"interpolation":"STEP",
					"output":159
				},
				{
					"input":129,
					"interpolation":"STEP",
					"output":160
				},
				{
					"input":129,
					"interpolation":"STEP",
					"output":161
				},
				{
					"input":129,
					"interpolation":"STEP",
					"output":162
				},
				{
					"input":130,
					"interpolation":"LINEAR",
					"output":163
				},
				{
					"input":129,
					"interpolation":"STEP",
					"output":164
				},
				{
					"input":129,
					"interpolation":"STEP",
					"output":165
				},
				{
					"input":130,
					"interpolation":"LINEAR",
					"output":166
				},
				{
					"input":129,
					"interpolation":"STEP",
					"output":167
				},
				{
					"input":129,
					"interpolation":"STEP",
					"output":168
				},
				{
					"input":130,
					"interpolation":"LINEAR",
					"output":169
				},
				{
					"input":129,
					"interpolation":"STEP",
					"output":170
				},
				{
					"input":129,
					"interpolation":"STEP",
					"output":171
				},
				{
					"input":130,
					"interpolation":"LINEAR",
					"output":172
				},
				{
					"input":129,
					"interpolation":"STEP",
					"output":173
				},
				{
					"input":129,
					"interpolation":"STEP",
					"output":174
				},
				{
					"input":130,
					"interpolation":"LINEAR",
					"output":175
				},
				{
					"input":129,
					"interpolation":"STEP",
					"output":176
				},
				{
					"input":129,
					"interpolation":"STEP",
					"output":177
				},
				{
					"input":130,
					"interpolation":"LINEAR",
					"output":178
				},
				{
					"input":129,
					"interpolation":"STEP",
					"output":179
				}
			]
		}
	],
	"materials":[
		{
			"doubleSided":true,
			"name":"Common",
			"pbrMetallicRoughness":{
				"baseColorTexture":{
					"index":0
				},
				"metallicFactor":0,
				"roughnessFactor":0.5
			}
		}
	],
	"meshes":[
		{
			"name":"Cube.001",
			"primitives":[
				{
					"attributes":{
						"POSITION":0,
						"NORMAL":1,
						"TEXCOORD_0":2,
						"JOINTS_0":3,
						"WEIGHTS_0":4
					},
					"indices":5,
					"material":0
				}
			]
		},
		{
			"name":"Cube.003",
			"primitives":[
				{
					"attributes":{
						"POSITION":7,
						"NORMAL":8,
						"TEXCOORD_0":9
					},
					"indices":10,
					"material":0
				}
			]
		},
		{
			"name":"Cube.002",
			"primitives":[
				{
					"attributes":{
						"POSITION":11,
						"NORMAL":12,
						"TEXCOORD_0":13
					},
					"indices":14,
					"material":0
				}
			]
		}
	],
	"textures":[
		{
			"sampler":0,
			"source":0
		}
	],
	"images":[
		{
			"mimeType":"image/png",
			"name":"Texture.png",
			"uri":"textures/Common.png"
		}
	],
	"skins":[
		{
			"inverseBindMatrices":6,
			"joints":[
				0,
				1,
				2,
				3,
				23,
				16,
				15,
				6,
				10,
				9,
				8,
				7,
				14,
				13,
				12,
				11,
				19,
				18,
				17,
				22,
				21,
				20
			],
			"name":"HeroArmature"
		}
	],
	"accessors":[
		{
			"bufferView":0,
			"componentType":5126,
			"count":885,
			"max":[
				0.6740421652793884,
				1.7266292572021484,
				0.22807231545448303
			],
			"min":[
				-0.6740421652793884,
				-0.010045289993286133,
				-0.17083372175693512
			],
			"type":"VEC3"
		},
		{
			"bufferView":1,
			"componentType":5126,
			"count":885,
			"type":"VEC3"
		},
		{
			"bufferView":2,
			"componentType":5126,
			"count":885,
			"type":"VEC2"
		},
		{
			"bufferView":3,
			"componentType":5121,
			"count":885,
			"type":"VEC4"
		},
		{
			"bufferView":4,
			"componentType":5126,
			"count":885,
			"type":"VEC4"
		},
		{
			"bufferView":5,
			"componentType":5123,
			"count":1512,
			"type":"SCALAR"
		},
		{
			"bufferView":6,
			"componentType":5126,
			"count":22,
			"type":"MAT4"
		},
		{
			"bufferView":7,
			"componentType":5126,
			"count":184,
			"max":[
				1.1798869371414185,
				0.3409540355205536,
				-0.44625145196914673
			],
			"min":[
				-1.1798869371414185,
				-2.423715114593506,
				-2.0177786350250244
			],
			"type":"VEC3"
		},
		{
			"bufferView":8,
			"componentType":5126,
			"count":184,
			"type":"VEC3"
		},
		{
			"bufferView":9,
			"componentType":5126,
			"count":184,
			"type":"VEC2"
		},
		{
			"bufferView":10,
			"componentType":5123,
			"count":276,
			"type":"SCALAR"
		},
		{
			"bufferView":11,
			"componentType":5126,
			"count":95,
			"max":[
				1.1054611206054688,
				3.7948050498962402,
				2.0923900604248047
			],
			"min":[
				-1.1054611206054688,
				2.1391046047210693,
				-0.9231345653533936
			],
			"type":"VEC3"
		},
		{
			"bufferView":12,
			"componentType":5126,
			"count":95,
			"type":"VEC3"
		},
		{
			"bufferView":13,
			"componentType":5126,
			"count":95,
			"type":"VEC2"
		},
		{
			"bufferView":14,
			"componentType":5123,
			"count":168,
			"type":"SCALAR"
		},
		{
			"bufferView":15,
			"componentType":5126,
			"count":2,
			"max":[
				1.7083333333333333
			],
			"min":[
				0.041666666666666664
			],
			"type":"SCALAR"
		},
		{
			"bufferView":16,
			"componentType":5126,
			"count":2,
			"type":"VEC3"
		},
		{
			"bufferView":17,
			"componentType":5126,
			"count":2,
			"type":"VEC4"
		},
		{
			"bufferView":18,
			"componentType":5126,
			"count":2,
			"type":"VEC3"
		},
		{
			"bufferView":19,
			"componentType":5126,
			"count":2,
			"type":"VEC3"
		},
		{
			"bufferView":20,
			"componentType":5126,
			"count":2,
			"type":"VEC4"
		},
		{
			"bufferView":21,
			"componentType":5126,
			"count":2,
			"type":"VEC3"
		},
		{
			"bufferView":22,
			"componentType":5126,
			"count":2,
			"type":"VEC4"
		},
		{
			"bufferView":23,
			"componentType":5126,
			"count":2,
			"type":"VEC3"
		},
		{
			"bufferView":24,
			"componentType":5126,
			"count":2,
			"type":"VEC3"
		},
		{
			"bufferView":25,
			"componentType":5126,
			"count":2,
			"type":"VEC4"
		},
		{
			"bufferView":26,
			"componentType":5126,
			"count":2,
			"type":"VEC3"
		},
		{
			"bufferView":27,
			"componentType":5126,
			"count":2,
			"type":"VEC4"
		},
		{
			"bufferView":28,
			"componentType":5126,
			"count":2,
			"type":"VEC3"
		},
		{
			"bufferView":29,
			"componentType":5126,
			"count":2,
			"type":"VEC3"
		},
		{
			"bufferView":30,
			"componentType":5126,
			"count":41,
			"max":[
				1.7083333333333333
			],
			"min":[
				0.041666666666666664
			],
			"type":"SCALAR"
		},
		{
			"bufferView":31,
			"componentType":5126,
			"count":41,
			"type":"VEC4"
		},
		{
			"bufferView":32,
			"componentType":5126,
			"count":2,
			"type":"VEC3"
		},
		{
			"bufferView":33,
			"componentType":5126,
			"count":2,
			"type":"VEC3"
		},
		{
			"bufferView":34,
			"componentType":5126,
			"count":41,
			"type":"VEC4"
		},
		{
			"bufferView":35,
			"componentType":5126,
			"count":2,
			"type":"VEC3"
		},
		{
			"bufferView":36,
			"componentType":5126,
			"count":2,
			"type":"VEC3"
		},
		{
			"bufferView":37,
			"componentType":5126,
			"count":41,
			"type":"VEC4"
		},
		{
			"bufferView":38,
			"componentType":5126,
			"count":2,
			"type":"VEC3"
		},
		{
			"bufferView":39,
			"componentType":5126,
			"count":2,
			"type":"VEC3"
		},
		{
			"bufferView":40,
			"componentType":5126,
			"count":2,
			"type":"VEC4"
		},
		{
			"bufferView":41,
			"componentType":5126,
			"count":2,
			"type":"VEC3"
		},
		{
			"bufferView":42,
			"componentType":5126,
			"count":2,
			"type":"VEC3"
		},
		{
			"bufferView":43,
			"componentType":5126,
			"count":2,
			"type":"VEC4"
		},
		{
			"bufferView":44,
			"componentType":5126,
			"count":2,
			"type":"VEC3"
		},
		{
			"bufferView":45,
			"componentType":5126,
			"count":2,
			"type":"VEC3"
		},
		{
			"bufferView":46,
			"componentType":5126,
			"count":2,
			"type":"VEC4"
		},
		{
			"bufferView":47,
			"componentType":5126,
			"count":2,
			"type":"VEC3"
		},
		{
			"bufferView":48,
			"componentType":5126,
			"count":2,
			"type":"VEC3"
		},
		{
			"bufferView":49,
			"componentType":5126,
			"count":41,
			"type":"VEC4"
		},
		{
			"bufferView":50,
			"componentType":5126,
			"count":2,
			"type":"VEC3"
		},
		{
			"bufferView":51,
			"componentType":5126,
			"count":2,
			"type":"VEC3"
		},
		{
			"bufferView":52,
			"componentType":5126,
			"count":41,
			"type":"VEC4"
		},
		{
			"bufferView":53,
			"componentType":5126,
			"count":2,
			"type":"VEC3"
		},
		{
			"bufferView":54,
			"componentType":5126,
			"count":2,
			"type":"VEC3"
		},
		{
			"bufferView":55,
			"componentType":5126,
			"count":2,
			"type":"VEC4"
		},
		{
			"bufferView":56,
			"componentType":5126,
			"count":2,
			"type":"VEC3"
		},
		{
			"bufferView":57,
			"componentType":5126,
			"count":2,
			"type":"VEC3"
		},
		{
			"bufferView":58,
			"componentType":5126,
			"count":2,
			"type":"VEC4"
		},
		{
			"bufferView":59,
			"componentType":5126,
			"count":2,
			"type":"VEC3"
		},
		{
			"bufferView":60,
			"componentType":5126,
			"count":2,
			"type":"VEC3"
		},
		{
			"bufferView":61,
			"componentType":5126,
			"count":2,
			"type":"VEC4"
		},
		{
			"bufferView":62,
			"componentType":5126,
			"count":2,
			"type":"VEC3"
		},
		{
			"bufferView":63,
			"componentType":5126,
			"count":2,
			"type":"VEC3"
		},
		{
			"bufferView":64,
			"componentType":5126,
			"count":2,
			"type":"VEC4"
		},
		{
			"bufferView":65,
			"componentType":5126,
			"count":2,
			"type":"VEC3"
		},
		{
			"bufferView":66,
			"componentType":5126,
			"count":2,
			"type":"VEC3"
		},
		{
			"bufferView":67,
			"componentType":5126,
			"count":2,
			"type":"VEC4"
		},
		{
			"bufferView":68,
			"componentType":5126,
			"count":2,
			"type":"VEC3"
		},
		{
			"bufferView":69,
			"componentType":5126,
			"count":2,
			"type":"VEC3"
		},
		{
			"bufferView":70,
			"componentType":5126,
			"count":2,
			"type":"VEC4"
		},
		{
			"bufferView":71,
			"componentType":5126,
			"count":2,
			"type":"VEC3"
		},
		{
			"bufferView":72,
			"componentType":5126,
			"count":2,
			"type":"VEC4"
		},
		{
			"bufferView":73,
			"componentType":5126,
			"count":2,
			"type":"VEC3"
		},
		{
			"bufferView":74,
			"componentType":5126,
			"count":2,
			"type":"VEC4"
		},
		{
			"bufferView":75,
			"componentType":5126,
			"count":2,
			"max":[
				0.16666666666666666
			],
			"min":[
				0.041666666666666664
			],
			"type":"SCALAR"
		},
		{
			"bufferView":76,
			"componentType":5126,
			"count":4,
			"max":[
				0.16666666666666666
			],
			"min":[
				0.041666666666666664
			],
			"type":"SCALAR"
		},
		{
			"bufferView":77,
			"componentType":5126,
			"count":4,
			"type":"VEC3"
		},
		{
			"bufferView":78,
			"componentType":5126,
			"count":4,
			"type":"VEC3"
		},
		{
			"bufferView":79,
			"componentType":5126,
			"count":4,
			"type":"VEC3"
		},
		{
			"bufferView":80,
			"componentType":5126,
			"count":2,
			"type":"VEC3"
		},
		{
			"bufferView":81,
			"componentType":5126,
			"count":4,
			"type":"VEC4"
		},
		{
			"bufferView":82,
			"componentType":5126,
			"count":2,
			"type":"VEC3"
		},
		{
			"bufferView":83,
			"componentType":5126,
			"count":4,
			"type":"VEC4"
		},
		{
			"bufferView":84,
			"componentType":5126,
			"count":2,
			"type":"VEC3"
		},
		{
			"bufferView":85,
			"componentType":5126,
			"count":2,
			"type":"VEC3"
		},
		{
			"bufferView":86,
			"componentType":5126,
			"count":4,
			"type":"VEC4"
		},
		{
			"bufferView":87,
			"componentType":5126,
			"count":2,
			"type":"VEC3"
		},
		{
			"bufferView":88,
			"componentType":5126,
			"count":2,
			"type":"VEC3"
		},
		{
			"bufferView":89,
			"componentType":5126,
			"count":4,
			"type":"VEC4"
		},
		{
			"bufferView":90,
			"componentType":5126,
			"count":2,
			"type":"VEC3"
		},
		{
			"bufferView":91,
			"componentType":5126,
			"count":2,
			"type":"VEC3"
		},
		{
			"bufferView":92,
			"componentType":5126,
			"count":4,
			"type":"VEC4"
		},
		{
			"bufferView":93,
			"componentType":5126,
			"count":2,
			"type":"VEC3"
		},
		{
			"bufferView":94,
			"componentType":5126,
			"count":2,
			"type":"VEC3"
		},
		{
			"bufferView":95,
			"componentType":5126,
			"count":4,
			"type":"VEC4"
		},
		{
			"bufferView":96,
			"componentType":5126,
			"count":2,
			"type":"VEC3"
		},
		{
			"bufferView":97,
			"componentType":5126,
			"count":2,
			"type":"VEC3"
		},
		{
			"bufferView":98,
			"componentType":5126,
			"count":2,
			"type":"VEC4"
		},
		{
			"bufferView":99,
			"componentType":5126,
			"count":2,
			"type":"VEC3"
		},
		{
			"bufferView":100,
			"componentType":5126,
			"count":2,
			"type":"VEC3"
		},
		{
			"bufferView":101,
			"componentType":5126,
			"count":4,
			"type":"VEC4"
		},
		{
			"bufferView":102,
			"componentType":5126,
			"count":2,
			"type":"VEC3"
		},
		{
			"bufferView":103,
			"componentType":5126,
			"count":2,
			"type":"VEC3"
		},
		{
			"bufferView":104,
			"componentType":5126,
			"count":4,
			"type":"VEC4"
		},
		{
			"bufferView":105,
			"componentType":5126,
			"count":2,
			"type":"VEC3"
		},
		{
			"bufferView":106,
			"componentType":5126,
			"count":2,
			"type":"VEC3"
		},
		{
			"bufferView":107,
			"componentType":5126,
			"count":4,
			"type":"VEC4"
		},
		{
			"bufferView":108,
			"componentType":5126,
			"count":2,
			"type":"VEC3"
		},
		{
			"bufferView":109,
			"componentType":5126,
			"count":2,
			"type":"VEC3"
		},
		{
			"bufferView":110,
			"componentType":5126,
			"count":2,
			"type":"VEC4"
		},
		{
			"bufferView":111,
			"componentType":5126,
			"count":2,
			"type":"VEC3"
		},
		{
			"bufferView":112,
			"componentType":5126,
			"count":2,
			"type":"VEC3"
		},
		{
			"bufferView":113,
			"componentType":5126,
			"count":4,
			"type":"VEC4"
		},
		{
			"bufferView":114,
			"componentType":5126,
			"count":2,
			"type":"VEC3"
		},
		{
			"bufferView":115,
			"componentType":5126,
			"count":2,
			"type":"VEC3"
		},
		{
			"bufferView":116,
			"componentType":5126,
			"count":4,
			"type":"VEC4"
		},
		{
			"bufferView":117,
			"componentType":5126,
			"count":2,
			"type":"VEC3"
		},
		{
			"bufferView":118,
			"componentType":5126,
			"count":2,
			"type":"VEC3"
		},
		{
			"bufferView":119,
			"componentType":5126,
			"count":4,
			"type":"VEC4"
		},
		{
			"bufferView":120,
			"componentType":5126,
			"count":2,
			"type":"VEC3"
		},
		{
			"bufferView":121,
			"componentType":5126,
			"count":2,
			"type":"VEC3"
		},
		{
			"bufferView":122,
			"componentType":5126,
			"count":4,
			"type":"VEC4"
		},
		{
			"bufferView":123,
			"componentType":5126,
			"count":2,
			"type":"VEC3"
		},
		{
			"bufferView":124,
			"componentType":5126,
			"count":2,
			"type":"VEC3"
		},
		{
			"bufferView":125,
			"componentType":5126,
			"count":4,
			"type":"VEC4"
		},
		{
			"bufferView":126,
			"componentType":5126,
			"count":2,
			"type":"VEC3"
		},
		{
			"bufferView":127,
			"componentType":5126,
			"count":2,
			"type":"VEC3"
		},
		{
			"bufferView":128,
			"componentType":5126,
			"count":4,
			"type":"VEC4"
		},
		{
			"bufferView":129,
			"componentType":5126,
			"count":2,
			"max":[
				0.7916666666666666
			],
			"min":[
				0.041666666666666664
			],
			"type":"SCALAR"
		},
		{
			"bufferView":130,
			"componentType":5126,
			"count":19,
			"max":[
				0.7916666666666666
			],
			"min":[
				0.041666666666666664
			],
			"type":"SCALAR"
		},
		{
			"bufferView":131,
			"componentType":5126,
			"count":19,
			"type":"VEC3"
		},
		{
			"bufferView":132,
			"componentType":5126,
			"count":19,
			"type":"VEC4"
		},
		{
			"bufferView":133,
			"componentType":5126,
			"count":2,
			"type":"VEC3"
		},
		{
			"bufferView":134,
			"componentType":5126,
			"count":19,
			"type":"VEC3"
		},
		{
			"bufferView":135,
			"componentType":5126,
			"count":19,
			"type":"VEC4"
		},
		{
			"bufferView":136,
			"componentType":5126,
			"count":19,
			"type":"VEC3"
		},
		{
			"bufferView":137,
			"componentType":5126,
			"count":2,
			"type":"VEC3"
		},
		{
			"bufferView":138,
			"componentType":5126,
			"count":2,
			"type":"VEC3"
		},
		{
			"bufferView":139,
			"componentType":5126,
			"count":19,
			"type":"VEC4"
		},
		{
			"bufferView":140,
			"componentType":5126,
			"count":2,
			"type":"VEC3"
		},
		{
			"bufferView":141,
			"componentType":5126,
			"count":2,
			"type":"VEC4"
		},
		{
			"bufferView":142,
			"componentType":5126,
			"count":2,
			"type":"VEC3"
		},
		{
			"bufferView":143,
			"componentType":5126,
			"count":2,
			"type":"VEC4"
		},
		{
			"bufferView":144,
			"componentType":5126,
			"count":2,
			"type":"VEC3"
		},
		{
			"bufferView":145,
			"componentType":5126,
			"count":19,
			"type":"VEC4"
		},
		{
			"bufferView":146,
			"componentType":5126,
			"count":2,
			"type":"VEC3"
		},
		{
			"bufferView":147,
			"componentType":5126,
			"count":2,
			"type":"VEC3"
		},
		{
			"bufferView":148,
			"componentType":5126,
			"count":19,
			"type":"VEC4"
		},
		{
			"bufferView":149,
			"componentType":5126,
			"count":2,
			"type":"VEC3"
		},
		{
			"bufferView":150,
			"componentType":5126,
			"count":2,
			"type":"VEC4"
		},
		{
			"bufferView":151,
			"componentType":5126,
			"count":2,
			"type":"VEC3"
		},
		{
			"bufferView":152,
			"componentType":5126,
			"count":2,
			"type":"VEC3"
		},
		{
			"bufferView":153,
			"componentType":5126,
			"count":2,
			"type":"VEC4"
		},
		{
			"bufferView":154,
			"componentType":5126,
			"count":2,
			"type":"VEC3"
		},
		{
			"bufferView":155,
			"componentType":5126,
			"count":19,
			"type":"VEC4"
		},
		{
			"bufferView":156,
			"componentType":5126,
			"count":2,
			"type":"VEC3"
		},
		{
			"bufferView":157,
			"componentType":5126,
			"count":2,
			"type":"VEC3"
		},
		{
			"bufferView":158,
			"componentType":5126,
			"count":19,
			"type":"VEC4"
		},
		{
			"bufferView":159,
			"componentType":5126,
			"count":2,
			"type":"VEC3"
		},
		{
			"bufferView":160,
			"componentType":5126,
			"count":2,
			"type":"VEC4"
		},
		{
			"bufferView":161,
			"componentType":5126,
			"count":2,
			"type":"VEC3"
		},
		{
			"bufferView":162,
			"componentType":5126,
			"count":2,
			"type":"VEC3"
		},
		{
			"bufferView":163,
			"componentType":5126,
			"count":19,
			"type":"VEC4"
		},
		{
			"bufferView":164,
			"componentType":5126,
			"count":2,
			"type":"VEC3"
		},
		{
			"bufferView":165,
			"componentType":5126,
			"count":2,
			"type":"VEC3"
		},
		{
			"bufferView":166,
			"componentType":5126,
			"count":19,
			"type":"VEC4"
		},
		{
			"bufferView":167,
			"componentType":5126,
			"count":2,
			"type":"VEC3"
		},
		{
			"bufferView":168,
			"componentType":5126,
			"count":2,
			"type":"VEC3"
		},
		{
			"bufferView":169,
			"componentType":5126,
			"count":19,
			"type":"VEC4"
		},
		{
			"bufferView":170,
			"componentType":5126,
			"count":2,
			"type":"VEC3"
		},
		{
			"bufferView":171,
			"componentType":5126,
			"count":2,
			"type":"VEC3"
		},
		{
			"bufferView":172,
			"componentType":5126,
			"count":19,
			"type":"VEC4"
		},
		{
			"bufferView":173,
			"componentType":5126,
			"count":2,
			"type":"VEC3"
		},
		{
			"bufferView":174,
			"componentType":5126,
			"count":2,
			"type":"VEC3"
		},
		{
			"bufferView":175,
			"componentType":5126,
			"count":19,
			"type":"VEC4"
		},
		{
			"bufferView":176,
			"componentType":5126,
			"count":2,
			"type":"VEC3"
		},
		{
			"bufferView":177,
			"componentType":5126,
			"count":2,
			"type":"VEC3"
		},
		{
			"bufferView":178,
			"componentType":5126,
			"count":19,
			"type":"VEC4"
		},
		{
			"bufferView":179,
			"componentType":5126,
			"count":2,
			"type":"VEC3"
		}
	],
	"bufferViews":[
		{
			"buffer":0,
			"byteLength":10620,
			"byteOffset":0,
			"target":34962
		},
		{
			"buffer":0,
			"byteLength":10620,
			"byteOffset":10620,
			"target":34962
		},
		{
			"buffer":0,
			"byteLength":7080,
			"byteOffset":21240,
			"target":34962
		},
		{
			"buffer":0,
			"byteLength":3540,
			"byteOffset":28320,
			"target":34962
		},
		{
			"buffer":0,
			"byteLength":14160,
			"byteOffset":31860,
			"target":34962
		},
		{
			"buffer":0,
			"byteLength":3024,
			"byteOffset":46020,
			"target":34963
		},
		{
			"buffer":0,
			"byteLength":1408,
			"byteOffset":49044
		},
		{
			"buffer":0,
			"byteLength":2208,
			"byteOffset":50452,
			"target":34962
		},
		{
			"buffer":0,
			"byteLength":2208,
			"byteOffset":52660,
			"target":34962
		},
		{
			"buffer":0,
			"byteLength":1472,
			"byteOffset":54868,
			"target":34962
		},
		{
			"buffer":0,
			"byteLength":552,
			"byteOffset":56340,
			"target":34963
		},
		{
			"buffer":0,
			"byteLength":1140,
			"byteOffset":56892,
			"target":34962
		},
		{
			"buffer":0,
			"byteLength":1140,
			"byteOffset":58032,
			"target":34962
		},
		{
			"buffer":0,
			"byteLength":760,
			"byteOffset":59172,
			"target":34962
		},
		{
			"buffer":0,
			"byteLength":336,
			"byteOffset":59932,
			"target":34963
		},
		{
			"buffer":0,
			"byteLength":8,
			"byteOffset":60268
		},
		{
			"buffer":0,
			"byteLength":24,
			"byteOffset":60276
		},
		{
			"buffer":0,
			"byteLength":32,
			"byteOffset":60300
		},
		{
			"buffer":0,
			"byteLength":24,
			"byteOffset":60332
		},
		{
			"buffer":0,
			"byteLength":24,
			"byteOffset":60356
		},
		{
			"buffer":0,
			"byteLength":32,
			"byteOffset":60380
		},
		{
			"buffer":0,
			"byteLength":24,
			"byteOffset":60412
		},
		{
			"buffer":0,
			"byteLength":32,
			"byteOffset":60436
		},
		{
			"buffer":0,
			"byteLength":24,
			"byteOffset":60468
		},
		{
			"buffer":0,
			"byteLength":24,
			"byteOffset":60492
		},
		{
			"buffer":0,
			"byteLength":32,
			"byteOffset":60516
		},
		{
			"buffer":0,
			"byteLength":24,
			"byteOffset":60548
		},
		{
			"buffer":0,
			"byteLength":32,
			"byteOffset":60572
		},
		{
			"buffer":0,
			"byteLength":24,
			"byteOffset":60604
		},
		{
			"buffer":0,
			"byteLength":24,
			"byteOffset":60628
		},
		{
			"buffer":0,
			"byteLength":164,
			"byteOffset":60652
		},
		{
			"buffer":0,
			"byteLength":656,
			"byteOffset":60816
		},
		{
			"buffer":0,
			"byteLength":24,
			"byteOffset":61472
		},
		{
			"buffer":0,
			"byteLength":24,
			"byteOffset":61496
		},
		{
			"buffer":0,
			"byteLength":656,
			"byteOffset":61520
		},
		{
			"buffer":0,
			"byteLength":24,
			"byteOffset":62176
		},
		{
			"buffer":0,
			"byteLength":24,
			"byteOffset":62200
		},
		{
			"buffer":0,
			"byteLength":656,
			"byteOffset":62224
		},
		{
			"buffer":0,
			"byteLength":24,
			"byteOffset":62880
		},
		{
			"buffer":0,
			"byteLength":24,
			"byteOffset":62904
		},
		{
			"buffer":0,
			"byteLength":32,
			"byteOffset":62928
		},
		{
			"buffer":0,
			"byteLength":24,
			"byteOffset":62960
		},
		{
			"buffer":0,
			"byteLength":24,
			"byteOffset":62984
		},
		{
			"buffer":0,
			"byteLength":32,
			"byteOffset":63008
		},
		{
			"buffer":0,
			"byteLength":24,
			"byteOffset":63040
		},
		{
			"buffer":0,
			"byteLength":24,
			"byteOffset":63064
		},
		{
			"buffer":0,
			"byteLength":32,
			"byteOffset":63088
		},
		{
			"buffer":0,
			"byteLength":24,
			"byteOffset":63120
		},
		{
			"buffer":0,
			"byteLength":24,
			"byteOffset":63144
		},
		{
			"buffer":0,
			"byteLength":656,
			"byteOffset":63168
		},
		{
			"buffer":0,
			"byteLength":24,
			"byteOffset":63824
		},
		{
			"buffer":0,
			"byteLength":24,
			"byteOffset":63848
		},
		{
			"buffer":0,
			"byteLength":656,
			"byteOffset":63872
		},
		{
			"buffer":0,
			"byteLength":24,
			"byteOffset":64528
		},
		{
			"buffer":0,
			"byteLength":24,
			"byteOffset":64552
		},
		{
			"buffer":0,
			"byteLength":32,
			"byteOffset":64576
		},
		{
			"buffer":0,
			"byteLength":24,
			"byteOffset":64608
		},
		{
			"buffer":0,
			"byteLength":24,
			"byteOffset":64632
		},
		{
			"buffer":0,
			"byteLength":32,
			"byteOffset":64656
		},
		{
			"buffer":0,
			"byteLength":24,
			"byteOffset":64688
		},
		{
			"buffer":0,
			"byteLength":24,
			"byteOffset":64712
		},
		{
			"buffer":0,
			"byteLength":32,
			"byteOffset":64736
		},
		{
			"buffer":0,
			"byteLength":24,
			"byteOffset":64768
		},
		{
			"buffer":0,
			"byteLength":24,
			"byteOffset":64792
		},
		{
			"buffer":0,
			"byteLength":32,
			"byteOffset":64816
		},
		{
			"buffer":0,
			"byteLength":24,
			"byteOffset":64848
		},
		{
			"buffer":0,
			"byteLength":24,
			"byteOffset":64872
		},
		{
			"buffer":0,
			"byteLength":32,
			"byteOffset":64896
		},
		{
			"buffer":0,
			"byteLength":24,
			"byteOffset":64928
		},
		{
			"buffer":0,
			"byteLength":24,
			"byteOffset":64952
		},
		{
			"buffer":0,
			"byteLength":32,
			"byteOffset":64976
		},
		{
			"buffer":0,
			"byteLength":24,
			"byteOffset":65008
		},
		{
			"buffer":0,
			"byteLength":32,
			"byteOffset":65032
		},
		{
			"buffer":0,
			"byteLength":24,
			"byteOffset":65064
		},
		{
			"buffer":0,
			"byteLength":32,
			"byteOffset":65088
		},
		{
			"buffer":0,
			"byteLength":8,
			"byteOffset":65120
		},
		{
			"buffer":0,
			"byteLength":16,
			"byteOffset":65128
		},
		{
			"buffer":0,
			"byteLength":48,
			"byteOffset":65144
		},
		{
			"buffer":0,
			"byteLength":48,
			"byteOffset":65192
		},
		{
			"buffer":0,
			"byteLength":48,
			"byteOffset":65240
		},
		{
			"buffer":0,
			"byteLength":24,
			"byteOffset":65288
		},
		{
			"buffer":0,
			"byteLength":64,
			"byteOffset":65312
		},
		{
			"buffer":0,
			"byteLength":24,
			"byteOffset":65376
		},
		{
			"buffer":0,
			"byteLength":64,
			"byteOffset":65400
		},
		{
			"buffer":0,
			"byteLength":24,
			"byteOffset":65464
		},
		{
			"buffer":0,
			"byteLength":24,
			"byteOffset":65488
		},
		{
			"buffer":0,
			"byteLength":64,
			"byteOffset":65512
		},
		{
			"buffer":0,
			"byteLength":24,
			"byteOffset":65576
		},
		{
			"buffer":0,
			"byteLength":24,
			"byteOffset":65600
		},
		{
			"buffer":0,
			"byteLength":64,
			"byteOffset":65624
		},
		{
			"buffer":0,
			"byteLength":24,
			"byteOffset":65688
		},
		{
			"buffer":0,
			"byteLength":24,
			"byteOffset":65712
		},
		{
			"buffer":0,
			"byteLength":64,
			"byteOffset":65736
		},
		{
			"buffer":0,
			"byteLength":24,
			"byteOffset":65800
		},
		{
			"buffer":0,
			"byteLength":24,
			"byteOffset":65824
		},
		{
			"buffer":0,
			"byteLength":64,
			"byteOffset":65848
		},
		{
			"buffer":0,
			"byteLength":24,
			"byteOffset":65912
		},
		{
			"buffer":0,
			"byteLength":24,
			"byteOffset":65936
		},
		{
			"buffer":0,
			"byteLength":32,
			"byteOffset":65960
		},
		{
			"buffer":0,
			"byteLength":24,
			"byteOffset":65992
		},
		{
			"buffer":0,
			"byteLength":24,
			"byteOffset":66016
		},
		{
			"buffer":0,
			"byteLength":64,
			"byteOffset":66040
		},
		{
			"buffer":0,
			"byteLength":24,
			"byteOffset":66104
		},
		{
			"buffer":0,
			"byteLength":24,
			"byteOffset":66128
		},
		{
			"buffer":0,
			"byteLength":64,
			"byteOffset":66152
		},
		{
			"buffer":0,
			"byteLength":24,
			"byteOffset":66216
		},
		{
			"buffer":0,
			"byteLength":24,
			"byteOffset":66240
		},
		{
			"buffer":0,
			"byteLength":64,
			"byteOffset":66264
		},
		{
			"buffer":0,
			"byteLength":24,
			"byteOffset":66328
		},
		{
			"buffer":0,
			"byteLength":24,
			"byteOffset":66352
		},
		{
			"buffer":0,
			"byteLength":32,
			"byteOffset":66376
		},
		{
			"buffer":0,
			"byteLength":24,
			"byteOffset":66408
		},
		{
			"buffer":0,
			"byteLength":24,
			"byteOffset":66432
		},
		{
			"buffer":0,
			"byteLength":64,
			"byteOffset":66456
		},
		{
			"buffer":0,
			"byteLength":24,
			"byteOffset":66520
		},
		{
			"buffer":0,
			"byteLength":24,
			"byteOffset":66544
		},
		{
			"buffer":0,
			"byteLength":64,
			"byteOffset":66568
		},
		{
			"buffer":0,
			"byteLength":24,
			"byteOffset":66632
		},
		{
			"buffer":0,
			"byteLength":24,
			"byteOffset":66656
		},
		{
			"buffer":0,
			"byteLength":64,
			"byteOffset":66680
		},
		{
			"buffer":0,
			"byteLength":24,
			"byteOffset":66744
		},
		{
			"buffer":0,
			"byteLength":24,
			"byteOffset":66768
		},
		{
			"buffer":0,
			"byteLength":64,
			"byteOffset":66792
		},
		{
			"buffer":0,
			"byteLength":24,
			"byteOffset":66856
		},
		{
			"buffer":0,
			"byteLength":24,
			"byteOffset":66880
		},
		{
			"buffer":0,
			"byteLength":64,
			"byteOffset":66904
		},
		{
			"buffer":0,
			"byteLength":24,
			"byteOffset":66968
		},
		{
			"buffer":0,
			"byteLength":24,
			"byteOffset":66992
		},
		{
			"buffer":0,
			"byteLength":64,
			"byteOffset":67016
		},
		{
			"buffer":0,
			"byteLength":8,
			"byteOffset":67080
		},
		{
			"buffer":0,
			"byteLength":76,
			"byteOffset":67088
		},
		{
			"buffer":0,
			"byteLength":228,
			"byteOffset":67164
		},
		{
			"buffer":0,
			"byteLength":304,
			"byteOffset":67392
		},
		{
			"buffer":0,
			"byteLength":24,
			"byteOffset":67696
		},
		{
			"buffer":0,
			"byteLength":228,
			"byteOffset":67720
		},
		{
			"buffer":0,
			"byteLength":304,
			"byteOffset":67948
		},
		{
			"buffer":0,
			"byteLength":228,
			"byteOffset":68252
		},
		{
			"buffer":0,
			"byteLength":24,
			"byteOffset":68480
		},
		{
			"buffer":0,
			"byteLength":24,
			"byteOffset":68504
		},
		{
			"buffer":0,
			"byteLength":304,
			"byteOffset":68528
		},
		{
			"buffer":0,
			"byteLength":24,
			"byteOffset":68832
		},
		{
			"buffer":0,
			"byteLength":32,
			"byteOffset":68856
		},
		{
			"buffer":0,
			"byteLength":24,
			"byteOffset":68888
		},
		{
			"buffer":0,
			"byteLength":32,
			"byteOffset":68912
		},
		{
			"buffer":0,
			"byteLength":24,
			"byteOffset":68944
		},
		{
			"buffer":0,
			"byteLength":304,
			"byteOffset":68968
		},
		{
			"buffer":0,
			"byteLength":24,
			"byteOffset":69272
		},
		{
			"buffer":0,
			"byteLength":24,
			"byteOffset":69296
		},
		{
			"buffer":0,
			"byteLength":304,
			"byteOffset":69320
		},
		{
			"buffer":0,
			"byteLength":24,
			"byteOffset":69624
		},
		{
			"buffer":0,
			"byteLength":32,
			"byteOffset":69648
		},
		{
			"buffer":0,
			"byteLength":24,
			"byteOffset":69680
		},
		{
			"buffer":0,
			"byteLength":24,
			"byteOffset":69704
		},
		{
			"buffer":0,
			"byteLength":32,
			"byteOffset":69728
		},
		{
			"buffer":0,
			"byteLength":24,
			"byteOffset":69760
		},
		{
			"buffer":0,
			"byteLength":304,
			"byteOffset":69784
		},
		{
			"buffer":0,
			"byteLength":24,
			"byteOffset":70088
		},
		{
			"buffer":0,
			"byteLength":24,
			"byteOffset":70112
		},
		{
			"buffer":0,
			"byteLength":304,
			"byteOffset":70136
		},
		{
			"buffer":0,
			"byteLength":24,
			"byteOffset":70440
		},
		{
			"buffer":0,
			"byteLength":32,
			"byteOffset":70464
		},
		{
			"buffer":0,
			"byteLength":24,
			"byteOffset":70496
		},
		{
			"buffer":0,
			"byteLength":24,
			"byteOffset":70520
		},
		{
			"buffer":0,
			"byteLength":304,
			"byteOffset":70544
		},
		{
			"buffer":0,
			"byteLength":24,
			"byteOffset":70848
		},
		{
			"buffer":0,
			"byteLength":24,
			"byteOffset":70872
		},
		{
			"buffer":0,
			"byteLength":304,
			"byteOffset":70896
		},
		{
			"buffer":0,
			"byteLength":24,
			"byteOffset":71200
		},
		{
			"buffer":0,
			"byteLength":24,
			"byteOffset":71224
		},
		{
			"buffer":0,
			"byteLength":304,
			"byteOffset":71248
		},
		{
			"buffer":0,
			"byteLength":24,
			"byteOffset":71552
		},
		{
			"buffer":0,
			"byteLength":24,
			"byteOffset":71576
		},
		{
			"buffer":0,
			"byteLength":304,
			"byteOffset":71600
		},
		{
			"buffer":0,
			"byteLength":24,
			"byteOffset":71904
		},
		{
			"buffer":0,
			"byteLength":24,
			"byteOffset":71928
		},
		{
			"buffer":0,
			"byteLength":304,
			"byteOffset":71952
		},
		{
			"buffer":0,
			"byteLength":24,
			"byteOffset":72256
		},
		{
			"buffer":0,
			"byteLength":24,
			"byteOffset":72280
		},
		{
			"buffer":0,
			"byteLength":304,
			"byteOffset":72304
		},
		{
			"buffer":0,
			"byteLength":24,
			"byteOffset":72608
		}
	],
	"samplers":[
		{
			"magFilter":9729,
			"minFilter":9987
		}
	],
	"buffers":[
		{
			"byteLength":72632,
			"uri":"Hero1.bin"
		}
	]
}
