{
	"asset":{
		"generator":"Khronos glTF Blender I/O v5.2.39",
		"version":"2.0"
	},
	"scene":0,
	"scenes":[
		{
			"name":"Scene",
			"nodes":[
				21
			]
		}
	],
	"nodes":[
		{
			"name":"IKPol.L",
			"rotation":[
				0,
				0.7071067690849304,
				0.7071067690849304,
				0
			],
			"translation":[
				0.10808034241199493,
				0.23542331159114838,
				0.40691059827804565
			]
		},
		{
			"name":"IKPol.R",
			"rotation":[
				0,
				0.7071067690849304,
				0.7071067690849304,
				0
			],
			"translation":[
				-0.10808034241199493,
				0.23542331159114838,
				0.40691059827804565
			]
		},
		{
			"name":"IKTarget.L",
			"rotation":[
				-0.7071067690849304,
				0,
				0,
				0.7071067690849304
			],
			"translation":[
				0.10753210633993149,
				0.03294571489095688,
				-2.095495110765455e-09
			]
		},
		{
			"name":"IKTarget.R",
			"rotation":[
				-0.7071067690849304,
				0,
				0,
				0.7071067690849304
			],
			"translation":[
				-0.10753210633993149,
				0.03294571489095688,
				-2.095495110765455e-09
			]
		},
		{
			"name":"Head",
			"rotation":[
				0.06701502203941345,
				7.110308977882618e-14,
				1.5977633438524208e-08,
				0.9977520108222961
			],
			"scale":[
				1,
				0.9999999403953552,
				1
			],
			"translation":[
				-4.440892098500626e-16,
				0.21840783953666687,
				1.862645149230957e-09
			]
		},
		{
			"name":"Hand.L",
			"rotation":[
				-0.04739033430814743,
				-1.1194166427141994e-10,
				-1.349431055785999e-08,
				0.9988764524459839
			],
			"scale":[
				1,
				0.9999998807907104,
				0.9999998807907104
			],
			"translation":[
				1.5237741735063537e-08,
				0.1886349469423294,
				-7.527174439303508e-10
			]
		},
		{
			"children":[
				5
			],
			"name":"LowerArm.L",
			"rotation":[
				0.0924995169043541,
				-0.00030175576102919877,
				-0.0032971189357340336,
				0.9957072138786316
			],
			"scale":[
				0.9999999403953552,
				1,
				1
			],
			"translation":[
				8.832103048916906e-09,
				0.19772116839885712,
				-7.012204150669277e-10
			]
		},
		{
			"children":[
				6
			],
			"name":"UpperArm.L",
			"rotation":[
				-0.020594950765371323,
				0.04325716197490692,
				-0.7034423351287842,
				0.7091358304023743
			],
			"translation":[
				0.18031513690948486,
				0.13455641269683838,
				0.0042793829925358295
			]
		},
		{
			"name":"Hand.R",
			"rotation":[
				-0.047390326857566833,
				1.0241980180625276e-10,
				1.3137848142719122e-08,
				0.9988764524459839
			],
			"scale":[
				1,
				0.9999998807907104,
				1
			],
			"translation":[
				-1.4834871997493337e-08,
				0.18863502144813538,
				1.8348056407546665e-09
			]
		},
		{
			"children":[
				8
			],
			"name":"LowerArm.R",
			"rotation":[
				0.09249947965145111,
				0.0003017537819687277,
				0.003297120099887252,
				0.9957072138786316
			],
			"scale":[
				1,
				0.9999999403953552,
				1
			],
			"translation":[
				-9.463292371947318e-09,
				0.19772116839885712,
				-2.253727870993316e-09
			]
		},
		{
			"children":[
				9
			],
			"name":"UpperArm.R",
			"rotation":[
				-0.020595120266079903,
				-0.04325732961297035,
				0.7034423351287842,
				0.7091358304023743
			],
			"scale":[
				0.9999999403953552,
				0.9999998807907104,
				1.0000001192092896
			],
			"translation":[
				-0.18031513690948486,
				0.13455641269683838,
				0.004279297310858965
			]
		},
		{
			"children":[
				4,
				7,
				10
			],
			"name":"Spine2",
			"rotation":[
				-0.01589566096663475,
				1.1919422604478314e-07,
				-1.8949104507726133e-09,
				0.9998736381530762
			],
			"translation":[
				0,
				0.18124490976333618,
				0
			]
		},
		{
			"children":[
				11
			],
			"name":"Spine1",
			"translation":[
				0,
				0.1336851418018341,
				0
			]
		},
		{
			"name":"Foot.L",
			"rotation":[
				0.6718462705612183,
				0.0037311369087547064,
				0.0040919166058301926,
				0.7406699657440186
			],
			"scale":[
				0.9999999403953552,
				0.9999998211860657,
				0.9999998807907104
			],
			"translation":[
				-5.534632752102198e-09,
				0.20523567497730255,
				5.826112925433335e-10
			]
		},
		{
			"children":[
				13
			],
			"name":"LowerLeg.L",
			"rotation":[
				-0.060376398265361786,
				0.0004959914367645979,
				-0.01958909071981907,
				0.9979833364486694
			],
			"scale":[
				0.9999999403953552,
				1,
				0.9999999403953552
			],
			"translation":[
				-5.014953785575926e-09,
				0.24204015731811523,
				-6.832578947069123e-10
			]
		},
		{
			"children":[
				14
			],
			"name":"UpperLeg.L",
			"rotation":[
				-0.00038539597881026566,
				-0.02771768905222416,
				-0.999516487121582,
				0.014083068817853928
			],
			"scale":[
				1.0000007152557373,
				0.9999998807907104,
				1.0000029802322388
			],
			"translation":[
				0.10298594832420349,
				0.016392379999160767,
				1.4416379201520613e-10
			]
		},
		{
			"name":"Foot.R",
			"rotation":[
				0.6813371777534485,
				-0.0037836406845599413,
				-0.004043544642627239,
				0.7319487929344177
			],
			"scale":[
				0.9999999403953552,
				0.9999997615814209,
				0.9999997615814209
			],
			"translation":[
				5.534632752102198e-09,
				0.20523567497730255,
				5.826112925433335e-10
			]
		},
		{
			"children":[
				16
			],
			"name":"LowerLeg.R",
			"rotation":[
				-0.060376398265361786,
				-0.0004959914367645979,
				0.01958909071981907,
				0.9979833364486694
			],
			"scale":[
				0.9999999403953552,
				1,
				0.9999999403953552
			],
			"translation":[
				5.014953785575926e-09,
				0.24204015731811523,
				-6.832578947069123e-10
			]
		},
		{
			"children":[
				17
			],
			"name":"UpperLeg.R",
			"rotation":[
				-0.00038539597881026566,
				0.02771768905222416,
				0.999516487121582,
				0.014083068817853928
			],
			"scale":[
				1.0000007152557373,
				0.9999998807907104,
				1.0000029802322388
			],
			"translation":[
				-0.10298594832420349,
				0.016392379999160767,
				1.4416379201520613e-10
			]
		},
		{
			"children":[
				12,
				15,
				18
			],
			"name":"Root",
			"translation":[
				0,
				0.4597531259059906,
				0
			]
		},
		{
			"mesh":0,
			"name":"Policeman",
			"skin":0
		},
		{
			"children":[
				20,
				0,
				1,
				2,
				3,
				19
			],
			"name":"Armature"
		}
	],
	"animations":[
		{
			"channels":[
				{
					"sampler":0,
					"target":{
						"node":0,
						"path":"translation"
					}
				},
				{
					"sampler":1,
					"target":{
						"node":0,
						"path":"rotation"
					}
				},
				{
					"sampler":2,
					"target":{
						"node":0,
						"path":"scale"
					}
				},
				{
					"sampler":3,
					"target":{
						"node":1,
						"path":"translation"
					}
				},
				{
					"sampler":4,
					"target":{
						"node":1,
						"path":"rotation"
					}
				},
				{
					"sampler":5,
					"target":{
						"node":1,
						"path":"scale"
					}
				},
				{
					"sampler":6,
					"target":{
						"node":2,
						"path":"translation"
					}
				},
				{
					"sampler":7,
					"target":{
						"node":2,
						"path":"rotation"
					}
				},
				{
					"sampler":8,
					"target":{
						"node":2,
						"path":"scale"
					}
				},
				{
					"sampler":9,
					"target":{
						"node":3,
						"path":"translation"
					}
				},
				{
					"sampler":10,
					"target":{
						"node":3,
						"path":"rotation"
					}
				},
				{
					"sampler":11,
					"target":{
						"node":3,
						"path":"scale"
					}
				},
				{
					"sampler":12,
					"target":{
						"node":19,
						"path":"translation"
					}
				},
				{
					"sampler":13,
					"target":{
						"node":19,
						"path":"rotation"
					}
				},
				{
					"sampler":14,
					"target":{
						"node":19,
						"path":"scale"
					}
				},
				{
					"sampler":15,
					"target":{
						"node":12,
						"path":"translation"
					}
				},
				{
					"sampler":16,
					"target":{
						"node":12,
						"path":"rotation"
					}
				},
				{
					"sampler":17,
					"target":{
						"node":12,
						"path":"scale"
					}
				},
				{
					"sampler":18,
					"target":{
						"node":11,
						"path":"translation"
					}
				},
				{
					"sampler":19,
					"target":{
						"node":11,
						"path":"rotation"
					}
				},
				{
					"sampler":20,
					"target":{
						"node":11,
						"path":"scale"
					}
				},
				{
					"sampler":21,
					"target":{
						"node":4,
						"path":"translation"
					}
				},
				{
					"sampler":22,
					"target":{
						"node":4,
						"path":"rotation"
					}
				},
				{
					"sampler":23,
					"target":{
						"node":4,
						"path":"scale"
					}
				},
				{
					"sampler":24,
					"target":{
						"node":7,
						"path":"translation"
					}
				},
				{
					"sampler":25,
					"target":{
						"node":7,
						"path":"rotation"
					}
				},
				{
					"sampler":26,
					"target":{
						"node":7,
						"path":"scale"
					}
				},
				{
					"sampler":27,
					"target":{
						"node":6,
						"path":"translation"
					}
				},
				{
					"sampler":28,
					"target":{
						"node":6,
						"path":"rotation"
					}
				},
				{
					"sampler":29,
					"target":{
						"node":6,
						"path":"scale"
					}
				},
				{
					"sampler":30,
					"target":{
						"node":5,
						"path":"translation"
					}
				},
				{
					"sampler":31,
					"target":{
						"node":5,
						"path":"rotation"
					}
				},
				{
					"sampler":32,
					"target":{
						"node":5,
						"path":"scale"
					}
				},
				{
					"sampler":33,
					"target":{
						"node":10,
						"path":"translation"
					}
				},
				{
					"sampler":34,
					"target":{
						"node":10,
						"path":"rotation"
					}
				},
				{
					"sampler":35,
					"target":{
						"node":10,
						"path":"scale"
					}
				},
				{
					"sampler":36,
					"target":{
						"node":9,
						"path":"translation"
					}
				},
				{
					"sampler":37,
					"target":{
						"node":9,
						"path":"rotation"
					}
				},
				{
					"sampler":38,
					"target":{
						"node":9,
						"path":"scale"
					}
				},
				{
					"sampler":39,
					"target":{
						"node":8,
						"path":"translation"
					}
				},
				{
					"sampler":40,
					"target":{
						"node":8,
						"path":"rotation"
					}
				},
				{
					"sampler":41,
					"target":{
						"node":8,
						"path":"scale"
					}
				},
				{
					"sampler":42,
					"target":{
						"node":15,
						"path":"translation"
					}
				},
				{
					"sampler":43,
					"target":{
						"node":15,
						"path":"rotation"
					}
				},
				{
					"sampler":44,
					"target":{
						"node":15,
						"path":"scale"
					}
				},
				{
					"sampler":45,
					"target":{
						"node":14,
						"path":"translation"
					}
				},
				{
					"sampler":46,
					"target":{
						"node":14,
						"path":"rotation"
					}
				},
				{
					"sampler":47,
					"target":{
						"node":14,
						"path":"scale"
					}
				},
				{
					"sampler":48,
					"target":{
						"node":13,
						"path":"translation"
					}
				},
				{
					"sampler":49,
					"target":{
						"node":13,
						"path":"rotation"
					}
				},
				{
					"sampler":50,
					"target":{
						"node":13,
						"path":"scale"
					}
				},
				{
					"sampler":51,
					"target":{
						"node":18,
						"path":"translation"
					}
				},
				{
					"sampler":52,
					"target":{
						"node":18,
						"path":"rotation"
					}
				},
				{
					"sampler":53,
					"target":{
						"node":18,
						"path":"scale"
					}
				},
				{
					"sampler":54,
					"target":{
						"node":17,
						"path":"translation"
					}
				},
				{
					"sampler":55,
					"target":{
						"node":17,
						"path":"rotation"
					}
				},
				{
					"sampler":56,
					"target":{
						"node":17,
						"path":"scale"
					}
				},
				{
					"sampler":57,
					"target":{
						"node":16,
						"path":"translation"
					}
				},
				{
					"sampler":58,
					"target":{
						"node":16,
						"path":"rotation"
					}
				},
				{
					"sampler":59,
					"target":{
						"node":16,
						"path":"scale"
					}
				}
			],
			"name":"Idle",
			"samplers":[
				{
					"input":7,
					"interpolation":"LINEAR",
					"output":8
				},
				{
					"input":7,
					"interpolation":"LINEAR",
					"output":9
				},
				{
					"input":7,
					"interpolation":"LINEAR",
					"output":10
				},
				{
					"input":7,
					"interpolation":"LINEAR",
					"output":11
				},
				{
					"input":7,
					"interpolation":"LINEAR",
					"output":9
				},
				{
					"input":7,
					"interpolation":"LINEAR",
					"output":10
				},
				{
					"input":7,
					"interpolation":"LINEAR",
					"output":12
				},
				{
					"input":7,
					"interpolation":"LINEAR",
					"output":13
				},
				{
					"input":7,
					"interpolation":"LINEAR",
					"output":10
				},
				{
					"input":7,
					"interpolation":"LINEAR",
					"output":14
				},
				{
					"input":7,
					"interpolation":"LINEAR",
					"output":13
				},
				{
					"input":7,
					"interpolation":"LINEAR",
					"output":10
				},
				{
					"input":7,
					"interpolation":"LINEAR",
					"output":15
				},
				{
					"input":7,
					"interpolation":"LINEAR",
					"output":16
				},
				{
					"input":7,
					"interpolation":"LINEAR",
					"output":10
				},
				{
					"input":7,
					"interpolation":"LINEAR",
					"output":17
				},
				{
					"input":7,
					"interpolation":"LINEAR",
					"output":16
				},
				{
					"input":7,
					"interpolation":"LINEAR",
					"output":10
				},
				{
					"input":7,
					"interpolation":"LINEAR",
					"output":18
				},
				{
					"input":7,
					"interpolation":"LINEAR",
					"output":19
				},
				{
					"input":7,
					"interpolation":"LINEAR",
					"output":10
				},
				{
					"input":7,
					"interpolation":"LINEAR",
					"output":20
				},
				{
					"input":7,
					"interpolation":"LINEAR",
					"output":21
				},
				{
					"input":7,
					"interpolation":"LINEAR",
					"output":22
				},
				{
					"input":7,
					"interpolation":"LINEAR",
					"output":23
				},
				{
					"input":7,
					"interpolation":"LINEAR",
					"output":24
				},
				{
					"input":7,
					"interpolation":"LINEAR",
					"output":25
				},
				{
					"input":7,
					"interpolation":"LINEAR",
					"output":26
				},
				{
					"input":7,
					"interpolation":"LINEAR",
					"output":27
				},
				{
					"input":7,
					"interpolation":"LINEAR",
					"output":28
				},
				{
					"input":7,
					"interpolation":"LINEAR",
					"output":29
				},
				{
					"input":7,
					"interpolation":"LINEAR",
					"output":30
				},
				{
					"input":7,
					"interpolation":"LINEAR",
					"output":10
				},
				{
					"input":7,
					"interpolation":"LINEAR",
					"output":31
				},
				{
					"input":7,
					"interpolation":"LINEAR",
					"output":32
				},
				{
					"input":7,
					"interpolation":"LINEAR",
					"output":33
				},
				{
					"input":7,
					"interpolation":"LINEAR",
					"output":34
				},
				{
					"input":7,
					"interpolation":"LINEAR",
					"output":35
				},
				{
					"input":7,
					"interpolation":"LINEAR",
					"output":36
				},
				{
					"input":7,
					"interpolation":"LINEAR",
					"output":37
				},
				{
					"input":7,
					"interpolation":"LINEAR",
					"output":38
				},
				{
					"input":7,
					"interpolation":"LINEAR",
					"output":39
				},
				{
					"input":7,
					"interpolation":"LINEAR",
					"output":40
				},
				{
					"input":7,
					"interpolation":"LINEAR",
					"output":41
				},
				{
					"input":7,
					"interpolation":"LINEAR",
					"output":42
				},
				{
					"input":7,
					"interpolation":"LINEAR",
					"output":43
				},
				{
					"input":7,
					"interpolation":"LINEAR",
					"output":44
				},
				{
					"input":7,
					"interpolation":"LINEAR",
					"output":45
				},
				{
					"input":7,
					"interpolation":"LINEAR",
					"output":46
				},
				{
					"input":7,
					"interpolation":"LINEAR",
					"output":47
				},
				{
					"input":7,
					"interpolation":"LINEAR",
					"output":48
				},
				{
					"input":7,
					"interpolation":"LINEAR",
					"output":49
				},
				{
					"input":7,
					"interpolation":"LINEAR",
					"output":50
				},
				{
					"input":7,
					"interpolation":"LINEAR",
					"output":42
				},
				{
					"input":7,
					"interpolation":"LINEAR",
					"output":51
				},
				{
					"input":7,
					"interpolation":"LINEAR",
					"output":52
				},
				{
					"input":7,
					"interpolation":"LINEAR",
					"output":45
				},
				{
					"input":7,
					"interpolation":"LINEAR",
					"output":53
				},
				{
					"input":7,
					"interpolation":"LINEAR",
					"output":54
				},
				{
					"input":7,
					"interpolation":"LINEAR",
					"output":55
				}
			]
		}
	],
	"materials":[
		{
			"doubleSided":true,
			"name":"Common",
			"pbrMetallicRoughness":{
				"baseColorTexture":{
					"index":0
				},
				"metallicFactor":0,
				"roughnessFactor":0.5
			}
		}
	],
	"meshes":[
		{
			"name":"Cube",
			"primitives":[
				{
					"attributes":{
						"POSITION":0,
						"NORMAL":1,
						"TEXCOORD_0":2,
						"JOINTS_0":3,
						"WEIGHTS_0":4
					},
					"indices":5,
					"material":0
				}
			]
		}
	],
	"textures":[
		{
			"sampler":0,
			"source":0
		}
	],
	"images":[
		{
			"mimeType":"image/png",
			"name":"Common.png",
			"uri":"textures/Common.png"
		}
	],
	"skins":[
		{
			"inverseBindMatrices":6,
			"joints":[
				0,
				1,
				2,
				3,
				19,
				12,
				11,
				4,
				7,
				6,
				5,
				10,
				9,
				8,
				15,
				14,
				13,
				18,
				17,
				16
			],
			"name":"Armature"
		}
	],
	"accessors":[
		{
			"bufferView":0,
			"componentType":5126,
			"count":996,
			"max":[
				0.6646462678909302,
				1.6746490001678467,
				0.4128113090991974
			],
			"min":[
				-0.6646462678909302,
				-1.5188008546829224e-05,
				-0.20775514841079712
			],
			"type":"VEC3"
		},
		{
			"bufferView":1,
			"componentType":5126,
			"count":996,
			"type":"VEC3"
		},
		{
			"bufferView":2,
			"componentType":5126,
			"count":996,
			"type":"VEC2"
		},
		{
			"bufferView":3,
			"componentType":5121,
			"count":996,
			"type":"VEC4"
		},
		{
			"bufferView":4,
			"componentType":5126,
			"count":996,
			"type":"VEC4"
		},
		{
			"bufferView":5,
			"componentType":5123,
			"count":1656,
			"type":"SCALAR"
		},
		{
			"bufferView":6,
			"componentType":5126,
			"count":20,
			"type":"MAT4"
		},
		{
			"bufferView":7,
			"componentType":5126,
			"count":1,
			"max":[
				0.041666666666666664
			],
			"min":[
				0.041666666666666664
			],
			"type":"SCALAR"
		},
		{
			"bufferView":8,
			"componentType":5126,
			"count":1,
			"type":"VEC3"
		},
		{
			"bufferView":9,
			"componentType":5126,
			"count":1,
			"type":"VEC4"
		},
		{
			"bufferView":10,
			"componentType":5126,
			"count":1,
			"type":"VEC3"
		},
		{
			"bufferView":11,
			"componentType":5126,
			"count":1,
			"type":"VEC3"
		},
		{
			"bufferView":12,
			"componentType":5126,
			"count":1,
			"type":"VEC3"
		},
		{
			"bufferView":13,
			"componentType":5126,
			"count":1,
			"type":"VEC4"
		},
		{
			"bufferView":14,
			"componentType":5126,
			"count":1,
			"type":"VEC3"
		},
		{
			"bufferView":15,
			"componentType":5126,
			"count":1,
			"type":"VEC3"
		},
		{
			"bufferView":16,
			"componentType":5126,
			"count":1,
			"type":"VEC4"
		},
		{
			"bufferView":17,
			"componentType":5126,
			"count":1,
			"type":"VEC3"
		},
		{
			"bufferView":18,
			"componentType":5126,
			"count":1,
			"type":"VEC3"
		},
		{
			"bufferView":19,
			"componentType":5126,
			"count":1,
			"type":"VEC4"
		},
		{
			"bufferView":20,
			"componentType":5126,
			"count":1,
			"type":"VEC3"
		},
		{
			"bufferView":21,
			"componentType":5126,
			"count":1,
			"type":"VEC4"
		},
		{
			"bufferView":22,
			"componentType":5126,
			"count":1,
			"type":"VEC3"
		},
		{
			"bufferView":23,
			"componentType":5126,
			"count":1,
			"type":"VEC3"
		},
		{
			"bufferView":24,
			"componentType":5126,
			"count":1,
			"type":"VEC4"
		},
		{
			"bufferView":25,
			"componentType":5126,
			"count":1,
			"type":"VEC3"
		},
		{
			"bufferView":26,
			"componentType":5126,
			"count":1,
			"type":"VEC3"
		},
		{
			"bufferView":27,
			"componentType":5126,
			"count":1,
			"type":"VEC4"
		},
		{
			"bufferView":28,
			"componentType":5126,
			"count":1,
			"type":"VEC3"
		},
		{
			"bufferView":29,
			"componentType":5126,
			"count":1,
			"type":"VEC3"
		},
		{
			"bufferView":30,
			"componentType":5126,
			"count":1,
			"type":"VEC4"
		},
		{
			"bufferView":31,
			"componentType":5126,
			"count":1,
			"type":"VEC3"
		},
		{
			"bufferView":32,
			"componentType":5126,
			"count":1,
			"type":"VEC4"
		},
		{
			"bufferView":33,
			"componentType":5126,
			"count":1,
			"type":"VEC3"
		},
		{
			"bufferView":34,
			"componentType":5126,
			"count":1,
			"type":"VEC3"
		},
		{
			"bufferView":35,
			"componentType":5126,
			"count":1,
			"type":"VEC4"
		},
		{
			"bufferView":36,
			"componentType":5126,
			"count":1,
			"type":"VEC3"
		},
		{
			"bufferView":37,
			"componentType":5126,
			"count":1,
			"type":"VEC3"
		},
		{
			"bufferView":38,
			"componentType":5126,
			"count":1,
			"type":"VEC4"
		},
		{
			"bufferView":39,
			"componentType":5126,
			"count":1,
			"type":"VEC3"
		},
		{
			"bufferView":40,
			"componentType":5126,
			"count":1,
			"type":"VEC3"
		},
		{
			"bufferView":41,
			"componentType":5126,
			"count":1,
			"type":"VEC4"
		},
		{
			"bufferView":42,
			"componentType":5126,
			"count":1,
			"type":"VEC3"
		},
		{
			"bufferView":43,
			"componentType":5126,
			"count":1,
			"type":"VEC3"
		},
		{
			"bufferView":44,
			"componentType":5126,
			"count":1,
			"type":"VEC4"
		},
		{
			"bufferView":45,
			"componentType":5126,
			"count":1,
			"type":"VEC3"
		},
		{
			"bufferView":46,
			"componentType":5126,
			"count":1,
			"type":"VEC3"
		},
		{
			"bufferView":47,
			"componentType":5126,
			"count":1,
			"type":"VEC4"
		},
		{
			"bufferView":48,
			"componentType":5126,
			"count":1,
			"type":"VEC3"
		},
		{
			"bufferView":49,
			"componentType":5126,
			"count":1,
			"type":"VEC3"
		},
		{
			"bufferView":50,
			"componentType":5126,
			"count":1,
			"type":"VEC4"
		},
		{
			"bufferView":51,
			"componentType":5126,
			"count":1,
			"type":"VEC3"
		},
		{
			"bufferView":52,
			"componentType":5126,
			"count":1,
			"type":"VEC4"
		},
		{
			"bufferView":53,
			"componentType":5126,
			"count":1,
			"type":"VEC3"
		},
		{
			"bufferView":54,
			"componentType":5126,
			"count":1,
			"type":"VEC4"
		},
		{
			"bufferView":55,
			"componentType":5126,
			"count":1,
			"type":"VEC3"
		}
	],
	"bufferViews":[
		{
			"buffer":0,
			"byteLength":11952,
			"byteOffset":0,
			"target":34962
		},
		{
			"buffer":0,
			"byteLength":11952,
			"byteOffset":11952,
			"target":34962
		},
		{
			"buffer":0,
			"byteLength":7968,
			"byteOffset":23904,
			"target":34962
		},
		{
			"buffer":0,
			"byteLength":3984,
			"byteOffset":31872,
			"target":34962
		},
		{
			"buffer":0,
			"byteLength":15936,
			"byteOffset":35856,
			"target":34962
		},
		{
			"buffer":0,
			"byteLength":3312,
			"byteOffset":51792,
			"target":34963
		},
		{
			"buffer":0,
			"byteLength":1280,
			"byteOffset":55104
		},
		{
			"buffer":0,
			"byteLength":4,
			"byteOffset":56384
		},
		{
			"buffer":0,
			"byteLength":12,
			"byteOffset":56388
		},
		{
			"buffer":0,
			"byteLength":16,
			"byteOffset":56400
		},
		{
			"buffer":0,
			"byteLength":12,
			"byteOffset":56416
		},
		{
			"buffer":0,
			"byteLength":12,
			"byteOffset":56428
		},
		{
			"buffer":0,
			"byteLength":12,
			"byteOffset":56440
		},
		{
			"buffer":0,
			"byteLength":16,
			"byteOffset":56452
		},
		{
			"buffer":0,
			"byteLength":12,
			"byteOffset":56468
		},
		{
			"buffer":0,
			"byteLength":12,
			"byteOffset":56480
		},
		{
			"buffer":0,
			"byteLength":16,
			"byteOffset":56492
		},
		{
			"buffer":0,
			"byteLength":12,
			"byteOffset":56508
		},
		{
			"buffer":0,
			"byteLength":12,
			"byteOffset":56520
		},
		{
			"buffer":0,
			"byteLength":16,
			"byteOffset":56532
		},
		{
			"buffer":0,
			"byteLength":12,
			"byteOffset":56548
		},
		{
			"buffer":0,
			"byteLength":16,
			"byteOffset":56560
		},
		{
			"buffer":0,
			"byteLength":12,
			"byteOffset":56576
		},
		{
			"buffer":0,
			"byteLength":12,
			"byteOffset":56588
		},
		{
			"buffer":0,
			"byteLength":16,
			"byteOffset":56600
		},
		{
			"buffer":0,
			"byteLength":12,
			"byteOffset":56616
		},
		{
			"buffer":0,
			"byteLength":12,
			"byteOffset":56628
		},
		{
			"buffer":0,
			"byteLength":16,
			"byteOffset":56640
		},
		{
			"buffer":0,
			"byteLength":12,
			"byteOffset":56656
		},
		{
			"buffer":0,
			"byteLength":12,
			"byteOffset":56668
		},
		{
			"buffer":0,
			"byteLength":16,
			"byteOffset":56680
		},
		{
			"buffer":0,
			"byteLength":12,
			"byteOffset":56696
		},
		{
			"buffer":0,
			"byteLength":16,
			"byteOffset":56708
		},
		{
			"buffer":0,
			"byteLength":12,
			"byteOffset":56724
		},
		{
			"buffer":0,
			"byteLength":12,
			"byteOffset":56736
		},
		{
			"buffer":0,
			"byteLength":16,
			"byteOffset":56748
		},
		{
			"buffer":0,
			"byteLength":12,
			"byteOffset":56764
		},
		{
			"buffer":0,
			"byteLength":12,
			"byteOffset":56776
		},
		{
			"buffer":0,
			"byteLength":16,
			"byteOffset":56788
		},
		{
			"buffer":0,
			"byteLength":12,
			"byteOffset":56804
		},
		{
			"buffer":0,
			"byteLength":12,
			"byteOffset":56816
		},
		{
			"buffer":0,
			"byteLength":16,
			"byteOffset":56828
		},
		{
			"buffer":0,
			"byteLength":12,
			"byteOffset":56844
		},
		{
			"buffer":0,
			"byteLength":12,
			"byteOffset":56856
		},
		{
			"buffer":0,
			"byteLength":16,
			"byteOffset":56868
		},
		{
			"buffer":0,
			"byteLength":12,
			"byteOffset":56884
		},
		{
			"buffer":0,
			"byteLength":12,
			"byteOffset":56896
		},
		{
			"buffer":0,
			"byteLength":16,
			"byteOffset":56908
		},
		{
			"buffer":0,
			"byteLength":12,
			"byteOffset":56924
		},
		{
			"buffer":0,
			"byteLength":12,
			"byteOffset":56936
		},
		{
			"buffer":0,
			"byteLength":16,
			"byteOffset":56948
		},
		{
			"buffer":0,
			"byteLength":12,
			"byteOffset":56964
		},
		{
			"buffer":0,
			"byteLength":16,
			"byteOffset":56976
		},
		{
			"buffer":0,
			"byteLength":12,
			"byteOffset":56992
		},
		{
			"buffer":0,
			"byteLength":16,
			"byteOffset":57004
		},
		{
			"buffer":0,
			"byteLength":12,
			"byteOffset":57020
		}
	],
	"samplers":[
		{
			"magFilter":9729,
			"minFilter":9987
		}
	],
	"buffers":[
		{
			"byteLength":57032,
			"uri":"Policeman.bin"
		}
	]
}
