{
	"asset":{
		"generator":"Khronos glTF Blender I/O v5.2.39",
		"version":"2.0"
	},
	"scene":0,
	"scenes":[
		{
			"name":"Scene",
			"nodes":[
				23
			]
		}
	],
	"nodes":[
		{
			"name":"IKpole.L",
			"rotation":[
				0.6989340782165527,
				2.4725402454350842e-06,
				2.416353254375281e-06,
				0.7151861786842346
			],
			"translation":[
				0.16069836914539337,
				0.4526914656162262,
				0.9920584559440613
			]
		},
		{
			"name":"IKpole.R",
			"rotation":[
				0.6989340782165527,
				-2.4725402454350842e-06,
				-2.416353254375281e-06,
				0.7151861786842346
			],
			"translation":[
				-0.16069836914539337,
				0.4526914656162262,
				0.9920584559440613
			]
		},
		{
			"name":"IKTarget.L",
			"rotation":[
				-0.7071067690849304,
				0,
				0,
				0.7071067690849304
			],
			"translation":[
				0.16069836914539337,
				0.03891152888536453,
				-0.01028988603502512
			]
		},
		{
			"name":"IKTarget.R",
			"rotation":[
				-0.7071067690849304,
				0,
				0,
				0.7071067690849304
			],
			"translation":[
				-0.16069836914539337,
				0.03891152888536453,
				-0.01028988603502512
			]
		},
		{
			"name":"Head",
			"translation":[
				0,
				0.15953785181045532,
				0
			]
		},
		{
			"name":"Hand.L",
			"rotation":[
				-0.03832351043820381,
				-0.0008874493651092052,
				-0.014816627837717533,
				0.9991551637649536
			],
			"scale":[
				1.0000001192092896,
				1,
				1.0000001192092896
			],
			"translation":[
				-3.211874144426474e-08,
				0.32680201530456543,
				4.012861154478742e-09
			]
		},
		{
			"children":[
				5
			],
			"name":"LowerArm.L",
			"rotation":[
				0.08110495656728745,
				-0.0013639562530443072,
				0.0014243674231693149,
				0.9967036247253418
			],
			"translation":[
				-6.271875463426113e-09,
				0.29245686531066895,
				6.984919309616089e-10
			]
		},
		{
			"children":[
				6
			],
			"name":"UpperArm.L",
			"rotation":[
				-0.04259510710835457,
				-0.0048903366550803185,
				0.15271031856536865,
				0.98734050989151
			],
			"scale":[
				1,
				1,
				0.9999999403953552
			],
			"translation":[
				5.215407838932151e-08,
				0.24725249409675598,
				3.552713678800501e-15
			]
		},
		{
			"children":[
				7
			],
			"name":"Shoulder.L",
			"rotation":[
				2.541638934872026e-07,
				2.3198852261430147e-07,
				-0.8068723678588867,
				0.590725839138031
			],
			"translation":[
				0,
				0.15953785181045532,
				0
			]
		},
		{
			"name":"Hand.R",
			"rotation":[
				-0.03832351043820381,
				0.0008874493651092052,
				0.014816627837717533,
				0.9991551637649536
			],
			"scale":[
				1.0000001192092896,
				1,
				1.0000001192092896
			],
			"translation":[
				3.211874144426474e-08,
				0.32680201530456543,
				4.012861154478742e-09
			]
		},
		{
			"children":[
				9
			],
			"name":"LowerArm.R",
			"rotation":[
				0.08110495656728745,
				0.0013639562530443072,
				-0.0014243674231693149,
				0.9967036247253418
			],
			"translation":[
				6.271875463426113e-09,
				0.29245686531066895,
				6.984919309616089e-10
			]
		},
		{
			"children":[
				10
			],
			"name":"UpperArm.R",
			"rotation":[
				-0.04259510710835457,
				0.0048903366550803185,
				-0.15271031856536865,
				0.98734050989151
			],
			"scale":[
				1,
				1,
				0.9999999403953552
			],
			"translation":[
				-5.215407838932151e-08,
				0.24725249409675598,
				3.552713678800501e-15
			]
		},
		{
			"children":[
				11
			],
			"name":"Shoulder.R",
			"rotation":[
				2.541638934872026e-07,
				-2.3198852261430147e-07,
				0.8068723678588867,
				0.590725839138031
			],
			"translation":[
				0,
				0.15953785181045532,
				0
			]
		},
		{
			"children":[
				4,
				8,
				12
			],
			"name":"Spine3",
			"rotation":[
				0,
				-5.96046660916727e-08,
				0,
				1
			],
			"translation":[
				0,
				0.12945806980133057,
				0
			]
		},
		{
			"children":[
				13
			],
			"name":"Spine2",
			"rotation":[
				0,
				5.96046660916727e-08,
				0,
				1
			],
			"translation":[
				0,
				0.22246938943862915,
				0
			]
		},
		{
			"name":"Foot.L",
			"rotation":[
				0.7206572890281677,
				-9.918029491018387e-07,
				-1.13975249860232e-06,
				0.6932914853096008
			],
			"translation":[
				-2.398274689952018e-09,
				0.25724589824676514,
				5.418243631538644e-11
			]
		},
		{
			"children":[
				15
			],
			"name":"LowerLeg.L",
			"rotation":[
				-0.12147409468889236,
				-6.231844622561766e-07,
				-5.792612256527718e-08,
				0.9925945997238159
			],
			"scale":[
				1,
				0.9999999403953552,
				0.9999999403953552
			],
			"translation":[
				-1.6646961142896544e-08,
				0.2852136492729187,
				-5.635740762954811e-10
			]
		},
		{
			"children":[
				16
			],
			"name":"UpperLeg.L",
			"rotation":[
				5.516941428140854e-07,
				-0.0481601320207119,
				-0.9988396167755127,
				2.6600242009067188e-08
			],
			"scale":[
				1,
				0.9999998211860657,
				1.0000213384628296
			],
			"translation":[
				0.16069836914539337,
				0.06104385852813721,
				-3.901003076123288e-09
			]
		},
		{
			"name":"Foot.R",
			"rotation":[
				0.7206572890281677,
				-1.0964753300868324e-06,
				-1.0309554454579484e-06,
				0.6932914853096008
			],
			"translation":[
				2.398274689952018e-09,
				0.25724589824676514,
				5.418243631538644e-11
			]
		},
		{
			"children":[
				18
			],
			"name":"LowerLeg.R",
			"rotation":[
				-0.12147409468889236,
				6.231844622561766e-07,
				5.792612256527718e-08,
				0.9925945997238159
			],
			"scale":[
				1,
				0.9999999403953552,
				0.9999999403953552
			],
			"translation":[
				1.6646961142896544e-08,
				0.2852136492729187,
				-5.635740762954811e-10
			]
		},
		{
			"children":[
				19
			],
			"name":"UpperLeg.R",
			"rotation":[
				5.516941428140854e-07,
				0.0481601320207119,
				0.9988396167755127,
				2.6600242009067188e-08
			],
			"scale":[
				1,
				0.9999998211860657,
				1.0000213384628296
			],
			"translation":[
				-0.16069836914539337,
				0.06104385852813721,
				-3.901003076123288e-09
			]
		},
		{
			"children":[
				14,
				17,
				20
			],
			"name":"Spine1",
			"translation":[
				0,
				0.5162227153778076,
				0
			]
		},
		{
			"mesh":0,
			"name":"Shopeman",
			"skin":0
		},
		{
			"children":[
				22,
				0,
				1,
				2,
				3,
				21
			],
			"name":"ShopemanArmature"
		}
	],
	"animations":[
		{
			"channels":[
				{
					"sampler":0,
					"target":{
						"node":0,
						"path":"translation"
					}
				},
				{
					"sampler":1,
					"target":{
						"node":0,
						"path":"rotation"
					}
				},
				{
					"sampler":2,
					"target":{
						"node":0,
						"path":"scale"
					}
				},
				{
					"sampler":3,
					"target":{
						"node":1,
						"path":"translation"
					}
				},
				{
					"sampler":4,
					"target":{
						"node":1,
						"path":"rotation"
					}
				},
				{
					"sampler":5,
					"target":{
						"node":1,
						"path":"scale"
					}
				},
				{
					"sampler":6,
					"target":{
						"node":2,
						"path":"translation"
					}
				},
				{
					"sampler":7,
					"target":{
						"node":2,
						"path":"rotation"
					}
				},
				{
					"sampler":8,
					"target":{
						"node":2,
						"path":"scale"
					}
				},
				{
					"sampler":9,
					"target":{
						"node":3,
						"path":"translation"
					}
				},
				{
					"sampler":10,
					"target":{
						"node":3,
						"path":"rotation"
					}
				},
				{
					"sampler":11,
					"target":{
						"node":3,
						"path":"scale"
					}
				},
				{
					"sampler":12,
					"target":{
						"node":21,
						"path":"translation"
					}
				},
				{
					"sampler":13,
					"target":{
						"node":21,
						"path":"rotation"
					}
				},
				{
					"sampler":14,
					"target":{
						"node":21,
						"path":"scale"
					}
				},
				{
					"sampler":15,
					"target":{
						"node":14,
						"path":"translation"
					}
				},
				{
					"sampler":16,
					"target":{
						"node":14,
						"path":"rotation"
					}
				},
				{
					"sampler":17,
					"target":{
						"node":14,
						"path":"scale"
					}
				},
				{
					"sampler":18,
					"target":{
						"node":13,
						"path":"translation"
					}
				},
				{
					"sampler":19,
					"target":{
						"node":13,
						"path":"rotation"
					}
				},
				{
					"sampler":20,
					"target":{
						"node":13,
						"path":"scale"
					}
				},
				{
					"sampler":21,
					"target":{
						"node":4,
						"path":"translation"
					}
				},
				{
					"sampler":22,
					"target":{
						"node":4,
						"path":"rotation"
					}
				},
				{
					"sampler":23,
					"target":{
						"node":4,
						"path":"scale"
					}
				},
				{
					"sampler":24,
					"target":{
						"node":8,
						"path":"translation"
					}
				},
				{
					"sampler":25,
					"target":{
						"node":8,
						"path":"rotation"
					}
				},
				{
					"sampler":26,
					"target":{
						"node":8,
						"path":"scale"
					}
				},
				{
					"sampler":27,
					"target":{
						"node":7,
						"path":"translation"
					}
				},
				{
					"sampler":28,
					"target":{
						"node":7,
						"path":"rotation"
					}
				},
				{
					"sampler":29,
					"target":{
						"node":7,
						"path":"scale"
					}
				},
				{
					"sampler":30,
					"target":{
						"node":6,
						"path":"translation"
					}
				},
				{
					"sampler":31,
					"target":{
						"node":6,
						"path":"rotation"
					}
				},
				{
					"sampler":32,
					"target":{
						"node":6,
						"path":"scale"
					}
				},
				{
					"sampler":33,
					"target":{
						"node":5,
						"path":"translation"
					}
				},
				{
					"sampler":34,
					"target":{
						"node":5,
						"path":"rotation"
					}
				},
				{
					"sampler":35,
					"target":{
						"node":5,
						"path":"scale"
					}
				},
				{
					"sampler":36,
					"target":{
						"node":12,
						"path":"translation"
					}
				},
				{
					"sampler":37,
					"target":{
						"node":12,
						"path":"rotation"
					}
				},
				{
					"sampler":38,
					"target":{
						"node":12,
						"path":"scale"
					}
				},
				{
					"sampler":39,
					"target":{
						"node":11,
						"path":"translation"
					}
				},
				{
					"sampler":40,
					"target":{
						"node":11,
						"path":"rotation"
					}
				},
				{
					"sampler":41,
					"target":{
						"node":11,
						"path":"scale"
					}
				},
				{
					"sampler":42,
					"target":{
						"node":10,
						"path":"translation"
					}
				},
				{
					"sampler":43,
					"target":{
						"node":10,
						"path":"rotation"
					}
				},
				{
					"sampler":44,
					"target":{
						"node":10,
						"path":"scale"
					}
				},
				{
					"sampler":45,
					"target":{
						"node":9,
						"path":"translation"
					}
				},
				{
					"sampler":46,
					"target":{
						"node":9,
						"path":"rotation"
					}
				},
				{
					"sampler":47,
					"target":{
						"node":9,
						"path":"scale"
					}
				},
				{
					"sampler":48,
					"target":{
						"node":17,
						"path":"translation"
					}
				},
				{
					"sampler":49,
					"target":{
						"node":17,
						"path":"rotation"
					}
				},
				{
					"sampler":50,
					"target":{
						"node":17,
						"path":"scale"
					}
				},
				{
					"sampler":51,
					"target":{
						"node":16,
						"path":"translation"
					}
				},
				{
					"sampler":52,
					"target":{
						"node":16,
						"path":"rotation"
					}
				},
				{
					"sampler":53,
					"target":{
						"node":16,
						"path":"scale"
					}
				},
				{
					"sampler":54,
					"target":{
						"node":15,
						"path":"translation"
					}
				},
				{
					"sampler":55,
					"target":{
						"node":15,
						"path":"rotation"
					}
				},
				{
					"sampler":56,
					"target":{
						"node":15,
						"path":"scale"
					}
				},
				{
					"sampler":57,
					"target":{
						"node":20,
						"path":"translation"
					}
				},
				{
					"sampler":58,
					"target":{
						"node":20,
						"path":"rotation"
					}
				},
				{
					"sampler":59,
					"target":{
						"node":20,
						"path":"scale"
					}
				},
				{
					"sampler":60,
					"target":{
						"node":19,
						"path":"translation"
					}
				},
				{
					"sampler":61,
					"target":{
						"node":19,
						"path":"rotation"
					}
				},
				{
					"sampler":62,
					"target":{
						"node":19,
						"path":"scale"
					}
				},
				{
					"sampler":63,
					"target":{
						"node":18,
						"path":"translation"
					}
				},
				{
					"sampler":64,
					"target":{
						"node":18,
						"path":"rotation"
					}
				},
				{
					"sampler":65,
					"target":{
						"node":18,
						"path":"scale"
					}
				}
			],
			"name":"Idle",
			"samplers":[
				{
					"input":7,
					"interpolation":"STEP",
					"output":8
				},
				{
					"input":7,
					"interpolation":"STEP",
					"output":9
				},
				{
					"input":7,
					"interpolation":"STEP",
					"output":10
				},
				{
					"input":7,
					"interpolation":"STEP",
					"output":11
				},
				{
					"input":7,
					"interpolation":"STEP",
					"output":12
				},
				{
					"input":7,
					"interpolation":"STEP",
					"output":10
				},
				{
					"input":7,
					"interpolation":"STEP",
					"output":13
				},
				{
					"input":7,
					"interpolation":"STEP",
					"output":14
				},
				{
					"input":7,
					"interpolation":"STEP",
					"output":10
				},
				{
					"input":7,
					"interpolation":"STEP",
					"output":15
				},
				{
					"input":7,
					"interpolation":"STEP",
					"output":14
				},
				{
					"input":7,
					"interpolation":"STEP",
					"output":10
				},
				{
					"input":7,
					"interpolation":"STEP",
					"output":16
				},
				{
					"input":7,
					"interpolation":"STEP",
					"output":17
				},
				{
					"input":7,
					"interpolation":"STEP",
					"output":10
				},
				{
					"input":7,
					"interpolation":"STEP",
					"output":18
				},
				{
					"input":7,
					"interpolation":"STEP",
					"output":19
				},
				{
					"input":7,
					"interpolation":"STEP",
					"output":10
				},
				{
					"input":7,
					"interpolation":"STEP",
					"output":20
				},
				{
					"input":21,
					"interpolation":"LINEAR",
					"output":22
				},
				{
					"input":7,
					"interpolation":"STEP",
					"output":23
				},
				{
					"input":7,
					"interpolation":"STEP",
					"output":24
				},
				{
					"input":21,
					"interpolation":"LINEAR",
					"output":25
				},
				{
					"input":7,
					"interpolation":"STEP",
					"output":26
				},
				{
					"input":7,
					"interpolation":"STEP",
					"output":27
				},
				{
					"input":21,
					"interpolation":"LINEAR",
					"output":28
				},
				{
					"input":7,
					"interpolation":"STEP",
					"output":29
				},
				{
					"input":7,
					"interpolation":"STEP",
					"output":30
				},
				{
					"input":7,
					"interpolation":"STEP",
					"output":31
				},
				{
					"input":7,
					"interpolation":"STEP",
					"output":10
				},
				{
					"input":7,
					"interpolation":"STEP",
					"output":32
				},
				{
					"input":7,
					"interpolation":"STEP",
					"output":33
				},
				{
					"input":7,
					"interpolation":"STEP",
					"output":34
				},
				{
					"input":7,
					"interpolation":"STEP",
					"output":35
				},
				{
					"input":7,
					"interpolation":"STEP",
					"output":36
				},
				{
					"input":7,
					"interpolation":"STEP",
					"output":37
				},
				{
					"input":7,
					"interpolation":"STEP",
					"output":38
				},
				{
					"input":21,
					"interpolation":"LINEAR",
					"output":39
				},
				{
					"input":7,
					"interpolation":"STEP",
					"output":40
				},
				{
					"input":7,
					"interpolation":"STEP",
					"output":41
				},
				{
					"input":21,
					"interpolation":"LINEAR",
					"output":42
				},
				{
					"input":7,
					"interpolation":"STEP",
					"output":34
				},
				{
					"input":7,
					"interpolation":"STEP",
					"output":43
				},
				{
					"input":7,
					"interpolation":"STEP",
					"output":44
				},
				{
					"input":7,
					"interpolation":"STEP",
					"output":10
				},
				{
					"input":7,
					"interpolation":"STEP",
					"output":45
				},
				{
					"input":7,
					"interpolation":"STEP",
					"output":46
				},
				{
					"input":7,
					"interpolation":"STEP",
					"output":47
				},
				{
					"input":7,
					"interpolation":"STEP",
					"output":48
				},
				{
					"input":7,
					"interpolation":"STEP",
					"output":49
				},
				{
					"input":7,
					"interpolation":"STEP",
					"output":50
				},
				{
					"input":7,
					"interpolation":"STEP",
					"output":51
				},
				{
					"input":7,
					"interpolation":"STEP",
					"output":52
				},
				{
					"input":7,
					"interpolation":"STEP",
					"output":53
				},
				{
					"input":7,
					"interpolation":"STEP",
					"output":54
				},
				{
					"input":7,
					"interpolation":"STEP",
					"output":55
				},
				{
					"input":7,
					"interpolation":"STEP",
					"output":56
				},
				{
					"input":7,
					"interpolation":"STEP",
					"output":57
				},
				{
					"input":7,
					"interpolation":"STEP",
					"output":58
				},
				{
					"input":7,
					"interpolation":"STEP",
					"output":50
				},
				{
					"input":7,
					"interpolation":"STEP",
					"output":59
				},
				{
					"input":7,
					"interpolation":"STEP",
					"output":60
				},
				{
					"input":7,
					"interpolation":"STEP",
					"output":53
				},
				{
					"input":7,
					"interpolation":"STEP",
					"output":61
				},
				{
					"input":7,
					"interpolation":"STEP",
					"output":62
				},
				{
					"input":7,
					"interpolation":"STEP",
					"output":56
				}
			]
		},
		{
			"channels":[
				{
					"sampler":0,
					"target":{
						"node":0,
						"path":"translation"
					}
				},
				{
					"sampler":1,
					"target":{
						"node":0,
						"path":"rotation"
					}
				},
				{
					"sampler":2,
					"target":{
						"node":0,
						"path":"scale"
					}
				},
				{
					"sampler":3,
					"target":{
						"node":1,
						"path":"translation"
					}
				},
				{
					"sampler":4,
					"target":{
						"node":1,
						"path":"rotation"
					}
				},
				{
					"sampler":5,
					"target":{
						"node":1,
						"path":"scale"
					}
				},
				{
					"sampler":6,
					"target":{
						"node":2,
						"path":"translation"
					}
				},
				{
					"sampler":7,
					"target":{
						"node":2,
						"path":"rotation"
					}
				},
				{
					"sampler":8,
					"target":{
						"node":2,
						"path":"scale"
					}
				},
				{
					"sampler":9,
					"target":{
						"node":3,
						"path":"translation"
					}
				},
				{
					"sampler":10,
					"target":{
						"node":3,
						"path":"rotation"
					}
				},
				{
					"sampler":11,
					"target":{
						"node":3,
						"path":"scale"
					}
				},
				{
					"sampler":12,
					"target":{
						"node":21,
						"path":"translation"
					}
				},
				{
					"sampler":13,
					"target":{
						"node":21,
						"path":"rotation"
					}
				},
				{
					"sampler":14,
					"target":{
						"node":21,
						"path":"scale"
					}
				},
				{
					"sampler":15,
					"target":{
						"node":14,
						"path":"translation"
					}
				},
				{
					"sampler":16,
					"target":{
						"node":14,
						"path":"rotation"
					}
				},
				{
					"sampler":17,
					"target":{
						"node":14,
						"path":"scale"
					}
				},
				{
					"sampler":18,
					"target":{
						"node":13,
						"path":"translation"
					}
				},
				{
					"sampler":19,
					"target":{
						"node":13,
						"path":"rotation"
					}
				},
				{
					"sampler":20,
					"target":{
						"node":13,
						"path":"scale"
					}
				},
				{
					"sampler":21,
					"target":{
						"node":4,
						"path":"translation"
					}
				},
				{
					"sampler":22,
					"target":{
						"node":4,
						"path":"rotation"
					}
				},
				{
					"sampler":23,
					"target":{
						"node":4,
						"path":"scale"
					}
				},
				{
					"sampler":24,
					"target":{
						"node":8,
						"path":"translation"
					}
				},
				{
					"sampler":25,
					"target":{
						"node":8,
						"path":"rotation"
					}
				},
				{
					"sampler":26,
					"target":{
						"node":8,
						"path":"scale"
					}
				},
				{
					"sampler":27,
					"target":{
						"node":7,
						"path":"translation"
					}
				},
				{
					"sampler":28,
					"target":{
						"node":7,
						"path":"rotation"
					}
				},
				{
					"sampler":29,
					"target":{
						"node":7,
						"path":"scale"
					}
				},
				{
					"sampler":30,
					"target":{
						"node":6,
						"path":"translation"
					}
				},
				{
					"sampler":31,
					"target":{
						"node":6,
						"path":"rotation"
					}
				},
				{
					"sampler":32,
					"target":{
						"node":6,
						"path":"scale"
					}
				},
				{
					"sampler":33,
					"target":{
						"node":5,
						"path":"translation"
					}
				},
				{
					"sampler":34,
					"target":{
						"node":5,
						"path":"rotation"
					}
				},
				{
					"sampler":35,
					"target":{
						"node":5,
						"path":"scale"
					}
				},
				{
					"sampler":36,
					"target":{
						"node":12,
						"path":"translation"
					}
				},
				{
					"sampler":37,
					"target":{
						"node":12,
						"path":"rotation"
					}
				},
				{
					"sampler":38,
					"target":{
						"node":12,
						"path":"scale"
					}
				},
				{
					"sampler":39,
					"target":{
						"node":11,
						"path":"translation"
					}
				},
				{
					"sampler":40,
					"target":{
						"node":11,
						"path":"rotation"
					}
				},
				{
					"sampler":41,
					"target":{
						"node":11,
						"path":"scale"
					}
				},
				{
					"sampler":42,
					"target":{
						"node":10,
						"path":"translation"
					}
				},
				{
					"sampler":43,
					"target":{
						"node":10,
						"path":"rotation"
					}
				},
				{
					"sampler":44,
					"target":{
						"node":10,
						"path":"scale"
					}
				},
				{
					"sampler":45,
					"target":{
						"node":9,
						"path":"translation"
					}
				},
				{
					"sampler":46,
					"target":{
						"node":9,
						"path":"rotation"
					}
				},
				{
					"sampler":47,
					"target":{
						"node":9,
						"path":"scale"
					}
				},
				{
					"sampler":48,
					"target":{
						"node":17,
						"path":"translation"
					}
				},
				{
					"sampler":49,
					"target":{
						"node":17,
						"path":"rotation"
					}
				},
				{
					"sampler":50,
					"target":{
						"node":17,
						"path":"scale"
					}
				},
				{
					"sampler":51,
					"target":{
						"node":16,
						"path":"translation"
					}
				},
				{
					"sampler":52,
					"target":{
						"node":16,
						"path":"rotation"
					}
				},
				{
					"sampler":53,
					"target":{
						"node":16,
						"path":"scale"
					}
				},
				{
					"sampler":54,
					"target":{
						"node":15,
						"path":"translation"
					}
				},
				{
					"sampler":55,
					"target":{
						"node":15,
						"path":"rotation"
					}
				},
				{
					"sampler":56,
					"target":{
						"node":15,
						"path":"scale"
					}
				},
				{
					"sampler":57,
					"target":{
						"node":20,
						"path":"translation"
					}
				},
				{
					"sampler":58,
					"target":{
						"node":20,
						"path":"rotation"
					}
				},
				{
					"sampler":59,
					"target":{
						"node":20,
						"path":"scale"
					}
				},
				{
					"sampler":60,
					"target":{
						"node":19,
						"path":"translation"
					}
				},
				{
					"sampler":61,
					"target":{
						"node":19,
						"path":"rotation"
					}
				},
				{
					"sampler":62,
					"target":{
						"node":19,
						"path":"scale"
					}
				},
				{
					"sampler":63,
					"target":{
						"node":18,
						"path":"translation"
					}
				},
				{
					"sampler":64,
					"target":{
						"node":18,
						"path":"rotation"
					}
				},
				{
					"sampler":65,
					"target":{
						"node":18,
						"path":"scale"
					}
				}
			],
			"name":"Jump",
			"samplers":[
				{
					"input":63,
					"interpolation":"STEP",
					"output":8
				},
				{
					"input":63,
					"interpolation":"STEP",
					"output":9
				},
				{
					"input":63,
					"interpolation":"STEP",
					"output":10
				},
				{
					"input":63,
					"interpolation":"STEP",
					"output":11
				},
				{
					"input":63,
					"interpolation":"STEP",
					"output":12
				},
				{
					"input":63,
					"interpolation":"STEP",
					"output":10
				},
				{
					"input":64,
					"interpolation":"LINEAR",
					"output":65
				},
				{
					"input":63,
					"interpolation":"STEP",
					"output":14
				},
				{
					"input":63,
					"interpolation":"STEP",
					"output":10
				},
				{
					"input":64,
					"interpolation":"LINEAR",
					"output":66
				},
				{
					"input":63,
					"interpolation":"STEP",
					"output":14
				},
				{
					"input":63,
					"interpolation":"STEP",
					"output":10
				},
				{
					"input":64,
					"interpolation":"LINEAR",
					"output":67
				},
				{
					"input":63,
					"interpolation":"STEP",
					"output":17
				},
				{
					"input":63,
					"interpolation":"STEP",
					"output":10
				},
				{
					"input":63,
					"interpolation":"LINEAR",
					"output":68
				},
				{
					"input":64,
					"interpolation":"LINEAR",
					"output":69
				},
				{
					"input":63,
					"interpolation":"STEP",
					"output":10
				},
				{
					"input":63,
					"interpolation":"LINEAR",
					"output":70
				},
				{
					"input":64,
					"interpolation":"LINEAR",
					"output":71
				},
				{
					"input":63,
					"interpolation":"STEP",
					"output":72
				},
				{
					"input":63,
					"interpolation":"LINEAR",
					"output":73
				},
				{
					"input":64,
					"interpolation":"LINEAR",
					"output":74
				},
				{
					"input":63,
					"interpolation":"STEP",
					"output":75
				},
				{
					"input":63,
					"interpolation":"LINEAR",
					"output":76
				},
				{
					"input":64,
					"interpolation":"LINEAR",
					"output":77
				},
				{
					"input":63,
					"interpolation":"LINEAR",
					"output":78
				},
				{
					"input":63,
					"interpolation":"LINEAR",
					"output":79
				},
				{
					"input":64,
					"interpolation":"LINEAR",
					"output":80
				},
				{
					"input":63,
					"interpolation":"LINEAR",
					"output":81
				},
				{
					"input":63,
					"interpolation":"LINEAR",
					"output":82
				},
				{
					"input":64,
					"interpolation":"LINEAR",
					"output":83
				},
				{
					"input":63,
					"interpolation":"LINEAR",
					"output":84
				},
				{
					"input":63,
					"interpolation":"LINEAR",
					"output":85
				},
				{
					"input":63,
					"interpolation":"LINEAR",
					"output":86
				},
				{
					"input":63,
					"interpolation":"LINEAR",
					"output":87
				},
				{
					"input":63,
					"interpolation":"LINEAR",
					"output":88
				},
				{
					"input":64,
					"interpolation":"LINEAR",
					"output":89
				},
				{
					"input":63,
					"interpolation":"LINEAR",
					"output":90
				},
				{
					"input":63,
					"interpolation":"LINEAR",
					"output":91
				},
				{
					"input":64,
					"interpolation":"LINEAR",
					"output":92
				},
				{
					"input":63,
					"interpolation":"LINEAR",
					"output":93
				},
				{
					"input":63,
					"interpolation":"LINEAR",
					"output":94
				},
				{
					"input":64,
					"interpolation":"LINEAR",
					"output":95
				},
				{
					"input":63,
					"interpolation":"LINEAR",
					"output":96
				},
				{
					"input":63,
					"interpolation":"LINEAR",
					"output":97
				},
				{
					"input":63,
					"interpolation":"LINEAR",
					"output":98
				},
				{
					"input":63,
					"interpolation":"LINEAR",
					"output":99
				},
				{
					"input":63,
					"interpolation":"LINEAR",
					"output":100
				},
				{
					"input":64,
					"interpolation":"LINEAR",
					"output":101
				},
				{
					"input":63,
					"interpolation":"LINEAR",
					"output":102
				},
				{
					"input":63,
					"interpolation":"LINEAR",
					"output":103
				},
				{
					"input":64,
					"interpolation":"LINEAR",
					"output":104
				},
				{
					"input":63,
					"interpolation":"LINEAR",
					"output":105
				},
				{
					"input":63,
					"interpolation":"LINEAR",
					"output":106
				},
				{
					"input":64,
					"interpolation":"LINEAR",
					"output":107
				},
				{
					"input":63,
					"interpolation":"LINEAR",
					"output":108
				},
				{
					"input":63,
					"interpolation":"LINEAR",
					"output":109
				},
				{
					"input":64,
					"interpolation":"LINEAR",
					"output":110
				},
				{
					"input":63,
					"interpolation":"LINEAR",
					"output":111
				},
				{
					"input":63,
					"interpolation":"LINEAR",
					"output":112
				},
				{
					"input":64,
					"interpolation":"LINEAR",
					"output":113
				},
				{
					"input":63,
					"interpolation":"LINEAR",
					"output":114
				},
				{
					"input":63,
					"interpolation":"LINEAR",
					"output":115
				},
				{
					"input":64,
					"interpolation":"LINEAR",
					"output":116
				},
				{
					"input":63,
					"interpolation":"LINEAR",
					"output":117
				}
			]
		},
		{
			"channels":[
				{
					"sampler":0,
					"target":{
						"node":0,
						"path":"translation"
					}
				},
				{
					"sampler":1,
					"target":{
						"node":0,
						"path":"rotation"
					}
				},
				{
					"sampler":2,
					"target":{
						"node":0,
						"path":"scale"
					}
				},
				{
					"sampler":3,
					"target":{
						"node":1,
						"path":"translation"
					}
				},
				{
					"sampler":4,
					"target":{
						"node":1,
						"path":"rotation"
					}
				},
				{
					"sampler":5,
					"target":{
						"node":1,
						"path":"scale"
					}
				},
				{
					"sampler":6,
					"target":{
						"node":2,
						"path":"translation"
					}
				},
				{
					"sampler":7,
					"target":{
						"node":2,
						"path":"rotation"
					}
				},
				{
					"sampler":8,
					"target":{
						"node":2,
						"path":"scale"
					}
				},
				{
					"sampler":9,
					"target":{
						"node":3,
						"path":"translation"
					}
				},
				{
					"sampler":10,
					"target":{
						"node":3,
						"path":"rotation"
					}
				},
				{
					"sampler":11,
					"target":{
						"node":3,
						"path":"scale"
					}
				},
				{
					"sampler":12,
					"target":{
						"node":21,
						"path":"translation"
					}
				},
				{
					"sampler":13,
					"target":{
						"node":21,
						"path":"rotation"
					}
				},
				{
					"sampler":14,
					"target":{
						"node":21,
						"path":"scale"
					}
				},
				{
					"sampler":15,
					"target":{
						"node":14,
						"path":"translation"
					}
				},
				{
					"sampler":16,
					"target":{
						"node":14,
						"path":"rotation"
					}
				},
				{
					"sampler":17,
					"target":{
						"node":14,
						"path":"scale"
					}
				},
				{
					"sampler":18,
					"target":{
						"node":13,
						"path":"translation"
					}
				},
				{
					"sampler":19,
					"target":{
						"node":13,
						"path":"rotation"
					}
				},
				{
					"sampler":20,
					"target":{
						"node":13,
						"path":"scale"
					}
				},
				{
					"sampler":21,
					"target":{
						"node":4,
						"path":"translation"
					}
				},
				{
					"sampler":22,
					"target":{
						"node":4,
						"path":"rotation"
					}
				},
				{
					"sampler":23,
					"target":{
						"node":4,
						"path":"scale"
					}
				},
				{
					"sampler":24,
					"target":{
						"node":8,
						"path":"translation"
					}
				},
				{
					"sampler":25,
					"target":{
						"node":8,
						"path":"rotation"
					}
				},
				{
					"sampler":26,
					"target":{
						"node":8,
						"path":"scale"
					}
				},
				{
					"sampler":27,
					"target":{
						"node":7,
						"path":"translation"
					}
				},
				{
					"sampler":28,
					"target":{
						"node":7,
						"path":"rotation"
					}
				},
				{
					"sampler":29,
					"target":{
						"node":7,
						"path":"scale"
					}
				},
				{
					"sampler":30,
					"target":{
						"node":6,
						"path":"translation"
					}
				},
				{
					"sampler":31,
					"target":{
						"node":6,
						"path":"rotation"
					}
				},
				{
					"sampler":32,
					"target":{
						"node":6,
						"path":"scale"
					}
				},
				{
					"sampler":33,
					"target":{
						"node":5,
						"path":"translation"
					}
				},
				{
					"sampler":34,
					"target":{
						"node":5,
						"path":"rotation"
					}
				},
				{
					"sampler":35,
					"target":{
						"node":5,
						"path":"scale"
					}
				},
				{
					"sampler":36,
					"target":{
						"node":12,
						"path":"translation"
					}
				},
				{
					"sampler":37,
					"target":{
						"node":12,
						"path":"rotation"
					}
				},
				{
					"sampler":38,
					"target":{
						"node":12,
						"path":"scale"
					}
				},
				{
					"sampler":39,
					"target":{
						"node":11,
						"path":"translation"
					}
				},
				{
					"sampler":40,
					"target":{
						"node":11,
						"path":"rotation"
					}
				},
				{
					"sampler":41,
					"target":{
						"node":11,
						"path":"scale"
					}
				},
				{
					"sampler":42,
					"target":{
						"node":10,
						"path":"translation"
					}
				},
				{
					"sampler":43,
					"target":{
						"node":10,
						"path":"rotation"
					}
				},
				{
					"sampler":44,
					"target":{
						"node":10,
						"path":"scale"
					}
				},
				{
					"sampler":45,
					"target":{
						"node":9,
						"path":"translation"
					}
				},
				{
					"sampler":46,
					"target":{
						"node":9,
						"path":"rotation"
					}
				},
				{
					"sampler":47,
					"target":{
						"node":9,
						"path":"scale"
					}
				},
				{
					"sampler":48,
					"target":{
						"node":17,
						"path":"translation"
					}
				},
				{
					"sampler":49,
					"target":{
						"node":17,
						"path":"rotation"
					}
				},
				{
					"sampler":50,
					"target":{
						"node":17,
						"path":"scale"
					}
				},
				{
					"sampler":51,
					"target":{
						"node":16,
						"path":"translation"
					}
				},
				{
					"sampler":52,
					"target":{
						"node":16,
						"path":"rotation"
					}
				},
				{
					"sampler":53,
					"target":{
						"node":16,
						"path":"scale"
					}
				},
				{
					"sampler":54,
					"target":{
						"node":15,
						"path":"translation"
					}
				},
				{
					"sampler":55,
					"target":{
						"node":15,
						"path":"rotation"
					}
				},
				{
					"sampler":56,
					"target":{
						"node":15,
						"path":"scale"
					}
				},
				{
					"sampler":57,
					"target":{
						"node":20,
						"path":"translation"
					}
				},
				{
					"sampler":58,
					"target":{
						"node":20,
						"path":"rotation"
					}
				},
				{
					"sampler":59,
					"target":{
						"node":20,
						"path":"scale"
					}
				},
				{
					"sampler":60,
					"target":{
						"node":19,
						"path":"translation"
					}
				},
				{
					"sampler":61,
					"target":{
						"node":19,
						"path":"rotation"
					}
				},
				{
					"sampler":62,
					"target":{
						"node":19,
						"path":"scale"
					}
				},
				{
					"sampler":63,
					"target":{
						"node":18,
						"path":"translation"
					}
				},
				{
					"sampler":64,
					"target":{
						"node":18,
						"path":"rotation"
					}
				},
				{
					"sampler":65,
					"target":{
						"node":18,
						"path":"scale"
					}
				}
			],
			"name":"Run",
			"samplers":[
				{
					"input":7,
					"interpolation":"STEP",
					"output":8
				},
				{
					"input":7,
					"interpolation":"STEP",
					"output":9
				},
				{
					"input":7,
					"interpolation":"STEP",
					"output":10
				},
				{
					"input":7,
					"interpolation":"STEP",
					"output":11
				},
				{
					"input":7,
					"interpolation":"STEP",
					"output":12
				},
				{
					"input":7,
					"interpolation":"STEP",
					"output":10
				},
				{
					"input":21,
					"interpolation":"LINEAR",
					"output":118
				},
				{
					"input":21,
					"interpolation":"LINEAR",
					"output":119
				},
				{
					"input":7,
					"interpolation":"STEP",
					"output":120
				},
				{
					"input":21,
					"interpolation":"LINEAR",
					"output":121
				},
				{
					"input":21,
					"interpolation":"LINEAR",
					"output":122
				},
				{
					"input":7,
					"interpolation":"STEP",
					"output":10
				},
				{
					"input":21,
					"interpolation":"LINEAR",
					"output":123
				},
				{
					"input":7,
					"interpolation":"STEP",
					"output":17
				},
				{
					"input":7,
					"interpolation":"STEP",
					"output":10
				},
				{
					"input":7,
					"interpolation":"STEP",
					"output":124
				},
				{
					"input":7,
					"interpolation":"STEP",
					"output":19
				},
				{
					"input":7,
					"interpolation":"STEP",
					"output":10
				},
				{
					"input":7,
					"interpolation":"LINEAR",
					"output":125
				},
				{
					"input":21,
					"interpolation":"LINEAR",
					"output":126
				},
				{
					"input":7,
					"interpolation":"STEP",
					"output":23
				},
				{
					"input":7,
					"interpolation":"STEP",
					"output":127
				},
				{
					"input":7,
					"interpolation":"STEP",
					"output":128
				},
				{
					"input":7,
					"interpolation":"STEP",
					"output":26
				},
				{
					"input":7,
					"interpolation":"LINEAR",
					"output":129
				},
				{
					"input":7,
					"interpolation":"STEP",
					"output":130
				},
				{
					"input":7,
					"interpolation":"STEP",
					"output":29
				},
				{
					"input":7,
					"interpolation":"LINEAR",
					"output":131
				},
				{
					"input":21,
					"interpolation":"LINEAR",
					"output":132
				},
				{
					"input":7,
					"interpolation":"LINEAR",
					"output":72
				},
				{
					"input":7,
					"interpolation":"LINEAR",
					"output":133
				},
				{
					"input":21,
					"interpolation":"LINEAR",
					"output":134
				},
				{
					"input":7,
					"interpolation":"LINEAR",
					"output":135
				},
				{
					"input":7,
					"interpolation":"LINEAR",
					"output":136
				},
				{
					"input":7,
					"interpolation":"LINEAR",
					"output":137
				},
				{
					"input":7,
					"interpolation":"LINEAR",
					"output":138
				},
				{
					"input":7,
					"interpolation":"LINEAR",
					"output":139
				},
				{
					"input":7,
					"interpolation":"STEP",
					"output":140
				},
				{
					"input":7,
					"interpolation":"STEP",
					"output":40
				},
				{
					"input":7,
					"interpolation":"LINEAR",
					"output":141
				},
				{
					"input":21,
					"interpolation":"LINEAR",
					"output":142
				},
				{
					"input":7,
					"interpolation":"LINEAR",
					"output":143
				},
				{
					"input":7,
					"interpolation":"LINEAR",
					"output":144
				},
				{
					"input":21,
					"interpolation":"LINEAR",
					"output":145
				},
				{
					"input":7,
					"interpolation":"LINEAR",
					"output":146
				},
				{
					"input":7,
					"interpolation":"LINEAR",
					"output":147
				},
				{
					"input":7,
					"interpolation":"LINEAR",
					"output":148
				},
				{
					"input":7,
					"interpolation":"STEP",
					"output":149
				},
				{
					"input":7,
					"interpolation":"LINEAR",
					"output":150
				},
				{
					"input":21,
					"interpolation":"LINEAR",
					"output":151
				},
				{
					"input":7,
					"interpolation":"LINEAR",
					"output":152
				},
				{
					"input":7,
					"interpolation":"LINEAR",
					"output":153
				},
				{
					"input":21,
					"interpolation":"LINEAR",
					"output":154
				},
				{
					"input":7,
					"interpolation":"LINEAR",
					"output":155
				},
				{
					"input":7,
					"interpolation":"LINEAR",
					"output":156
				},
				{
					"input":21,
					"interpolation":"LINEAR",
					"output":157
				},
				{
					"input":7,
					"interpolation":"LINEAR",
					"output":158
				},
				{
					"input":7,
					"interpolation":"LINEAR",
					"output":159
				},
				{
					"input":21,
					"interpolation":"LINEAR",
					"output":160
				},
				{
					"input":7,
					"interpolation":"LINEAR",
					"output":161
				},
				{
					"input":7,
					"interpolation":"LINEAR",
					"output":162
				},
				{
					"input":21,
					"interpolation":"LINEAR",
					"output":163
				},
				{
					"input":7,
					"interpolation":"LINEAR",
					"output":164
				},
				{
					"input":7,
					"interpolation":"LINEAR",
					"output":165
				},
				{
					"input":21,
					"interpolation":"LINEAR",
					"output":166
				},
				{
					"input":7,
					"interpolation":"LINEAR",
					"output":167
				}
			]
		},
		{
			"channels":[
				{
					"sampler":0,
					"target":{
						"node":0,
						"path":"translation"
					}
				},
				{
					"sampler":1,
					"target":{
						"node":0,
						"path":"rotation"
					}
				},
				{
					"sampler":2,
					"target":{
						"node":0,
						"path":"scale"
					}
				},
				{
					"sampler":3,
					"target":{
						"node":1,
						"path":"translation"
					}
				},
				{
					"sampler":4,
					"target":{
						"node":1,
						"path":"rotation"
					}
				},
				{
					"sampler":5,
					"target":{
						"node":1,
						"path":"scale"
					}
				},
				{
					"sampler":6,
					"target":{
						"node":2,
						"path":"translation"
					}
				},
				{
					"sampler":7,
					"target":{
						"node":2,
						"path":"rotation"
					}
				},
				{
					"sampler":8,
					"target":{
						"node":2,
						"path":"scale"
					}
				},
				{
					"sampler":9,
					"target":{
						"node":3,
						"path":"translation"
					}
				},
				{
					"sampler":10,
					"target":{
						"node":3,
						"path":"rotation"
					}
				},
				{
					"sampler":11,
					"target":{
						"node":3,
						"path":"scale"
					}
				},
				{
					"sampler":12,
					"target":{
						"node":21,
						"path":"translation"
					}
				},
				{
					"sampler":13,
					"target":{
						"node":21,
						"path":"rotation"
					}
				},
				{
					"sampler":14,
					"target":{
						"node":21,
						"path":"scale"
					}
				},
				{
					"sampler":15,
					"target":{
						"node":14,
						"path":"translation"
					}
				},
				{
					"sampler":16,
					"target":{
						"node":14,
						"path":"rotation"
					}
				},
				{
					"sampler":17,
					"target":{
						"node":14,
						"path":"scale"
					}
				},
				{
					"sampler":18,
					"target":{
						"node":13,
						"path":"translation"
					}
				},
				{
					"sampler":19,
					"target":{
						"node":13,
						"path":"rotation"
					}
				},
				{
					"sampler":20,
					"target":{
						"node":13,
						"path":"scale"
					}
				},
				{
					"sampler":21,
					"target":{
						"node":4,
						"path":"translation"
					}
				},
				{
					"sampler":22,
					"target":{
						"node":4,
						"path":"rotation"
					}
				},
				{
					"sampler":23,
					"target":{
						"node":4,
						"path":"scale"
					}
				},
				{
					"sampler":24,
					"target":{
						"node":8,
						"path":"translation"
					}
				},
				{
					"sampler":25,
					"target":{
						"node":8,
						"path":"rotation"
					}
				},
				{
					"sampler":26,
					"target":{
						"node":8,
						"path":"scale"
					}
				},
				{
					"sampler":27,
					"target":{
						"node":7,
						"path":"translation"
					}
				},
				{
					"sampler":28,
					"target":{
						"node":7,
						"path":"rotation"
					}
				},
				{
					"sampler":29,
					"target":{
						"node":7,
						"path":"scale"
					}
				},
				{
					"sampler":30,
					"target":{
						"node":6,
						"path":"translation"
					}
				},
				{
					"sampler":31,
					"target":{
						"node":6,
						"path":"rotation"
					}
				},
				{
					"sampler":32,
					"target":{
						"node":6,
						"path":"scale"
					}
				},
				{
					"sampler":33,
					"target":{
						"node":5,
						"path":"translation"
					}
				},
				{
					"sampler":34,
					"target":{
						"node":5,
						"path":"rotation"
					}
				},
				{
					"sampler":35,
					"target":{
						"node":5,
						"path":"scale"
					}
				},
				{
					"sampler":36,
					"target":{
						"node":12,
						"path":"translation"
					}
				},
				{
					"sampler":37,
					"target":{
						"node":12,
						"path":"rotation"
					}
				},
				{
					"sampler":38,
					"target":{
						"node":12,
						"path":"scale"
					}
				},
				{
					"sampler":39,
					"target":{
						"node":11,
						"path":"translation"
					}
				},
				{
					"sampler":40,
					"target":{
						"node":11,
						"path":"rotation"
					}
				},
				{
					"sampler":41,
					"target":{
						"node":11,
						"path":"scale"
					}
				},
				{
					"sampler":42,
					"target":{
						"node":10,
						"path":"translation"
					}
				},
				{
					"sampler":43,
					"target":{
						"node":10,
						"path":"rotation"
					}
				},
				{
					"sampler":44,
					"target":{
						"node":10,
						"path":"scale"
					}
				},
				{
					"sampler":45,
					"target":{
						"node":9,
						"path":"translation"
					}
				},
				{
					"sampler":46,
					"target":{
						"node":9,
						"path":"rotation"
					}
				},
				{
					"sampler":47,
					"target":{
						"node":9,
						"path":"scale"
					}
				},
				{
					"sampler":48,
					"target":{
						"node":17,
						"path":"translation"
					}
				},
				{
					"sampler":49,
					"target":{
						"node":17,
						"path":"rotation"
					}
				},
				{
					"sampler":50,
					"target":{
						"node":17,
						"path":"scale"
					}
				},
				{
					"sampler":51,
					"target":{
						"node":16,
						"path":"translation"
					}
				},
				{
					"sampler":52,
					"target":{
						"node":16,
						"path":"rotation"
					}
				},
				{
					"sampler":53,
					"target":{
						"node":16,
						"path":"scale"
					}
				},
				{
					"sampler":54,
					"target":{
						"node":15,
						"path":"translation"
					}
				},
				{
					"sampler":55,
					"target":{
						"node":15,
						"path":"rotation"
					}
				},
				{
					"sampler":56,
					"target":{
						"node":15,
						"path":"scale"
					}
				},
				{
					"sampler":57,
					"target":{
						"node":20,
						"path":"translation"
					}
				},
				{
					"sampler":58,
					"target":{
						"node":20,
						"path":"rotation"
					}
				},
				{
					"sampler":59,
					"target":{
						"node":20,
						"path":"scale"
					}
				},
				{
					"sampler":60,
					"target":{
						"node":19,
						"path":"translation"
					}
				},
				{
					"sampler":61,
					"target":{
						"node":19,
						"path":"rotation"
					}
				},
				{
					"sampler":62,
					"target":{
						"node":19,
						"path":"scale"
					}
				},
				{
					"sampler":63,
					"target":{
						"node":18,
						"path":"translation"
					}
				},
				{
					"sampler":64,
					"target":{
						"node":18,
						"path":"rotation"
					}
				},
				{
					"sampler":65,
					"target":{
						"node":18,
						"path":"scale"
					}
				}
			],
			"name":"Tpose",
			"samplers":[
				{
					"input":7,
					"interpolation":"STEP",
					"output":8
				},
				{
					"input":7,
					"interpolation":"STEP",
					"output":9
				},
				{
					"input":7,
					"interpolation":"STEP",
					"output":10
				},
				{
					"input":7,
					"interpolation":"STEP",
					"output":11
				},
				{
					"input":7,
					"interpolation":"STEP",
					"output":12
				},
				{
					"input":7,
					"interpolation":"STEP",
					"output":10
				},
				{
					"input":7,
					"interpolation":"STEP",
					"output":13
				},
				{
					"input":7,
					"interpolation":"STEP",
					"output":14
				},
				{
					"input":7,
					"interpolation":"STEP",
					"output":10
				},
				{
					"input":7,
					"interpolation":"STEP",
					"output":15
				},
				{
					"input":7,
					"interpolation":"STEP",
					"output":14
				},
				{
					"input":7,
					"interpolation":"STEP",
					"output":10
				},
				{
					"input":7,
					"interpolation":"STEP",
					"output":16
				},
				{
					"input":7,
					"interpolation":"STEP",
					"output":17
				},
				{
					"input":7,
					"interpolation":"STEP",
					"output":10
				},
				{
					"input":7,
					"interpolation":"STEP",
					"output":18
				},
				{
					"input":7,
					"interpolation":"STEP",
					"output":19
				},
				{
					"input":7,
					"interpolation":"STEP",
					"output":10
				},
				{
					"input":7,
					"interpolation":"STEP",
					"output":20
				},
				{
					"input":21,
					"interpolation":"LINEAR",
					"output":168
				},
				{
					"input":7,
					"interpolation":"STEP",
					"output":169
				},
				{
					"input":7,
					"interpolation":"LINEAR",
					"output":170
				},
				{
					"input":7,
					"interpolation":"LINEAR",
					"output":171
				},
				{
					"input":7,
					"interpolation":"STEP",
					"output":172
				},
				{
					"input":7,
					"interpolation":"LINEAR",
					"output":173
				},
				{
					"input":21,
					"interpolation":"LINEAR",
					"output":174
				},
				{
					"input":7,
					"interpolation":"LINEAR",
					"output":175
				},
				{
					"input":7,
					"interpolation":"LINEAR",
					"output":176
				},
				{
					"input":21,
					"interpolation":"LINEAR",
					"output":177
				},
				{
					"input":7,
					"interpolation":"STEP",
					"output":75
				},
				{
					"input":7,
					"interpolation":"LINEAR",
					"output":178
				},
				{
					"input":21,
					"interpolation":"LINEAR",
					"output":179
				},
				{
					"input":7,
					"interpolation":"LINEAR",
					"output":180
				},
				{
					"input":7,
					"interpolation":"LINEAR",
					"output":181
				},
				{
					"input":7,
					"interpolation":"LINEAR",
					"output":182
				},
				{
					"input":7,
					"interpolation":"LINEAR",
					"output":138
				},
				{
					"input":7,
					"interpolation":"LINEAR",
					"output":183
				},
				{
					"input":21,
					"interpolation":"LINEAR",
					"output":184
				},
				{
					"input":7,
					"interpolation":"STEP",
					"output":185
				},
				{
					"input":7,
					"interpolation":"LINEAR",
					"output":186
				},
				{
					"input":21,
					"interpolation":"LINEAR",
					"output":187
				},
				{
					"input":7,
					"interpolation":"STEP",
					"output":188
				},
				{
					"input":7,
					"interpolation":"LINEAR",
					"output":189
				},
				{
					"input":21,
					"interpolation":"LINEAR",
					"output":190
				},
				{
					"input":7,
					"interpolation":"LINEAR",
					"output":191
				},
				{
					"input":7,
					"interpolation":"LINEAR",
					"output":192
				},
				{
					"input":7,
					"interpolation":"LINEAR",
					"output":193
				},
				{
					"input":7,
					"interpolation":"LINEAR",
					"output":194
				},
				{
					"input":7,
					"interpolation":"STEP",
					"output":48
				},
				{
					"input":7,
					"interpolation":"STEP",
					"output":49
				},
				{
					"input":7,
					"interpolation":"STEP",
					"output":50
				},
				{
					"input":7,
					"interpolation":"STEP",
					"output":51
				},
				{
					"input":7,
					"interpolation":"STEP",
					"output":52
				},
				{
					"input":7,
					"interpolation":"STEP",
					"output":53
				},
				{
					"input":7,
					"interpolation":"STEP",
					"output":54
				},
				{
					"input":7,
					"interpolation":"STEP",
					"output":55
				},
				{
					"input":7,
					"interpolation":"STEP",
					"output":56
				},
				{
					"input":7,
					"interpolation":"STEP",
					"output":57
				},
				{
					"input":7,
					"interpolation":"STEP",
					"output":58
				},
				{
					"input":7,
					"interpolation":"STEP",
					"output":50
				},
				{
					"input":7,
					"interpolation":"STEP",
					"output":59
				},
				{
					"input":7,
					"interpolation":"STEP",
					"output":60
				},
				{
					"input":7,
					"interpolation":"STEP",
					"output":53
				},
				{
					"input":7,
					"interpolation":"STEP",
					"output":61
				},
				{
					"input":7,
					"interpolation":"STEP",
					"output":62
				},
				{
					"input":7,
					"interpolation":"STEP",
					"output":56
				}
			]
		}
	],
	"materials":[
		{
			"doubleSided":true,
			"name":"Common",
			"pbrMetallicRoughness":{
				"baseColorTexture":{
					"index":0
				},
				"metallicFactor":0,
				"roughnessFactor":0.5
			}
		}
	],
	"meshes":[
		{
			"name":"Cube",
			"primitives":[
				{
					"attributes":{
						"POSITION":0,
						"NORMAL":1,
						"TEXCOORD_0":2,
						"JOINTS_0":3,
						"WEIGHTS_0":4
					},
					"indices":5,
					"material":0
				}
			]
		}
	],
	"textures":[
		{
			"sampler":0,
			"source":0
		}
	],
	"images":[
		{
			"mimeType":"image/png",
			"name":"Common.png",
			"uri":"textures/Common.png"
		}
	],
	"skins":[
		{
			"inverseBindMatrices":6,
			"joints":[
				0,
				1,
				2,
				3,
				21,
				14,
				13,
				4,
				8,
				7,
				6,
				5,
				12,
				11,
				10,
				9,
				17,
				16,
				15,
				20,
				19,
				18
			],
			"name":"ShopemanArmature"
		}
	],
	"accessors":[
		{
			"bufferView":0,
			"componentType":5126,
			"count":548,
			"max":[
				0.9876841902732849,
				1.7305800914764404,
				0.25703829526901245
			],
			"min":[
				0,
				-0.00768223125487566,
				-0.1639385223388672
			],
			"type":"VEC3"
		},
		{
			"bufferView":1,
			"componentType":5126,
			"count":548,
			"type":"VEC3"
		},
		{
			"bufferView":2,
			"componentType":5126,
			"count":548,
			"type":"VEC2"
		},
		{
			"bufferView":3,
			"componentType":5121,
			"count":548,
			"type":"VEC4"
		},
		{
			"bufferView":4,
			"componentType":5126,
			"count":548,
			"type":"VEC4"
		},
		{
			"bufferView":5,
			"componentType":5123,
			"count":894,
			"type":"SCALAR"
		},
		{
			"bufferView":6,
			"componentType":5126,
			"count":22,
			"type":"MAT4"
		},
		{
			"bufferView":7,
			"componentType":5126,
			"count":2,
			"max":[
				1.7083333333333333
			],
			"min":[
				0.041666666666666664
			],
			"type":"SCALAR"
		},
		{
			"bufferView":8,
			"componentType":5126,
			"count":2,
			"type":"VEC3"
		},
		{
			"bufferView":9,
			"componentType":5126,
			"count":2,
			"type":"VEC4"
		},
		{
			"bufferView":10,
			"componentType":5126,
			"count":2,
			"type":"VEC3"
		},
		{
			"bufferView":11,
			"componentType":5126,
			"count":2,
			"type":"VEC3"
		},
		{
			"bufferView":12,
			"componentType":5126,
			"count":2,
			"type":"VEC4"
		},
		{
			"bufferView":13,
			"componentType":5126,
			"count":2,
			"type":"VEC3"
		},
		{
			"bufferView":14,
			"componentType":5126,
			"count":2,
			"type":"VEC4"
		},
		{
			"bufferView":15,
			"componentType":5126,
			"count":2,
			"type":"VEC3"
		},
		{
			"bufferView":16,
			"componentType":5126,
			"count":2,
			"type":"VEC3"
		},
		{
			"bufferView":17,
			"componentType":5126,
			"count":2,
			"type":"VEC4"
		},
		{
			"bufferView":18,
			"componentType":5126,
			"count":2,
			"type":"VEC3"
		},
		{
			"bufferView":19,
			"componentType":5126,
			"count":2,
			"type":"VEC4"
		},
		{
			"bufferView":20,
			"componentType":5126,
			"count":2,
			"type":"VEC3"
		},
		{
			"bufferView":21,
			"componentType":5126,
			"count":41,
			"max":[
				1.7083333333333333
			],
			"min":[
				0.041666666666666664
			],
			"type":"SCALAR"
		},
		{
			"bufferView":22,
			"componentType":5126,
			"count":41,
			"type":"VEC4"
		},
		{
			"bufferView":23,
			"componentType":5126,
			"count":2,
			"type":"VEC3"
		},
		{
			"bufferView":24,
			"componentType":5126,
			"count":2,
			"type":"VEC3"
		},
		{
			"bufferView":25,
			"componentType":5126,
			"count":41,
			"type":"VEC4"
		},
		{
			"bufferView":26,
			"componentType":5126,
			"count":2,
			"type":"VEC3"
		},
		{
			"bufferView":27,
			"componentType":5126,
			"count":2,
			"type":"VEC3"
		},
		{
			"bufferView":28,
			"componentType":5126,
			"count":41,
			"type":"VEC4"
		},
		{
			"bufferView":29,
			"componentType":5126,
			"count":2,
			"type":"VEC3"
		},
		{
			"bufferView":30,
			"componentType":5126,
			"count":2,
			"type":"VEC3"
		},
		{
			"bufferView":31,
			"componentType":5126,
			"count":2,
			"type":"VEC4"
		},
		{
			"bufferView":32,
			"componentType":5126,
			"count":2,
			"type":"VEC3"
		},
		{
			"bufferView":33,
			"componentType":5126,
			"count":2,
			"type":"VEC4"
		},
		{
			"bufferView":34,
			"componentType":5126,
			"count":2,
			"type":"VEC3"
		},
		{
			"bufferView":35,
			"componentType":5126,
			"count":2,
			"type":"VEC3"
		},
		{
			"bufferView":36,
			"componentType":5126,
			"count":2,
			"type":"VEC4"
		},
		{
			"bufferView":37,
			"componentType":5126,
			"count":2,
			"type":"VEC3"
		},
		{
			"bufferView":38,
			"componentType":5126,
			"count":2,
			"type":"VEC3"
		},
		{
			"bufferView":39,
			"componentType":5126,
			"count":41,
			"type":"VEC4"
		},
		{
			"bufferView":40,
			"componentType":5126,
			"count":2,
			"type":"VEC3"
		},
		{
			"bufferView":41,
			"componentType":5126,
			"count":2,
			"type":"VEC3"
		},
		{
			"bufferView":42,
			"componentType":5126,
			"count":41,
			"type":"VEC4"
		},
		{
			"bufferView":43,
			"componentType":5126,
			"count":2,
			"type":"VEC3"
		},
		{
			"bufferView":44,
			"componentType":5126,
			"count":2,
			"type":"VEC4"
		},
		{
			"bufferView":45,
			"componentType":5126,
			"count":2,
			"type":"VEC3"
		},
		{
			"bufferView":46,
			"componentType":5126,
			"count":2,
			"type":"VEC4"
		},
		{
			"bufferView":47,
			"componentType":5126,
			"count":2,
			"type":"VEC3"
		},
		{
			"bufferView":48,
			"componentType":5126,
			"count":2,
			"type":"VEC3"
		},
		{
			"bufferView":49,
			"componentType":5126,
			"count":2,
			"type":"VEC4"
		},
		{
			"bufferView":50,
			"componentType":5126,
			"count":2,
			"type":"VEC3"
		},
		{
			"bufferView":51,
			"componentType":5126,
			"count":2,
			"type":"VEC3"
		},
		{
			"bufferView":52,
			"componentType":5126,
			"count":2,
			"type":"VEC4"
		},
		{
			"bufferView":53,
			"componentType":5126,
			"count":2,
			"type":"VEC3"
		},
		{
			"bufferView":54,
			"componentType":5126,
			"count":2,
			"type":"VEC3"
		},
		{
			"bufferView":55,
			"componentType":5126,
			"count":2,
			"type":"VEC4"
		},
		{
			"bufferView":56,
			"componentType":5126,
			"count":2,
			"type":"VEC3"
		},
		{
			"bufferView":57,
			"componentType":5126,
			"count":2,
			"type":"VEC3"
		},
		{
			"bufferView":58,
			"componentType":5126,
			"count":2,
			"type":"VEC4"
		},
		{
			"bufferView":59,
			"componentType":5126,
			"count":2,
			"type":"VEC3"
		},
		{
			"bufferView":60,
			"componentType":5126,
			"count":2,
			"type":"VEC4"
		},
		{
			"bufferView":61,
			"componentType":5126,
			"count":2,
			"type":"VEC3"
		},
		{
			"bufferView":62,
			"componentType":5126,
			"count":2,
			"type":"VEC4"
		},
		{
			"bufferView":63,
			"componentType":5126,
			"count":2,
			"max":[
				0.16666666666666666
			],
			"min":[
				0.041666666666666664
			],
			"type":"SCALAR"
		},
		{
			"bufferView":64,
			"componentType":5126,
			"count":4,
			"max":[
				0.16666666666666666
			],
			"min":[
				0.041666666666666664
			],
			"type":"SCALAR"
		},
		{
			"bufferView":65,
			"componentType":5126,
			"count":4,
			"type":"VEC3"
		},
		{
			"bufferView":66,
			"componentType":5126,
			"count":4,
			"type":"VEC3"
		},
		{
			"bufferView":67,
			"componentType":5126,
			"count":4,
			"type":"VEC3"
		},
		{
			"bufferView":68,
			"componentType":5126,
			"count":2,
			"type":"VEC3"
		},
		{
			"bufferView":69,
			"componentType":5126,
			"count":4,
			"type":"VEC4"
		},
		{
			"bufferView":70,
			"componentType":5126,
			"count":2,
			"type":"VEC3"
		},
		{
			"bufferView":71,
			"componentType":5126,
			"count":4,
			"type":"VEC4"
		},
		{
			"bufferView":72,
			"componentType":5126,
			"count":2,
			"type":"VEC3"
		},
		{
			"bufferView":73,
			"componentType":5126,
			"count":2,
			"type":"VEC3"
		},
		{
			"bufferView":74,
			"componentType":5126,
			"count":4,
			"type":"VEC4"
		},
		{
			"bufferView":75,
			"componentType":5126,
			"count":2,
			"type":"VEC3"
		},
		{
			"bufferView":76,
			"componentType":5126,
			"count":2,
			"type":"VEC3"
		},
		{
			"bufferView":77,
			"componentType":5126,
			"count":4,
			"type":"VEC4"
		},
		{
			"bufferView":78,
			"componentType":5126,
			"count":2,
			"type":"VEC3"
		},
		{
			"bufferView":79,
			"componentType":5126,
			"count":2,
			"type":"VEC3"
		},
		{
			"bufferView":80,
			"componentType":5126,
			"count":4,
			"type":"VEC4"
		},
		{
			"bufferView":81,
			"componentType":5126,
			"count":2,
			"type":"VEC3"
		},
		{
			"bufferView":82,
			"componentType":5126,
			"count":2,
			"type":"VEC3"
		},
		{
			"bufferView":83,
			"componentType":5126,
			"count":4,
			"type":"VEC4"
		},
		{
			"bufferView":84,
			"componentType":5126,
			"count":2,
			"type":"VEC3"
		},
		{
			"bufferView":85,
			"componentType":5126,
			"count":2,
			"type":"VEC3"
		},
		{
			"bufferView":86,
			"componentType":5126,
			"count":2,
			"type":"VEC4"
		},
		{
			"bufferView":87,
			"componentType":5126,
			"count":2,
			"type":"VEC3"
		},
		{
			"bufferView":88,
			"componentType":5126,
			"count":2,
			"type":"VEC3"
		},
		{
			"bufferView":89,
			"componentType":5126,
			"count":4,
			"type":"VEC4"
		},
		{
			"bufferView":90,
			"componentType":5126,
			"count":2,
			"type":"VEC3"
		},
		{
			"bufferView":91,
			"componentType":5126,
			"count":2,
			"type":"VEC3"
		},
		{
			"bufferView":92,
			"componentType":5126,
			"count":4,
			"type":"VEC4"
		},
		{
			"bufferView":93,
			"componentType":5126,
			"count":2,
			"type":"VEC3"
		},
		{
			"bufferView":94,
			"componentType":5126,
			"count":2,
			"type":"VEC3"
		},
		{
			"bufferView":95,
			"componentType":5126,
			"count":4,
			"type":"VEC4"
		},
		{
			"bufferView":96,
			"componentType":5126,
			"count":2,
			"type":"VEC3"
		},
		{
			"bufferView":97,
			"componentType":5126,
			"count":2,
			"type":"VEC3"
		},
		{
			"bufferView":98,
			"componentType":5126,
			"count":2,
			"type":"VEC4"
		},
		{
			"bufferView":99,
			"componentType":5126,
			"count":2,
			"type":"VEC3"
		},
		{
			"bufferView":100,
			"componentType":5126,
			"count":2,
			"type":"VEC3"
		},
		{
			"bufferView":101,
			"componentType":5126,
			"count":4,
			"type":"VEC4"
		},
		{
			"bufferView":102,
			"componentType":5126,
			"count":2,
			"type":"VEC3"
		},
		{
			"bufferView":103,
			"componentType":5126,
			"count":2,
			"type":"VEC3"
		},
		{
			"bufferView":104,
			"componentType":5126,
			"count":4,
			"type":"VEC4"
		},
		{
			"bufferView":105,
			"componentType":5126,
			"count":2,
			"type":"VEC3"
		},
		{
			"bufferView":106,
			"componentType":5126,
			"count":2,
			"type":"VEC3"
		},
		{
			"bufferView":107,
			"componentType":5126,
			"count":4,
			"type":"VEC4"
		},
		{
			"bufferView":108,
			"componentType":5126,
			"count":2,
			"type":"VEC3"
		},
		{
			"bufferView":109,
			"componentType":5126,
			"count":2,
			"type":"VEC3"
		},
		{
			"bufferView":110,
			"componentType":5126,
			"count":4,
			"type":"VEC4"
		},
		{
			"bufferView":111,
			"componentType":5126,
			"count":2,
			"type":"VEC3"
		},
		{
			"bufferView":112,
			"componentType":5126,
			"count":2,
			"type":"VEC3"
		},
		{
			"bufferView":113,
			"componentType":5126,
			"count":4,
			"type":"VEC4"
		},
		{
			"bufferView":114,
			"componentType":5126,
			"count":2,
			"type":"VEC3"
		},
		{
			"bufferView":115,
			"componentType":5126,
			"count":2,
			"type":"VEC3"
		},
		{
			"bufferView":116,
			"componentType":5126,
			"count":4,
			"type":"VEC4"
		},
		{
			"bufferView":117,
			"componentType":5126,
			"count":2,
			"type":"VEC3"
		},
		{
			"bufferView":118,
			"componentType":5126,
			"count":41,
			"type":"VEC3"
		},
		{
			"bufferView":119,
			"componentType":5126,
			"count":41,
			"type":"VEC4"
		},
		{
			"bufferView":120,
			"componentType":5126,
			"count":2,
			"type":"VEC3"
		},
		{
			"bufferView":121,
			"componentType":5126,
			"count":41,
			"type":"VEC3"
		},
		{
			"bufferView":122,
			"componentType":5126,
			"count":41,
			"type":"VEC4"
		},
		{
			"bufferView":123,
			"componentType":5126,
			"count":41,
			"type":"VEC3"
		},
		{
			"bufferView":124,
			"componentType":5126,
			"count":2,
			"type":"VEC3"
		},
		{
			"bufferView":125,
			"componentType":5126,
			"count":2,
			"type":"VEC3"
		},
		{
			"bufferView":126,
			"componentType":5126,
			"count":41,
			"type":"VEC4"
		},
		{
			"bufferView":127,
			"componentType":5126,
			"count":2,
			"type":"VEC3"
		},
		{
			"bufferView":128,
			"componentType":5126,
			"count":2,
			"type":"VEC4"
		},
		{
			"bufferView":129,
			"componentType":5126,
			"count":2,
			"type":"VEC3"
		},
		{
			"bufferView":130,
			"componentType":5126,
			"count":2,
			"type":"VEC4"
		},
		{
			"bufferView":131,
			"componentType":5126,
			"count":2,
			"type":"VEC3"
		},
		{
			"bufferView":132,
			"componentType":5126,
			"count":41,
			"type":"VEC4"
		},
		{
			"bufferView":133,
			"componentType":5126,
			"count":2,
			"type":"VEC3"
		},
		{
			"bufferView":134,
			"componentType":5126,
			"count":41,
			"type":"VEC4"
		},
		{
			"bufferView":135,
			"componentType":5126,
			"count":2,
			"type":"VEC3"
		},
		{
			"bufferView":136,
			"componentType":5126,
			"count":2,
			"type":"VEC3"
		},
		{
			"bufferView":137,
			"componentType":5126,
			"count":2,
			"type":"VEC4"
		},
		{
			"bufferView":138,
			"componentType":5126,
			"count":2,
			"type":"VEC3"
		},
		{
			"bufferView":139,
			"componentType":5126,
			"count":2,
			"type":"VEC3"
		},
		{
			"bufferView":140,
			"componentType":5126,
			"count":2,
			"type":"VEC4"
		},
		{
			"bufferView":141,
			"componentType":5126,
			"count":2,
			"type":"VEC3"
		},
		{
			"bufferView":142,
			"componentType":5126,
			"count":41,
			"type":"VEC4"
		},
		{
			"bufferView":143,
			"componentType":5126,
			"count":2,
			"type":"VEC3"
		},
		{
			"bufferView":144,
			"componentType":5126,
			"count":2,
			"type":"VEC3"
		},
		{
			"bufferView":145,
			"componentType":5126,
			"count":41,
			"type":"VEC4"
		},
		{
			"bufferView":146,
			"componentType":5126,
			"count":2,
			"type":"VEC3"
		},
		{
			"bufferView":147,
			"componentType":5126,
			"count":2,
			"type":"VEC3"
		},
		{
			"bufferView":148,
			"componentType":5126,
			"count":2,
			"type":"VEC4"
		},
		{
			"bufferView":149,
			"componentType":5126,
			"count":2,
			"type":"VEC3"
		},
		{
			"bufferView":150,
			"componentType":5126,
			"count":2,
			"type":"VEC3"
		},
		{
			"bufferView":151,
			"componentType":5126,
			"count":41,
			"type":"VEC4"
		},
		{
			"bufferView":152,
			"componentType":5126,
			"count":2,
			"type":"VEC3"
		},
		{
			"bufferView":153,
			"componentType":5126,
			"count":2,
			"type":"VEC3"
		},
		{
			"bufferView":154,
			"componentType":5126,
			"count":41,
			"type":"VEC4"
		},
		{
			"bufferView":155,
			"componentType":5126,
			"count":2,
			"type":"VEC3"
		},
		{
			"bufferView":156,
			"componentType":5126,
			"count":2,
			"type":"VEC3"
		},
		{
			"bufferView":157,
			"componentType":5126,
			"count":41,
			"type":"VEC4"
		},
		{
			"bufferView":158,
			"componentType":5126,
			"count":2,
			"type":"VEC3"
		},
		{
			"bufferView":159,
			"componentType":5126,
			"count":2,
			"type":"VEC3"
		},
		{
			"bufferView":160,
			"componentType":5126,
			"count":41,
			"type":"VEC4"
		},
		{
			"bufferView":161,
			"componentType":5126,
			"count":2,
			"type":"VEC3"
		},
		{
			"bufferView":162,
			"componentType":5126,
			"count":2,
			"type":"VEC3"
		},
		{
			"bufferView":163,
			"componentType":5126,
			"count":41,
			"type":"VEC4"
		},
		{
			"bufferView":164,
			"componentType":5126,
			"count":2,
			"type":"VEC3"
		},
		{
			"bufferView":165,
			"componentType":5126,
			"count":2,
			"type":"VEC3"
		},
		{
			"bufferView":166,
			"componentType":5126,
			"count":41,
			"type":"VEC4"
		},
		{
			"bufferView":167,
			"componentType":5126,
			"count":2,
			"type":"VEC3"
		},
		{
			"bufferView":168,
			"componentType":5126,
			"count":41,
			"type":"VEC4"
		},
		{
			"bufferView":169,
			"componentType":5126,
			"count":2,
			"type":"VEC3"
		},
		{
			"bufferView":170,
			"componentType":5126,
			"count":2,
			"type":"VEC3"
		},
		{
			"bufferView":171,
			"componentType":5126,
			"count":2,
			"type":"VEC4"
		},
		{
			"bufferView":172,
			"componentType":5126,
			"count":2,
			"type":"VEC3"
		},
		{
			"bufferView":173,
			"componentType":5126,
			"count":2,
			"type":"VEC3"
		},
		{
			"bufferView":174,
			"componentType":5126,
			"count":41,
			"type":"VEC4"
		},
		{
			"bufferView":175,
			"componentType":5126,
			"count":2,
			"type":"VEC3"
		},
		{
			"bufferView":176,
			"componentType":5126,
			"count":2,
			"type":"VEC3"
		},
		{
			"bufferView":177,
			"componentType":5126,
			"count":41,
			"type":"VEC4"
		},
		{
			"bufferView":178,
			"componentType":5126,
			"count":2,
			"type":"VEC3"
		},
		{
			"bufferView":179,
			"componentType":5126,
			"count":41,
			"type":"VEC4"
		},
		{
			"bufferView":180,
			"componentType":5126,
			"count":2,
			"type":"VEC3"
		},
		{
			"bufferView":181,
			"componentType":5126,
			"count":2,
			"type":"VEC3"
		},
		{
			"bufferView":182,
			"componentType":5126,
			"count":2,
			"type":"VEC4"
		},
		{
			"bufferView":183,
			"componentType":5126,
			"count":2,
			"type":"VEC3"
		},
		{
			"bufferView":184,
			"componentType":5126,
			"count":41,
			"type":"VEC4"
		},
		{
			"bufferView":185,
			"componentType":5126,
			"count":2,
			"type":"VEC3"
		},
		{
			"bufferView":186,
			"componentType":5126,
			"count":2,
			"type":"VEC3"
		},
		{
			"bufferView":187,
			"componentType":5126,
			"count":41,
			"type":"VEC4"
		},
		{
			"bufferView":188,
			"componentType":5126,
			"count":2,
			"type":"VEC3"
		},
		{
			"bufferView":189,
			"componentType":5126,
			"count":2,
			"type":"VEC3"
		},
		{
			"bufferView":190,
			"componentType":5126,
			"count":41,
			"type":"VEC4"
		},
		{
			"bufferView":191,
			"componentType":5126,
			"count":2,
			"type":"VEC3"
		},
		{
			"bufferView":192,
			"componentType":5126,
			"count":2,
			"type":"VEC3"
		},
		{
			"bufferView":193,
			"componentType":5126,
			"count":2,
			"type":"VEC4"
		},
		{
			"bufferView":194,
			"componentType":5126,
			"count":2,
			"type":"VEC3"
		}
	],
	"bufferViews":[
		{
			"buffer":0,
			"byteLength":6576,
			"byteOffset":0,
			"target":34962
		},
		{
			"buffer":0,
			"byteLength":6576,
			"byteOffset":6576,
			"target":34962
		},
		{
			"buffer":0,
			"byteLength":4384,
			"byteOffset":13152,
			"target":34962
		},
		{
			"buffer":0,
			"byteLength":2192,
			"byteOffset":17536,
			"target":34962
		},
		{
			"buffer":0,
			"byteLength":8768,
			"byteOffset":19728,
			"target":34962
		},
		{
			"buffer":0,
			"byteLength":1788,
			"byteOffset":28496,
			"target":34963
		},
		{
			"buffer":0,
			"byteLength":1408,
			"byteOffset":30284
		},
		{
			"buffer":0,
			"byteLength":8,
			"byteOffset":31692
		},
		{
			"buffer":0,
			"byteLength":24,
			"byteOffset":31700
		},
		{
			"buffer":0,
			"byteLength":32,
			"byteOffset":31724
		},
		{
			"buffer":0,
			"byteLength":24,
			"byteOffset":31756
		},
		{
			"buffer":0,
			"byteLength":24,
			"byteOffset":31780
		},
		{
			"buffer":0,
			"byteLength":32,
			"byteOffset":31804
		},
		{
			"buffer":0,
			"byteLength":24,
			"byteOffset":31836
		},
		{
			"buffer":0,
			"byteLength":32,
			"byteOffset":31860
		},
		{
			"buffer":0,
			"byteLength":24,
			"byteOffset":31892
		},
		{
			"buffer":0,
			"byteLength":24,
			"byteOffset":31916
		},
		{
			"buffer":0,
			"byteLength":32,
			"byteOffset":31940
		},
		{
			"buffer":0,
			"byteLength":24,
			"byteOffset":31972
		},
		{
			"buffer":0,
			"byteLength":32,
			"byteOffset":31996
		},
		{
			"buffer":0,
			"byteLength":24,
			"byteOffset":32028
		},
		{
			"buffer":0,
			"byteLength":164,
			"byteOffset":32052
		},
		{
			"buffer":0,
			"byteLength":656,
			"byteOffset":32216
		},
		{
			"buffer":0,
			"byteLength":24,
			"byteOffset":32872
		},
		{
			"buffer":0,
			"byteLength":24,
			"byteOffset":32896
		},
		{
			"buffer":0,
			"byteLength":656,
			"byteOffset":32920
		},
		{
			"buffer":0,
			"byteLength":24,
			"byteOffset":33576
		},
		{
			"buffer":0,
			"byteLength":24,
			"byteOffset":33600
		},
		{
			"buffer":0,
			"byteLength":656,
			"byteOffset":33624
		},
		{
			"buffer":0,
			"byteLength":24,
			"byteOffset":34280
		},
		{
			"buffer":0,
			"byteLength":24,
			"byteOffset":34304
		},
		{
			"buffer":0,
			"byteLength":32,
			"byteOffset":34328
		},
		{
			"buffer":0,
			"byteLength":24,
			"byteOffset":34360
		},
		{
			"buffer":0,
			"byteLength":32,
			"byteOffset":34384
		},
		{
			"buffer":0,
			"byteLength":24,
			"byteOffset":34416
		},
		{
			"buffer":0,
			"byteLength":24,
			"byteOffset":34440
		},
		{
			"buffer":0,
			"byteLength":32,
			"byteOffset":34464
		},
		{
			"buffer":0,
			"byteLength":24,
			"byteOffset":34496
		},
		{
			"buffer":0,
			"byteLength":24,
			"byteOffset":34520
		},
		{
			"buffer":0,
			"byteLength":656,
			"byteOffset":34544
		},
		{
			"buffer":0,
			"byteLength":24,
			"byteOffset":35200
		},
		{
			"buffer":0,
			"byteLength":24,
			"byteOffset":35224
		},
		{
			"buffer":0,
			"byteLength":656,
			"byteOffset":35248
		},
		{
			"buffer":0,
			"byteLength":24,
			"byteOffset":35904
		},
		{
			"buffer":0,
			"byteLength":32,
			"byteOffset":35928
		},
		{
			"buffer":0,
			"byteLength":24,
			"byteOffset":35960
		},
		{
			"buffer":0,
			"byteLength":32,
			"byteOffset":35984
		},
		{
			"buffer":0,
			"byteLength":24,
			"byteOffset":36016
		},
		{
			"buffer":0,
			"byteLength":24,
			"byteOffset":36040
		},
		{
			"buffer":0,
			"byteLength":32,
			"byteOffset":36064
		},
		{
			"buffer":0,
			"byteLength":24,
			"byteOffset":36096
		},
		{
			"buffer":0,
			"byteLength":24,
			"byteOffset":36120
		},
		{
			"buffer":0,
			"byteLength":32,
			"byteOffset":36144
		},
		{
			"buffer":0,
			"byteLength":24,
			"byteOffset":36176
		},
		{
			"buffer":0,
			"byteLength":24,
			"byteOffset":36200
		},
		{
			"buffer":0,
			"byteLength":32,
			"byteOffset":36224
		},
		{
			"buffer":0,
			"byteLength":24,
			"byteOffset":36256
		},
		{
			"buffer":0,
			"byteLength":24,
			"byteOffset":36280
		},
		{
			"buffer":0,
			"byteLength":32,
			"byteOffset":36304
		},
		{
			"buffer":0,
			"byteLength":24,
			"byteOffset":36336
		},
		{
			"buffer":0,
			"byteLength":32,
			"byteOffset":36360
		},
		{
			"buffer":0,
			"byteLength":24,
			"byteOffset":36392
		},
		{
			"buffer":0,
			"byteLength":32,
			"byteOffset":36416
		},
		{
			"buffer":0,
			"byteLength":8,
			"byteOffset":36448
		},
		{
			"buffer":0,
			"byteLength":16,
			"byteOffset":36456
		},
		{
			"buffer":0,
			"byteLength":48,
			"byteOffset":36472
		},
		{
			"buffer":0,
			"byteLength":48,
			"byteOffset":36520
		},
		{
			"buffer":0,
			"byteLength":48,
			"byteOffset":36568
		},
		{
			"buffer":0,
			"byteLength":24,
			"byteOffset":36616
		},
		{
			"buffer":0,
			"byteLength":64,
			"byteOffset":36640
		},
		{
			"buffer":0,
			"byteLength":24,
			"byteOffset":36704
		},
		{
			"buffer":0,
			"byteLength":64,
			"byteOffset":36728
		},
		{
			"buffer":0,
			"byteLength":24,
			"byteOffset":36792
		},
		{
			"buffer":0,
			"byteLength":24,
			"byteOffset":36816
		},
		{
			"buffer":0,
			"byteLength":64,
			"byteOffset":36840
		},
		{
			"buffer":0,
			"byteLength":24,
			"byteOffset":36904
		},
		{
			"buffer":0,
			"byteLength":24,
			"byteOffset":36928
		},
		{
			"buffer":0,
			"byteLength":64,
			"byteOffset":36952
		},
		{
			"buffer":0,
			"byteLength":24,
			"byteOffset":37016
		},
		{
			"buffer":0,
			"byteLength":24,
			"byteOffset":37040
		},
		{
			"buffer":0,
			"byteLength":64,
			"byteOffset":37064
		},
		{
			"buffer":0,
			"byteLength":24,
			"byteOffset":37128
		},
		{
			"buffer":0,
			"byteLength":24,
			"byteOffset":37152
		},
		{
			"buffer":0,
			"byteLength":64,
			"byteOffset":37176
		},
		{
			"buffer":0,
			"byteLength":24,
			"byteOffset":37240
		},
		{
			"buffer":0,
			"byteLength":24,
			"byteOffset":37264
		},
		{
			"buffer":0,
			"byteLength":32,
			"byteOffset":37288
		},
		{
			"buffer":0,
			"byteLength":24,
			"byteOffset":37320
		},
		{
			"buffer":0,
			"byteLength":24,
			"byteOffset":37344
		},
		{
			"buffer":0,
			"byteLength":64,
			"byteOffset":37368
		},
		{
			"buffer":0,
			"byteLength":24,
			"byteOffset":37432
		},
		{
			"buffer":0,
			"byteLength":24,
			"byteOffset":37456
		},
		{
			"buffer":0,
			"byteLength":64,
			"byteOffset":37480
		},
		{
			"buffer":0,
			"byteLength":24,
			"byteOffset":37544
		},
		{
			"buffer":0,
			"byteLength":24,
			"byteOffset":37568
		},
		{
			"buffer":0,
			"byteLength":64,
			"byteOffset":37592
		},
		{
			"buffer":0,
			"byteLength":24,
			"byteOffset":37656
		},
		{
			"buffer":0,
			"byteLength":24,
			"byteOffset":37680
		},
		{
			"buffer":0,
			"byteLength":32,
			"byteOffset":37704
		},
		{
			"buffer":0,
			"byteLength":24,
			"byteOffset":37736
		},
		{
			"buffer":0,
			"byteLength":24,
			"byteOffset":37760
		},
		{
			"buffer":0,
			"byteLength":64,
			"byteOffset":37784
		},
		{
			"buffer":0,
			"byteLength":24,
			"byteOffset":37848
		},
		{
			"buffer":0,
			"byteLength":24,
			"byteOffset":37872
		},
		{
			"buffer":0,
			"byteLength":64,
			"byteOffset":37896
		},
		{
			"buffer":0,
			"byteLength":24,
			"byteOffset":37960
		},
		{
			"buffer":0,
			"byteLength":24,
			"byteOffset":37984
		},
		{
			"buffer":0,
			"byteLength":64,
			"byteOffset":38008
		},
		{
			"buffer":0,
			"byteLength":24,
			"byteOffset":38072
		},
		{
			"buffer":0,
			"byteLength":24,
			"byteOffset":38096
		},
		{
			"buffer":0,
			"byteLength":64,
			"byteOffset":38120
		},
		{
			"buffer":0,
			"byteLength":24,
			"byteOffset":38184
		},
		{
			"buffer":0,
			"byteLength":24,
			"byteOffset":38208
		},
		{
			"buffer":0,
			"byteLength":64,
			"byteOffset":38232
		},
		{
			"buffer":0,
			"byteLength":24,
			"byteOffset":38296
		},
		{
			"buffer":0,
			"byteLength":24,
			"byteOffset":38320
		},
		{
			"buffer":0,
			"byteLength":64,
			"byteOffset":38344
		},
		{
			"buffer":0,
			"byteLength":24,
			"byteOffset":38408
		},
		{
			"buffer":0,
			"byteLength":492,
			"byteOffset":38432
		},
		{
			"buffer":0,
			"byteLength":656,
			"byteOffset":38924
		},
		{
			"buffer":0,
			"byteLength":24,
			"byteOffset":39580
		},
		{
			"buffer":0,
			"byteLength":492,
			"byteOffset":39604
		},
		{
			"buffer":0,
			"byteLength":656,
			"byteOffset":40096
		},
		{
			"buffer":0,
			"byteLength":492,
			"byteOffset":40752
		},
		{
			"buffer":0,
			"byteLength":24,
			"byteOffset":41244
		},
		{
			"buffer":0,
			"byteLength":24,
			"byteOffset":41268
		},
		{
			"buffer":0,
			"byteLength":656,
			"byteOffset":41292
		},
		{
			"buffer":0,
			"byteLength":24,
			"byteOffset":41948
		},
		{
			"buffer":0,
			"byteLength":32,
			"byteOffset":41972
		},
		{
			"buffer":0,
			"byteLength":24,
			"byteOffset":42004
		},
		{
			"buffer":0,
			"byteLength":32,
			"byteOffset":42028
		},
		{
			"buffer":0,
			"byteLength":24,
			"byteOffset":42060
		},
		{
			"buffer":0,
			"byteLength":656,
			"byteOffset":42084
		},
		{
			"buffer":0,
			"byteLength":24,
			"byteOffset":42740
		},
		{
			"buffer":0,
			"byteLength":656,
			"byteOffset":42764
		},
		{
			"buffer":0,
			"byteLength":24,
			"byteOffset":43420
		},
		{
			"buffer":0,
			"byteLength":24,
			"byteOffset":43444
		},
		{
			"buffer":0,
			"byteLength":32,
			"byteOffset":43468
		},
		{
			"buffer":0,
			"byteLength":24,
			"byteOffset":43500
		},
		{
			"buffer":0,
			"byteLength":24,
			"byteOffset":43524
		},
		{
			"buffer":0,
			"byteLength":32,
			"byteOffset":43548
		},
		{
			"buffer":0,
			"byteLength":24,
			"byteOffset":43580
		},
		{
			"buffer":0,
			"byteLength":656,
			"byteOffset":43604
		},
		{
			"buffer":0,
			"byteLength":24,
			"byteOffset":44260
		},
		{
			"buffer":0,
			"byteLength":24,
			"byteOffset":44284
		},
		{
			"buffer":0,
			"byteLength":656,
			"byteOffset":44308
		},
		{
			"buffer":0,
			"byteLength":24,
			"byteOffset":44964
		},
		{
			"buffer":0,
			"byteLength":24,
			"byteOffset":44988
		},
		{
			"buffer":0,
			"byteLength":32,
			"byteOffset":45012
		},
		{
			"buffer":0,
			"byteLength":24,
			"byteOffset":45044
		},
		{
			"buffer":0,
			"byteLength":24,
			"byteOffset":45068
		},
		{
			"buffer":0,
			"byteLength":656,
			"byteOffset":45092
		},
		{
			"buffer":0,
			"byteLength":24,
			"byteOffset":45748
		},
		{
			"buffer":0,
			"byteLength":24,
			"byteOffset":45772
		},
		{
			"buffer":0,
			"byteLength":656,
			"byteOffset":45796
		},
		{
			"buffer":0,
			"byteLength":24,
			"byteOffset":46452
		},
		{
			"buffer":0,
			"byteLength":24,
			"byteOffset":46476
		},
		{
			"buffer":0,
			"byteLength":656,
			"byteOffset":46500
		},
		{
			"buffer":0,
			"byteLength":24,
			"byteOffset":47156
		},
		{
			"buffer":0,
			"byteLength":24,
			"byteOffset":47180
		},
		{
			"buffer":0,
			"byteLength":656,
			"byteOffset":47204
		},
		{
			"buffer":0,
			"byteLength":24,
			"byteOffset":47860
		},
		{
			"buffer":0,
			"byteLength":24,
			"byteOffset":47884
		},
		{
			"buffer":0,
			"byteLength":656,
			"byteOffset":47908
		},
		{
			"buffer":0,
			"byteLength":24,
			"byteOffset":48564
		},
		{
			"buffer":0,
			"byteLength":24,
			"byteOffset":48588
		},
		{
			"buffer":0,
			"byteLength":656,
			"byteOffset":48612
		},
		{
			"buffer":0,
			"byteLength":24,
			"byteOffset":49268
		},
		{
			"buffer":0,
			"byteLength":656,
			"byteOffset":49292
		},
		{
			"buffer":0,
			"byteLength":24,
			"byteOffset":49948
		},
		{
			"buffer":0,
			"byteLength":24,
			"byteOffset":49972
		},
		{
			"buffer":0,
			"byteLength":32,
			"byteOffset":49996
		},
		{
			"buffer":0,
			"byteLength":24,
			"byteOffset":50028
		},
		{
			"buffer":0,
			"byteLength":24,
			"byteOffset":50052
		},
		{
			"buffer":0,
			"byteLength":656,
			"byteOffset":50076
		},
		{
			"buffer":0,
			"byteLength":24,
			"byteOffset":50732
		},
		{
			"buffer":0,
			"byteLength":24,
			"byteOffset":50756
		},
		{
			"buffer":0,
			"byteLength":656,
			"byteOffset":50780
		},
		{
			"buffer":0,
			"byteLength":24,
			"byteOffset":51436
		},
		{
			"buffer":0,
			"byteLength":656,
			"byteOffset":51460
		},
		{
			"buffer":0,
			"byteLength":24,
			"byteOffset":52116
		},
		{
			"buffer":0,
			"byteLength":24,
			"byteOffset":52140
		},
		{
			"buffer":0,
			"byteLength":32,
			"byteOffset":52164
		},
		{
			"buffer":0,
			"byteLength":24,
			"byteOffset":52196
		},
		{
			"buffer":0,
			"byteLength":656,
			"byteOffset":52220
		},
		{
			"buffer":0,
			"byteLength":24,
			"byteOffset":52876
		},
		{
			"buffer":0,
			"byteLength":24,
			"byteOffset":52900
		},
		{
			"buffer":0,
			"byteLength":656,
			"byteOffset":52924
		},
		{
			"buffer":0,
			"byteLength":24,
			"byteOffset":53580
		},
		{
			"buffer":0,
			"byteLength":24,
			"byteOffset":53604
		},
		{
			"buffer":0,
			"byteLength":656,
			"byteOffset":53628
		},
		{
			"buffer":0,
			"byteLength":24,
			"byteOffset":54284
		},
		{
			"buffer":0,
			"byteLength":24,
			"byteOffset":54308
		},
		{
			"buffer":0,
			"byteLength":32,
			"byteOffset":54332
		},
		{
			"buffer":0,
			"byteLength":24,
			"byteOffset":54364
		}
	],
	"samplers":[
		{
			"magFilter":9729,
			"minFilter":9987
		}
	],
	"buffers":[
		{
			"byteLength":54388,
			"uri":"Shopman.bin"
		}
	]
}
