{
	"asset":{
		"generator":"Khronos glTF Blender I/O v5.2.39",
		"version":"2.0"
	},
	"scene":0,
	"scenes":[
		{
			"name":"Scene",
			"nodes":[
				0,
				1,
				2,
				3,
				4,
				5,
				6,
				7,
				8,
				9,
				10,
				11,
				12,
				13,
				14,
				15,
				16,
				17,
				18,
				19,
				20,
				21,
				22,
				23,
				24,
				25,
				26,
				27,
				28,
				29,
				30,
				31,
				32,
				33,
				34,
				35,
				36,
				37,
				38,
				39
			]
		}
	],
	"nodes":[
		{
			"mesh":0,
			"name":"Plane"
		},
		{
			"mesh":1,
			"name":"Plane.001"
		},
		{
			"mesh":2,
			"name":"Plane.002"
		},
		{
			"mesh":3,
			"name":"Plane.003"
		},
		{
			"mesh":4,
			"name":"Plane.004"
		},
		{
			"mesh":5,
			"name":"Plane.005"
		},
		{
			"mesh":6,
			"name":"Plane.006"
		},
		{
			"mesh":7,
			"name":"Plane.007"
		},
		{
			"mesh":8,
			"name":"Plane.008"
		},
		{
			"mesh":9,
			"name":"Plane.009"
		},
		{
			"mesh":10,
			"name":"Plane.010",
			"scale":[
				0.909091055393219,
				0.909091055393219,
				0.909091055393219
			],
			"translation":[
				-6.137521743774414,
				2.1104202270507812,
				1.3809860944747925
			]
		},
		{
			"mesh":11,
			"name":"Plane.011",
			"rotation":[
				0,
				-0.7071068286895752,
				0,
				0.7071067690849304
			],
			"scale":[
				0.8967849016189575,
				0.8967849016189575,
				0.8967849016189575
			],
			"translation":[
				-7.386122703552246,
				2.1104202270507812,
				1.1743429899215698
			]
		},
		{
			"mesh":12,
			"name":"Plane.012",
			"scale":[
				0.909091055393219,
				0.909091055393219,
				0.909091055393219
			],
			"translation":[
				-6.082714080810547,
				1.4723687171936035,
				1.3809860944747925
			]
		},
		{
			"mesh":13,
			"name":"Plane.013",
			"rotation":[
				0,
				-0.7071068286895752,
				0,
				0.7071067690849304
			],
			"scale":[
				0.8967849016189575,
				0.8967849016189575,
				0.8967849016189575
			],
			"translation":[
				-7.386122703552246,
				1.4348030090332031,
				1.1743429899215698
			]
		},
		{
			"mesh":14,
			"name":"Plane.014",
			"scale":[
				0.909091055393219,
				0.909091055393219,
				0.909091055393219
			],
			"translation":[
				-6.137521743774414,
				0.8206541538238525,
				1.3809860944747925
			]
		},
		{
			"mesh":15,
			"name":"Plane.015",
			"rotation":[
				0,
				-0.7071068286895752,
				0,
				0.7071067690849304
			],
			"scale":[
				0.8967849016189575,
				0.8967849016189575,
				0.8967849016189575
			],
			"translation":[
				-7.386122703552246,
				0.7830884456634521,
				1.1743429899215698
			]
		},
		{
			"mesh":16,
			"name":"Plane.016",
			"scale":[
				0.909091055393219,
				0.909091055393219,
				0.909091055393219
			],
			"translation":[
				-6.137521743774414,
				0.23110011219978333,
				1.3809860944747925
			]
		},
		{
			"mesh":17,
			"name":"Plane.017",
			"rotation":[
				0,
				-0.7071068286895752,
				0,
				0.7071067690849304
			],
			"scale":[
				0.8967849016189575,
				0.8967849016189575,
				0.8967849016189575
			],
			"translation":[
				-7.386122703552246,
				0.19353440403938293,
				1.1743429899215698
			]
		},
		{
			"mesh":18,
			"name":"Plane.018",
			"scale":[
				0.909091055393219,
				0.909091055393219,
				0.909091055393219
			],
			"translation":[
				0.4575819969177246,
				2.1104202270507812,
				2.7861459255218506
			]
		},
		{
			"mesh":19,
			"name":"Plane.019",
			"rotation":[
				0,
				-0.7071068286895752,
				0,
				0.7071067690849304
			],
			"scale":[
				0.8967849016189575,
				0.8967849016189575,
				0.8967849016189575
			],
			"translation":[
				-0.7910189628601074,
				2.1104202270507812,
				2.5164566040039062
			]
		},
		{
			"mesh":20,
			"name":"Plane.020",
			"scale":[
				0.909091055393219,
				0.909091055393219,
				0.909091055393219
			],
			"translation":[
				0.4575819969177246,
				1.4723687171936035,
				2.7861459255218506
			]
		},
		{
			"mesh":21,
			"name":"Plane.021",
			"rotation":[
				0,
				-0.7071068286895752,
				0,
				0.7071067690849304
			],
			"scale":[
				0.8967849016189575,
				0.8967849016189575,
				0.8967849016189575
			],
			"translation":[
				-0.7910189628601074,
				1.4348030090332031,
				2.5507655143737793
			]
		},
		{
			"mesh":22,
			"name":"Plane.022",
			"scale":[
				0.909091055393219,
				0.909091055393219,
				0.909091055393219
			],
			"translation":[
				0.4575819969177246,
				0.8206541538238525,
				2.7861459255218506
			]
		},
		{
			"mesh":23,
			"name":"Plane.023",
			"rotation":[
				0,
				-0.7071068286895752,
				0,
				0.7071067690849304
			],
			"scale":[
				0.8967849016189575,
				0.8967849016189575,
				0.8967849016189575
			],
			"translation":[
				-0.7910189628601074,
				0.7830884456634521,
				2.5141923427581787
			]
		},
		{
			"mesh":24,
			"name":"Plane.024",
			"scale":[
				0.909091055393219,
				0.909091055393219,
				0.909091055393219
			],
			"translation":[
				0.4575819969177246,
				0.23110011219978333,
				2.7861459255218506
			]
		},
		{
			"mesh":25,
			"name":"Plane.025",
			"rotation":[
				0,
				-0.7071068286895752,
				0,
				0.7071067690849304
			],
			"scale":[
				0.8967849016189575,
				0.8967849016189575,
				0.8967849016189575
			],
			"translation":[
				-0.7910189628601074,
				0.19353440403938293,
				2.5735769271850586
			]
		},
		{
			"mesh":26,
			"name":"Plane.026",
			"scale":[
				0.909091055393219,
				0.909091055393219,
				0.909091055393219
			],
			"translation":[
				5.943504810333252,
				2.1104202270507812,
				3.3878278732299805
			]
		},
		{
			"mesh":27,
			"name":"Plane.027",
			"rotation":[
				0,
				-0.7071068286895752,
				0,
				0.7071067690849304
			],
			"scale":[
				0.8967849016189575,
				0.8967849016189575,
				0.8967849016189575
			],
			"translation":[
				4.69490385055542,
				2.1104202270507812,
				3.118138313293457
			]
		},
		{
			"mesh":28,
			"name":"Plane.028",
			"scale":[
				0.909091055393219,
				0.909091055393219,
				0.909091055393219
			],
			"translation":[
				5.943504810333252,
				1.4723687171936035,
				3.3878278732299805
			]
		},
		{
			"mesh":29,
			"name":"Plane.029",
			"rotation":[
				0,
				-0.7071068286895752,
				0,
				0.7071067690849304
			],
			"scale":[
				0.8967849016189575,
				0.8967849016189575,
				0.8967849016189575
			],
			"translation":[
				4.69490385055542,
				1.4348030090332031,
				3.15244722366333
			]
		},
		{
			"mesh":30,
			"name":"Plane.030",
			"scale":[
				0.909091055393219,
				0.909091055393219,
				0.909091055393219
			],
			"translation":[
				5.943504810333252,
				0.8206541538238525,
				3.3878278732299805
			]
		},
		{
			"mesh":31,
			"name":"Plane.031",
			"rotation":[
				0,
				-0.7071068286895752,
				0,
				0.7071067690849304
			],
			"scale":[
				0.8967849016189575,
				0.8967849016189575,
				0.8967849016189575
			],
			"translation":[
				4.69490385055542,
				0.7830884456634521,
				3.1158742904663086
			]
		},
		{
			"mesh":32,
			"name":"Plane.032",
			"scale":[
				0.909091055393219,
				0.909091055393219,
				0.909091055393219
			],
			"translation":[
				5.943504810333252,
				0.23110011219978333,
				3.3878278732299805
			]
		},
		{
			"mesh":33,
			"name":"Plane.033",
			"rotation":[
				0,
				-0.7071068286895752,
				0,
				0.7071067690849304
			],
			"scale":[
				0.8967849016189575,
				0.8967849016189575,
				0.8967849016189575
			],
			"translation":[
				4.69490385055542,
				0.19353440403938293,
				3.1752586364746094
			]
		},
		{
			"mesh":34,
			"name":"Plane.034",
			"scale":[
				0.8341401815414429,
				0.8341401815414429,
				0.8341401815414429
			],
			"translation":[
				-2.6574878692626953,
				1.7448160648345947,
				-2.9919919967651367
			]
		},
		{
			"mesh":35,
			"name":"Plane.035",
			"scale":[
				0.8341401815414429,
				0.8341401815414429,
				0.8341401815414429
			],
			"translation":[
				2.200221061706543,
				1.7448160648345947,
				-2.9919919967651367
			]
		},
		{
			"mesh":36,
			"name":"Plane.036",
			"scale":[
				0.8341401815414429,
				0.8341401815414429,
				0.8341401815414429
			],
			"translation":[
				6.92068338394165,
				1.7448160648345947,
				-2.9919919967651367
			]
		},
		{
			"mesh":37,
			"name":"Plane.037",
			"rotation":[
				0,
				0.7071068286895752,
				0,
				0.7071068286895752
			],
			"scale":[
				0.8341401815414429,
				0.8341401815414429,
				0.8341401815414429
			],
			"translation":[
				9.245216369628906,
				1.7448160648345947,
				-0.904015302658081
			]
		},
		{
			"mesh":38,
			"name":"Plane.038",
			"scale":[
				0.6961081624031067,
				0.6961081624031067,
				0.6961081624031067
			],
			"translation":[
				9.854183197021484,
				1.8227851390838623,
				5.457001209259033
			]
		},
		{
			"mesh":39,
			"name":"Plane.039",
			"scale":[
				0.8341401815414429,
				0.8341401815414429,
				0.8341401815414429
			],
			"translation":[
				2.658507823944092,
				1.7448160648345947,
				5.3424391746521
			]
		}
	],
	"materials":[
		{
			"doubleSided":true,
			"name":"Common",
			"pbrMetallicRoughness":{
				"baseColorTexture":{
					"index":0
				},
				"metallicFactor":0,
				"roughnessFactor":0.5
			}
		}
	],
	"meshes":[
		{
			"name":"Plane",
			"primitives":[
				{
					"attributes":{
						"POSITION":0,
						"NORMAL":1,
						"TEXCOORD_0":2
					},
					"indices":3,
					"material":0
				}
			]
		},
		{
			"name":"Plane.001",
			"primitives":[
				{
					"attributes":{
						"POSITION":4,
						"NORMAL":5,
						"TEXCOORD_0":6
					},
					"indices":7,
					"material":0
				}
			]
		},
		{
			"name":"Plane.002",
			"primitives":[
				{
					"attributes":{
						"POSITION":8,
						"NORMAL":9,
						"TEXCOORD_0":10
					},
					"indices":11,
					"material":0
				}
			]
		},
		{
			"name":"Plane.003",
			"primitives":[
				{
					"attributes":{
						"POSITION":12,
						"NORMAL":13,
						"TEXCOORD_0":14
					},
					"indices":11,
					"material":0
				}
			]
		},
		{
			"name":"Plane.004",
			"primitives":[
				{
					"attributes":{
						"POSITION":15,
						"NORMAL":16,
						"TEXCOORD_0":17
					},
					"indices":18,
					"material":0
				}
			]
		},
		{
			"name":"Plane.005",
			"primitives":[
				{
					"attributes":{
						"POSITION":19,
						"NORMAL":20,
						"TEXCOORD_0":21
					},
					"indices":22,
					"material":0
				}
			]
		},
		{
			"name":"Plane.006",
			"primitives":[
				{
					"attributes":{
						"POSITION":23,
						"NORMAL":24,
						"TEXCOORD_0":25
					},
					"indices":26,
					"material":0
				}
			]
		},
		{
			"name":"Plane.007",
			"primitives":[
				{
					"attributes":{
						"POSITION":27,
						"NORMAL":28,
						"TEXCOORD_0":29
					},
					"indices":30,
					"material":0
				}
			]
		},
		{
			"name":"Plane.008",
			"primitives":[
				{
					"attributes":{
						"POSITION":31,
						"NORMAL":32,
						"TEXCOORD_0":33
					},
					"indices":34,
					"material":0
				}
			]
		},
		{
			"name":"Plane.009",
			"primitives":[
				{
					"attributes":{
						"POSITION":35,
						"NORMAL":36,
						"TEXCOORD_0":37
					},
					"indices":11,
					"material":0
				}
			]
		},
		{
			"name":"Plane.010",
			"primitives":[
				{
					"attributes":{
						"POSITION":38,
						"NORMAL":39,
						"TEXCOORD_0":40
					},
					"indices":41,
					"material":0
				}
			]
		},
		{
			"name":"Plane.011",
			"primitives":[
				{
					"attributes":{
						"POSITION":42,
						"NORMAL":43,
						"TEXCOORD_0":44
					},
					"indices":41,
					"material":0
				}
			]
		},
		{
			"name":"Plane.019",
			"primitives":[
				{
					"attributes":{
						"POSITION":45,
						"NORMAL":46,
						"TEXCOORD_0":47
					},
					"indices":48,
					"material":0
				}
			]
		},
		{
			"name":"Plane.020",
			"primitives":[
				{
					"attributes":{
						"POSITION":49,
						"NORMAL":50,
						"TEXCOORD_0":51
					},
					"indices":41,
					"material":0
				}
			]
		},
		{
			"name":"Plane.021",
			"primitives":[
				{
					"attributes":{
						"POSITION":52,
						"NORMAL":53,
						"TEXCOORD_0":54
					},
					"indices":41,
					"material":0
				}
			]
		},
		{
			"name":"Plane.022",
			"primitives":[
				{
					"attributes":{
						"POSITION":55,
						"NORMAL":56,
						"TEXCOORD_0":57
					},
					"indices":41,
					"material":0
				}
			]
		},
		{
			"name":"Plane.023",
			"primitives":[
				{
					"attributes":{
						"POSITION":58,
						"NORMAL":59,
						"TEXCOORD_0":60
					},
					"indices":41,
					"material":0
				}
			]
		},
		{
			"name":"Plane.024",
			"primitives":[
				{
					"attributes":{
						"POSITION":61,
						"NORMAL":62,
						"TEXCOORD_0":63
					},
					"indices":41,
					"material":0
				}
			]
		},
		{
			"name":"Plane.025",
			"primitives":[
				{
					"attributes":{
						"POSITION":64,
						"NORMAL":65,
						"TEXCOORD_0":66
					},
					"indices":67,
					"material":0
				}
			]
		},
		{
			"name":"Plane.026",
			"primitives":[
				{
					"attributes":{
						"POSITION":68,
						"NORMAL":69,
						"TEXCOORD_0":70
					},
					"indices":41,
					"material":0
				}
			]
		},
		{
			"name":"Plane.027",
			"primitives":[
				{
					"attributes":{
						"POSITION":71,
						"NORMAL":72,
						"TEXCOORD_0":73
					},
					"indices":41,
					"material":0
				}
			]
		},
		{
			"name":"Plane.028",
			"primitives":[
				{
					"attributes":{
						"POSITION":74,
						"NORMAL":75,
						"TEXCOORD_0":76
					},
					"indices":41,
					"material":0
				}
			]
		},
		{
			"name":"Plane.029",
			"primitives":[
				{
					"attributes":{
						"POSITION":77,
						"NORMAL":78,
						"TEXCOORD_0":79
					},
					"indices":41,
					"material":0
				}
			]
		},
		{
			"name":"Plane.030",
			"primitives":[
				{
					"attributes":{
						"POSITION":80,
						"NORMAL":81,
						"TEXCOORD_0":82
					},
					"indices":41,
					"material":0
				}
			]
		},
		{
			"name":"Plane.031",
			"primitives":[
				{
					"attributes":{
						"POSITION":83,
						"NORMAL":84,
						"TEXCOORD_0":85
					},
					"indices":41,
					"material":0
				}
			]
		},
		{
			"name":"Plane.032",
			"primitives":[
				{
					"attributes":{
						"POSITION":86,
						"NORMAL":87,
						"TEXCOORD_0":88
					},
					"indices":41,
					"material":0
				}
			]
		},
		{
			"name":"Plane.033",
			"primitives":[
				{
					"attributes":{
						"POSITION":89,
						"NORMAL":90,
						"TEXCOORD_0":91
					},
					"indices":41,
					"material":0
				}
			]
		},
		{
			"name":"Plane.034",
			"primitives":[
				{
					"attributes":{
						"POSITION":92,
						"NORMAL":93,
						"TEXCOORD_0":94
					},
					"indices":41,
					"material":0
				}
			]
		},
		{
			"name":"Plane.035",
			"primitives":[
				{
					"attributes":{
						"POSITION":95,
						"NORMAL":96,
						"TEXCOORD_0":97
					},
					"indices":41,
					"material":0
				}
			]
		},
		{
			"name":"Plane.036",
			"primitives":[
				{
					"attributes":{
						"POSITION":98,
						"NORMAL":99,
						"TEXCOORD_0":100
					},
					"indices":41,
					"material":0
				}
			]
		},
		{
			"name":"Plane.037",
			"primitives":[
				{
					"attributes":{
						"POSITION":101,
						"NORMAL":102,
						"TEXCOORD_0":103
					},
					"indices":41,
					"material":0
				}
			]
		},
		{
			"name":"Plane.038",
			"primitives":[
				{
					"attributes":{
						"POSITION":104,
						"NORMAL":105,
						"TEXCOORD_0":106
					},
					"indices":67,
					"material":0
				}
			]
		},
		{
			"name":"Plane.039",
			"primitives":[
				{
					"attributes":{
						"POSITION":107,
						"NORMAL":108,
						"TEXCOORD_0":109
					},
					"indices":67,
					"material":0
				}
			]
		},
		{
			"name":"Plane.040",
			"primitives":[
				{
					"attributes":{
						"POSITION":110,
						"NORMAL":111,
						"TEXCOORD_0":112
					},
					"indices":41,
					"material":0
				}
			]
		},
		{
			"name":"Plane.041",
			"primitives":[
				{
					"attributes":{
						"POSITION":113,
						"NORMAL":114,
						"TEXCOORD_0":115
					},
					"indices":116,
					"material":0
				}
			]
		},
		{
			"name":"Plane.042",
			"primitives":[
				{
					"attributes":{
						"POSITION":117,
						"NORMAL":118,
						"TEXCOORD_0":119
					},
					"indices":41,
					"material":0
				}
			]
		},
		{
			"name":"Plane.043",
			"primitives":[
				{
					"attributes":{
						"POSITION":120,
						"NORMAL":121,
						"TEXCOORD_0":122
					},
					"indices":41,
					"material":0
				}
			]
		},
		{
			"name":"Plane.044",
			"primitives":[
				{
					"attributes":{
						"POSITION":123,
						"NORMAL":124,
						"TEXCOORD_0":125
					},
					"indices":41,
					"material":0
				}
			]
		},
		{
			"name":"Plane.045",
			"primitives":[
				{
					"attributes":{
						"POSITION":126,
						"NORMAL":127,
						"TEXCOORD_0":128
					},
					"indices":41,
					"material":0
				}
			]
		},
		{
			"name":"Plane.046",
			"primitives":[
				{
					"attributes":{
						"POSITION":129,
						"NORMAL":130,
						"TEXCOORD_0":131
					},
					"indices":41,
					"material":0
				}
			]
		}
	],
	"textures":[
		{
			"sampler":0,
			"source":0
		}
	],
	"images":[
		{
			"mimeType":"image/png",
			"name":"Common.png",
			"uri":"textures/Common.png"
		}
	],
	"accessors":[
		{
			"bufferView":0,
			"componentType":5126,
			"count":1735,
			"max":[
				10.162590980529785,
				3,
				6.257601737976074
			],
			"min":[
				-10.179591178894043,
				-0.1792699098587036,
				-3.8463845252990723
			],
			"type":"VEC3"
		},
		{
			"bufferView":1,
			"componentType":5126,
			"count":1735,
			"type":"VEC3"
		},
		{
			"bufferView":2,
			"componentType":5126,
			"count":1735,
			"type":"VEC2"
		},
		{
			"bufferView":3,
			"componentType":5123,
			"count":4446,
			"type":"SCALAR"
		},
		{
			"bufferView":4,
			"componentType":5126,
			"count":258,
			"max":[
				3.8775949478149414,
				2,
				2.899160146713257
			],
			"min":[
				0.589698314666748,
				0,
				-3.6616086959838867
			],
			"type":"VEC3"
		},
		{
			"bufferView":5,
			"componentType":5126,
			"count":258,
			"type":"VEC3"
		},
		{
			"bufferView":6,
			"componentType":5126,
			"count":258,
			"type":"VEC2"
		},
		{
			"bufferView":7,
			"componentType":5123,
			"count":558,
			"type":"SCALAR"
		},
		{
			"bufferView":8,
			"componentType":5126,
			"count":254,
			"max":[
				8.531961441040039,
				2,
				-2.806326389312744
			],
			"min":[
				5.666342258453369,
				0,
				-3.6616086959838867
			],
			"type":"VEC3"
		},
		{
			"bufferView":9,
			"componentType":5126,
			"count":254,
			"type":"VEC3"
		},
		{
			"bufferView":10,
			"componentType":5126,
			"count":254,
			"type":"VEC2"
		},
		{
			"bufferView":11,
			"componentType":5123,
			"count":552,
			"type":"SCALAR"
		},
		{
			"bufferView":12,
			"componentType":5126,
			"count":254,
			"max":[
				-1.0353484153747559,
				2,
				-2.8494224548339844
			],
			"min":[
				-3.900968074798584,
				0,
				-3.704704761505127
			],
			"type":"VEC3"
		},
		{
			"bufferView":13,
			"componentType":5126,
			"count":254,
			"type":"VEC3"
		},
		{
			"bufferView":14,
			"componentType":5126,
			"count":254,
			"type":"VEC2"
		},
		{
			"bufferView":15,
			"componentType":5126,
			"count":516,
			"max":[
				-4.206182956695557,
				2.5216407775878906,
				1.5674612522125244
			],
			"min":[
				-7.540524005889893,
				0.007932603359222412,
				-1.49916672706604
			],
			"type":"VEC3"
		},
		{
			"bufferView":16,
			"componentType":5126,
			"count":516,
			"type":"VEC3"
		},
		{
			"bufferView":17,
			"componentType":5126,
			"count":516,
			"type":"VEC2"
		},
		{
			"bufferView":18,
			"componentType":5123,
			"count":1344,
			"type":"SCALAR"
		},
		{
			"bufferView":19,
			"componentType":5126,
			"count":530,
			"max":[
				2.3683812618255615,
				2.5216407775878906,
				2.899160146713257
			],
			"min":[
				-0.9659600257873535,
				0.007932603359222412,
				-0.9100258350372314
			],
			"type":"VEC3"
		},
		{
			"bufferView":20,
			"componentType":5126,
			"count":530,
			"type":"VEC3"
		},
		{
			"bufferView":21,
			"componentType":5126,
			"count":530,
			"type":"VEC2"
		},
		{
			"bufferView":22,
			"componentType":5123,
			"count":1338,
			"type":"SCALAR"
		},
		{
			"bufferView":23,
			"componentType":5126,
			"count":532,
			"max":[
				7.859148979187012,
				2.5216407775878906,
				3.4860329627990723
			],
			"min":[
				4.524807929992676,
				0.007932603359222412,
				-0.3231530785560608
			],
			"type":"VEC3"
		},
		{
			"bufferView":24,
			"componentType":5126,
			"count":532,
			"type":"VEC3"
		},
		{
			"bufferView":25,
			"componentType":5126,
			"count":532,
			"type":"VEC2"
		},
		{
			"bufferView":26,
			"componentType":5123,
			"count":1344,
			"type":"SCALAR"
		},
		{
			"bufferView":27,
			"componentType":5126,
			"count":254,
			"max":[
				10.028345108032227,
				2,
				0.26943421363830566
			],
			"min":[
				9.173062324523926,
				0,
				-2.5961849689483643
			],
			"type":"VEC3"
		},
		{
			"bufferView":28,
			"componentType":5126,
			"count":254,
			"type":"VEC3"
		},
		{
			"bufferView":29,
			"componentType":5126,
			"count":254,
			"type":"VEC2"
		},
		{
			"bufferView":30,
			"componentType":5123,
			"count":552,
			"type":"SCALAR"
		},
		{
			"bufferView":31,
			"componentType":5126,
			"count":176,
			"max":[
				10.021169662475586,
				2,
				6.116180419921875
			],
			"min":[
				7.155550003051758,
				0,
				5.342487812042236
			],
			"type":"VEC3"
		},
		{
			"bufferView":32,
			"componentType":5126,
			"count":176,
			"type":"VEC3"
		},
		{
			"bufferView":33,
			"componentType":5126,
			"count":176,
			"type":"VEC2"
		},
		{
			"bufferView":34,
			"componentType":5123,
			"count":372,
			"type":"SCALAR"
		},
		{
			"bufferView":35,
			"componentType":5126,
			"count":254,
			"max":[
				4.2899298667907715,
				2,
				6.116180419921875
			],
			"min":[
				1.4243102073669434,
				0,
				5.260898113250732
			],
			"type":"VEC3"
		},
		{
			"bufferView":36,
			"componentType":5126,
			"count":254,
			"type":"VEC3"
		},
		{
			"bufferView":37,
			"componentType":5126,
			"count":254,
			"type":"VEC2"
		},
		{
			"bufferView":38,
			"componentType":5126,
			"count":220,
			"max":[
				0.1027822494506836,
				0.10807037353515625,
				0.10807061195373535
			],
			"min":[
				-0.10278081893920898,
				-0.10807132720947266,
				-0.1080712080001831
			],
			"type":"VEC3"
		},
		{
			"bufferView":39,
			"componentType":5126,
			"count":220,
			"type":"VEC3"
		},
		{
			"bufferView":40,
			"componentType":5126,
			"count":220,
			"type":"VEC2"
		},
		{
			"bufferView":41,
			"componentType":5123,
			"count":348,
			"type":"SCALAR"
		},
		{
			"bufferView":42,
			"componentType":5126,
			"count":220,
			"max":[
				0.1027822494506836,
				0.10807037353515625,
				0.10807061195373535
			],
			"min":[
				-0.10278081893920898,
				-0.10807132720947266,
				-0.1080712080001831
			],
			"type":"VEC3"
		},
		{
			"bufferView":43,
			"componentType":5126,
			"count":220,
			"type":"VEC3"
		},
		{
			"bufferView":44,
			"componentType":5126,
			"count":220,
			"type":"VEC2"
		},
		{
			"bufferView":45,
			"componentType":5126,
			"count":72,
			"max":[
				0.08040747046470642,
				0.12486603111028671,
				0.10099238902330399
			],
			"min":[
				-0.0948258489370346,
				-0.10782855749130249,
				-0.07424096018075943
			],
			"type":"VEC3"
		},
		{
			"bufferView":46,
			"componentType":5126,
			"count":72,
			"type":"VEC3"
		},
		{
			"bufferView":47,
			"componentType":5126,
			"count":72,
			"type":"VEC2"
		},
		{
			"bufferView":48,
			"componentType":5123,
			"count":108,
			"type":"SCALAR"
		},
		{
			"bufferView":49,
			"componentType":5126,
			"count":220,
			"max":[
				0.1027822494506836,
				0.10807037353515625,
				0.10807061195373535
			],
			"min":[
				-0.10278081893920898,
				-0.10807132720947266,
				-0.1080712080001831
			],
			"type":"VEC3"
		},
		{
			"bufferView":50,
			"componentType":5126,
			"count":220,
			"type":"VEC3"
		},
		{
			"bufferView":51,
			"componentType":5126,
			"count":220,
			"type":"VEC2"
		},
		{
			"bufferView":52,
			"componentType":5126,
			"count":220,
			"max":[
				0.1027822494506836,
				0.10807037353515625,
				0.10807061195373535
			],
			"min":[
				-0.10278081893920898,
				-0.10807132720947266,
				-0.1080712080001831
			],
			"type":"VEC3"
		},
		{
			"bufferView":53,
			"componentType":5126,
			"count":220,
			"type":"VEC3"
		},
		{
			"bufferView":54,
			"componentType":5126,
			"count":220,
			"type":"VEC2"
		},
		{
			"bufferView":55,
			"componentType":5126,
			"count":220,
			"max":[
				0.1027822494506836,
				0.10807037353515625,
				0.10807061195373535
			],
			"min":[
				-0.10278081893920898,
				-0.10807132720947266,
				-0.1080712080001831
			],
			"type":"VEC3"
		},
		{
			"bufferView":56,
			"componentType":5126,
			"count":220,
			"type":"VEC3"
		},
		{
			"bufferView":57,
			"componentType":5126,
			"count":220,
			"type":"VEC2"
		},
		{
			"bufferView":58,
			"componentType":5126,
			"count":220,
			"max":[
				0.1027822494506836,
				0.10807037353515625,
				0.10807061195373535
			],
			"min":[
				-0.10278081893920898,
				-0.10807132720947266,
				-0.1080712080001831
			],
			"type":"VEC3"
		},
		{
			"bufferView":59,
			"componentType":5126,
			"count":220,
			"type":"VEC3"
		},
		{
			"bufferView":60,
			"componentType":5126,
			"count":220,
			"type":"VEC2"
		},
		{
			"bufferView":61,
			"componentType":5126,
			"count":220,
			"max":[
				0.1027822494506836,
				0.10807037353515625,
				0.10807061195373535
			],
			"min":[
				-0.10278081893920898,
				-0.10807132720947266,
				-0.1080712080001831
			],
			"type":"VEC3"
		},
		{
			"bufferView":62,
			"componentType":5126,
			"count":220,
			"type":"VEC3"
		},
		{
			"bufferView":63,
			"componentType":5126,
			"count":220,
			"type":"VEC2"
		},
		{
			"bufferView":64,
			"componentType":5126,
			"count":220,
			"max":[
				0.1027822494506836,
				0.10807037353515625,
				0.10807061195373535
			],
			"min":[
				-0.10278081893920898,
				-0.10807132720947266,
				-0.1080712080001831
			],
			"type":"VEC3"
		},
		{
			"bufferView":65,
			"componentType":5126,
			"count":220,
			"type":"VEC3"
		},
		{
			"bufferView":66,
			"componentType":5126,
			"count":220,
			"type":"VEC2"
		},
		{
			"bufferView":67,
			"componentType":5123,
			"count":348,
			"type":"SCALAR"
		},
		{
			"bufferView":68,
			"componentType":5126,
			"count":220,
			"max":[
				0.1027822494506836,
				0.10807037353515625,
				0.10807061195373535
			],
			"min":[
				-0.10278081893920898,
				-0.10807132720947266,
				-0.1080712080001831
			],
			"type":"VEC3"
		},
		{
			"bufferView":69,
			"componentType":5126,
			"count":220,
			"type":"VEC3"
		},
		{
			"bufferView":70,
			"componentType":5126,
			"count":220,
			"type":"VEC2"
		},
		{
			"bufferView":71,
			"componentType":5126,
			"count":220,
			"max":[
				0.1027822494506836,
				0.10807037353515625,
				0.10807061195373535
			],
			"min":[
				-0.10278081893920898,
				-0.10807132720947266,
				-0.1080712080001831
			],
			"type":"VEC3"
		},
		{
			"bufferView":72,
			"componentType":5126,
			"count":220,
			"type":"VEC3"
		},
		{
			"bufferView":73,
			"componentType":5126,
			"count":220,
			"type":"VEC2"
		},
		{
			"bufferView":74,
			"componentType":5126,
			"count":220,
			"max":[
				0.1027822494506836,
				0.10807037353515625,
				0.10807061195373535
			],
			"min":[
				-0.10278081893920898,
				-0.10807132720947266,
				-0.1080712080001831
			],
			"type":"VEC3"
		},
		{
			"bufferView":75,
			"componentType":5126,
			"count":220,
			"type":"VEC3"
		},
		{
			"bufferView":76,
			"componentType":5126,
			"count":220,
			"type":"VEC2"
		},
		{
			"bufferView":77,
			"componentType":5126,
			"count":220,
			"max":[
				0.1027822494506836,
				0.10807037353515625,
				0.10807061195373535
			],
			"min":[
				-0.10278081893920898,
				-0.10807132720947266,
				-0.1080712080001831
			],
			"type":"VEC3"
		},
		{
			"bufferView":78,
			"componentType":5126,
			"count":220,
			"type":"VEC3"
		},
		{
			"bufferView":79,
			"componentType":5126,
			"count":220,
			"type":"VEC2"
		},
		{
			"bufferView":80,
			"componentType":5126,
			"count":220,
			"max":[
				0.1027822494506836,
				0.10807037353515625,
				0.10807061195373535
			],
			"min":[
				-0.10278081893920898,
				-0.10807132720947266,
				-0.1080712080001831
			],
			"type":"VEC3"
		},
		{
			"bufferView":81,
			"componentType":5126,
			"count":220,
			"type":"VEC3"
		},
		{
			"bufferView":82,
			"componentType":5126,
			"count":220,
			"type":"VEC2"
		},
		{
			"bufferView":83,
			"componentType":5126,
			"count":220,
			"max":[
				0.1027822494506836,
				0.10807037353515625,
				0.10807061195373535
			],
			"min":[
				-0.10278081893920898,
				-0.10807132720947266,
				-0.1080712080001831
			],
			"type":"VEC3"
		},
		{
			"bufferView":84,
			"componentType":5126,
			"count":220,
			"type":"VEC3"
		},
		{
			"bufferView":85,
			"componentType":5126,
			"count":220,
			"type":"VEC2"
		},
		{
			"bufferView":86,
			"componentType":5126,
			"count":220,
			"max":[
				0.1027822494506836,
				0.10807037353515625,
				0.10807061195373535
			],
			"min":[
				-0.10278081893920898,
				-0.10807132720947266,
				-0.1080712080001831
			],
			"type":"VEC3"
		},
		{
			"bufferView":87,
			"componentType":5126,
			"count":220,
			"type":"VEC3"
		},
		{
			"bufferView":88,
			"componentType":5126,
			"count":220,
			"type":"VEC2"
		},
		{
			"bufferView":89,
			"componentType":5126,
			"count":220,
			"max":[
				0.1027822494506836,
				0.10807037353515625,
				0.10807061195373535
			],
			"min":[
				-0.10278081893920898,
				-0.10807132720947266,
				-0.1080712080001831
			],
			"type":"VEC3"
		},
		{
			"bufferView":90,
			"componentType":5126,
			"count":220,
			"type":"VEC3"
		},
		{
			"bufferView":91,
			"componentType":5126,
			"count":220,
			"type":"VEC2"
		},
		{
			"bufferView":92,
			"componentType":5126,
			"count":220,
			"max":[
				0.1027822494506836,
				0.10807037353515625,
				0.10807061195373535
			],
			"min":[
				-0.10278081893920898,
				-0.10807132720947266,
				-0.1080712080001831
			],
			"type":"VEC3"
		},
		{
			"bufferView":93,
			"componentType":5126,
			"count":220,
			"type":"VEC3"
		},
		{
			"bufferView":94,
			"componentType":5126,
			"count":220,
			"type":"VEC2"
		},
		{
			"bufferView":95,
			"componentType":5126,
			"count":220,
			"max":[
				0.1027822494506836,
				0.10807037353515625,
				0.10807061195373535
			],
			"min":[
				-0.10278081893920898,
				-0.10807132720947266,
				-0.1080712080001831
			],
			"type":"VEC3"
		},
		{
			"bufferView":96,
			"componentType":5126,
			"count":220,
			"type":"VEC3"
		},
		{
			"bufferView":97,
			"componentType":5126,
			"count":220,
			"type":"VEC2"
		},
		{
			"bufferView":98,
			"componentType":5126,
			"count":220,
			"max":[
				0.1027822494506836,
				0.10807037353515625,
				0.10807061195373535
			],
			"min":[
				-0.10278081893920898,
				-0.10807132720947266,
				-0.1080712080001831
			],
			"type":"VEC3"
		},
		{
			"bufferView":99,
			"componentType":5126,
			"count":220,
			"type":"VEC3"
		},
		{
			"bufferView":100,
			"componentType":5126,
			"count":220,
			"type":"VEC2"
		},
		{
			"bufferView":101,
			"componentType":5126,
			"count":220,
			"max":[
				0.1027822494506836,
				0.10807037353515625,
				0.10807061195373535
			],
			"min":[
				-0.10278081893920898,
				-0.10807132720947266,
				-0.1080712080001831
			],
			"type":"VEC3"
		},
		{
			"bufferView":102,
			"componentType":5126,
			"count":220,
			"type":"VEC3"
		},
		{
			"bufferView":103,
			"componentType":5126,
			"count":220,
			"type":"VEC2"
		},
		{
			"bufferView":104,
			"componentType":5126,
			"count":220,
			"max":[
				0.1027822494506836,
				0.10807037353515625,
				0.10807061195373535
			],
			"min":[
				-0.10278081893920898,
				-0.10807132720947266,
				-0.1080712080001831
			],
			"type":"VEC3"
		},
		{
			"bufferView":105,
			"componentType":5126,
			"count":220,
			"type":"VEC3"
		},
		{
			"bufferView":106,
			"componentType":5126,
			"count":220,
			"type":"VEC2"
		},
		{
			"bufferView":107,
			"componentType":5126,
			"count":220,
			"max":[
				0.1027822494506836,
				0.10807037353515625,
				0.10807061195373535
			],
			"min":[
				-0.10278081893920898,
				-0.10807132720947266,
				-0.1080712080001831
			],
			"type":"VEC3"
		},
		{
			"bufferView":108,
			"componentType":5126,
			"count":220,
			"type":"VEC3"
		},
		{
			"bufferView":109,
			"componentType":5126,
			"count":220,
			"type":"VEC2"
		},
		{
			"bufferView":110,
			"componentType":5126,
			"count":220,
			"max":[
				0.1027822494506836,
				0.10807037353515625,
				0.10807061195373535
			],
			"min":[
				-0.10278081893920898,
				-0.10807132720947266,
				-0.1080712080001831
			],
			"type":"VEC3"
		},
		{
			"bufferView":111,
			"componentType":5126,
			"count":220,
			"type":"VEC3"
		},
		{
			"bufferView":112,
			"componentType":5126,
			"count":220,
			"type":"VEC2"
		},
		{
			"bufferView":113,
			"componentType":5126,
			"count":340,
			"max":[
				0.1027822494506836,
				0.20249372720718384,
				0.10807061195373535
			],
			"min":[
				-0.10278081893920898,
				-0.12527388334274292,
				-0.1080712080001831
			],
			"type":"VEC3"
		},
		{
			"bufferView":114,
			"componentType":5126,
			"count":340,
			"type":"VEC3"
		},
		{
			"bufferView":115,
			"componentType":5126,
			"count":340,
			"type":"VEC2"
		},
		{
			"bufferView":116,
			"componentType":5123,
			"count":528,
			"type":"SCALAR"
		},
		{
			"bufferView":117,
			"componentType":5126,
			"count":220,
			"max":[
				0.1027822494506836,
				0.10807037353515625,
				0.10807061195373535
			],
			"min":[
				-0.10278081893920898,
				-0.10807132720947266,
				-0.1080712080001831
			],
			"type":"VEC3"
		},
		{
			"bufferView":118,
			"componentType":5126,
			"count":220,
			"type":"VEC3"
		},
		{
			"bufferView":119,
			"componentType":5126,
			"count":220,
			"type":"VEC2"
		},
		{
			"bufferView":120,
			"componentType":5126,
			"count":220,
			"max":[
				0.1027822494506836,
				0.10807037353515625,
				0.10807061195373535
			],
			"min":[
				-0.10278081893920898,
				-0.10807132720947266,
				-0.1080712080001831
			],
			"type":"VEC3"
		},
		{
			"bufferView":121,
			"componentType":5126,
			"count":220,
			"type":"VEC3"
		},
		{
			"bufferView":122,
			"componentType":5126,
			"count":220,
			"type":"VEC2"
		},
		{
			"bufferView":123,
			"componentType":5126,
			"count":220,
			"max":[
				0.1027822494506836,
				0.10807037353515625,
				0.10807061195373535
			],
			"min":[
				-0.10278081893920898,
				-0.10807132720947266,
				-0.1080712080001831
			],
			"type":"VEC3"
		},
		{
			"bufferView":124,
			"componentType":5126,
			"count":220,
			"type":"VEC3"
		},
		{
			"bufferView":125,
			"componentType":5126,
			"count":220,
			"type":"VEC2"
		},
		{
			"bufferView":126,
			"componentType":5126,
			"count":220,
			"max":[
				0.1027822494506836,
				0.10807037353515625,
				0.10807061195373535
			],
			"min":[
				-0.10278081893920898,
				-0.10807132720947266,
				-0.1080712080001831
			],
			"type":"VEC3"
		},
		{
			"bufferView":127,
			"componentType":5126,
			"count":220,
			"type":"VEC3"
		},
		{
			"bufferView":128,
			"componentType":5126,
			"count":220,
			"type":"VEC2"
		},
		{
			"bufferView":129,
			"componentType":5126,
			"count":220,
			"max":[
				0.1027822494506836,
				0.10807037353515625,
				0.10807061195373535
			],
			"min":[
				-0.10278081893920898,
				-0.10807132720947266,
				-0.1080712080001831
			],
			"type":"VEC3"
		},
		{
			"bufferView":130,
			"componentType":5126,
			"count":220,
			"type":"VEC3"
		},
		{
			"bufferView":131,
			"componentType":5126,
			"count":220,
			"type":"VEC2"
		}
	],
	"bufferViews":[
		{
			"buffer":0,
			"byteLength":20820,
			"byteOffset":0,
			"target":34962
		},
		{
			"buffer":0,
			"byteLength":20820,
			"byteOffset":20820,
			"target":34962
		},
		{
			"buffer":0,
			"byteLength":13880,
			"byteOffset":41640,
			"target":34962
		},
		{
			"buffer":0,
			"byteLength":8892,
			"byteOffset":55520,
			"target":34963
		},
		{
			"buffer":0,
			"byteLength":3096,
			"byteOffset":64412,
			"target":34962
		},
		{
			"buffer":0,
			"byteLength":3096,
			"byteOffset":67508,
			"target":34962
		},
		{
			"buffer":0,
			"byteLength":2064,
			"byteOffset":70604,
			"target":34962
		},
		{
			"buffer":0,
			"byteLength":1116,
			"byteOffset":72668,
			"target":34963
		},
		{
			"buffer":0,
			"byteLength":3048,
			"byteOffset":73784,
			"target":34962
		},
		{
			"buffer":0,
			"byteLength":3048,
			"byteOffset":76832,
			"target":34962
		},
		{
			"buffer":0,
			"byteLength":2032,
			"byteOffset":79880,
			"target":34962
		},
		{
			"buffer":0,
			"byteLength":1104,
			"byteOffset":81912,
			"target":34963
		},
		{
			"buffer":0,
			"byteLength":3048,
			"byteOffset":83016,
			"target":34962
		},
		{
			"buffer":0,
			"byteLength":3048,
			"byteOffset":86064,
			"target":34962
		},
		{
			"buffer":0,
			"byteLength":2032,
			"byteOffset":89112,
			"target":34962
		},
		{
			"buffer":0,
			"byteLength":6192,
			"byteOffset":91144,
			"target":34962
		},
		{
			"buffer":0,
			"byteLength":6192,
			"byteOffset":97336,
			"target":34962
		},
		{
			"buffer":0,
			"byteLength":4128,
			"byteOffset":103528,
			"target":34962
		},
		{
			"buffer":0,
			"byteLength":2688,
			"byteOffset":107656,
			"target":34963
		},
		{
			"buffer":0,
			"byteLength":6360,
			"byteOffset":110344,
			"target":34962
		},
		{
			"buffer":0,
			"byteLength":6360,
			"byteOffset":116704,
			"target":34962
		},
		{
			"buffer":0,
			"byteLength":4240,
			"byteOffset":123064,
			"target":34962
		},
		{
			"buffer":0,
			"byteLength":2676,
			"byteOffset":127304,
			"target":34963
		},
		{
			"buffer":0,
			"byteLength":6384,
			"byteOffset":129980,
			"target":34962
		},
		{
			"buffer":0,
			"byteLength":6384,
			"byteOffset":136364,
			"target":34962
		},
		{
			"buffer":0,
			"byteLength":4256,
			"byteOffset":142748,
			"target":34962
		},
		{
			"buffer":0,
			"byteLength":2688,
			"byteOffset":147004,
			"target":34963
		},
		{
			"buffer":0,
			"byteLength":3048,
			"byteOffset":149692,
			"target":34962
		},
		{
			"buffer":0,
			"byteLength":3048,
			"byteOffset":152740,
			"target":34962
		},
		{
			"buffer":0,
			"byteLength":2032,
			"byteOffset":155788,
			"target":34962
		},
		{
			"buffer":0,
			"byteLength":1104,
			"byteOffset":157820,
			"target":34963
		},
		{
			"buffer":0,
			"byteLength":2112,
			"byteOffset":158924,
			"target":34962
		},
		{
			"buffer":0,
			"byteLength":2112,
			"byteOffset":161036,
			"target":34962
		},
		{
			"buffer":0,
			"byteLength":1408,
			"byteOffset":163148,
			"target":34962
		},
		{
			"buffer":0,
			"byteLength":744,
			"byteOffset":164556,
			"target":34963
		},
		{
			"buffer":0,
			"byteLength":3048,
			"byteOffset":165300,
			"target":34962
		},
		{
			"buffer":0,
			"byteLength":3048,
			"byteOffset":168348,
			"target":34962
		},
		{
			"buffer":0,
			"byteLength":2032,
			"byteOffset":171396,
			"target":34962
		},
		{
			"buffer":0,
			"byteLength":2640,
			"byteOffset":173428,
			"target":34962
		},
		{
			"buffer":0,
			"byteLength":2640,
			"byteOffset":176068,
			"target":34962
		},
		{
			"buffer":0,
			"byteLength":1760,
			"byteOffset":178708,
			"target":34962
		},
		{
			"buffer":0,
			"byteLength":696,
			"byteOffset":180468,
			"target":34963
		},
		{
			"buffer":0,
			"byteLength":2640,
			"byteOffset":181164,
			"target":34962
		},
		{
			"buffer":0,
			"byteLength":2640,
			"byteOffset":183804,
			"target":34962
		},
		{
			"buffer":0,
			"byteLength":1760,
			"byteOffset":186444,
			"target":34962
		},
		{
			"buffer":0,
			"byteLength":864,
			"byteOffset":188204,
			"target":34962
		},
		{
			"buffer":0,
			"byteLength":864,
			"byteOffset":189068,
			"target":34962
		},
		{
			"buffer":0,
			"byteLength":576,
			"byteOffset":189932,
			"target":34962
		},
		{
			"buffer":0,
			"byteLength":216,
			"byteOffset":190508,
			"target":34963
		},
		{
			"buffer":0,
			"byteLength":2640,
			"byteOffset":190724,
			"target":34962
		},
		{
			"buffer":0,
			"byteLength":2640,
			"byteOffset":193364,
			"target":34962
		},
		{
			"buffer":0,
			"byteLength":1760,
			"byteOffset":196004,
			"target":34962
		},
		{
			"buffer":0,
			"byteLength":2640,
			"byteOffset":197764,
			"target":34962
		},
		{
			"buffer":0,
			"byteLength":2640,
			"byteOffset":200404,
			"target":34962
		},
		{
			"buffer":0,
			"byteLength":1760,
			"byteOffset":203044,
			"target":34962
		},
		{
			"buffer":0,
			"byteLength":2640,
			"byteOffset":204804,
			"target":34962
		},
		{
			"buffer":0,
			"byteLength":2640,
			"byteOffset":207444,
			"target":34962
		},
		{
			"buffer":0,
			"byteLength":1760,
			"byteOffset":210084,
			"target":34962
		},
		{
			"buffer":0,
			"byteLength":2640,
			"byteOffset":211844,
			"target":34962
		},
		{
			"buffer":0,
			"byteLength":2640,
			"byteOffset":214484,
			"target":34962
		},
		{
			"buffer":0,
			"byteLength":1760,
			"byteOffset":217124,
			"target":34962
		},
		{
			"buffer":0,
			"byteLength":2640,
			"byteOffset":218884,
			"target":34962
		},
		{
			"buffer":0,
			"byteLength":2640,
			"byteOffset":221524,
			"target":34962
		},
		{
			"buffer":0,
			"byteLength":1760,
			"byteOffset":224164,
			"target":34962
		},
		{
			"buffer":0,
			"byteLength":2640,
			"byteOffset":225924,
			"target":34962
		},
		{
			"buffer":0,
			"byteLength":2640,
			"byteOffset":228564,
			"target":34962
		},
		{
			"buffer":0,
			"byteLength":1760,
			"byteOffset":231204,
			"target":34962
		},
		{
			"buffer":0,
			"byteLength":696,
			"byteOffset":232964,
			"target":34963
		},
		{
			"buffer":0,
			"byteLength":2640,
			"byteOffset":233660,
			"target":34962
		},
		{
			"buffer":0,
			"byteLength":2640,
			"byteOffset":236300,
			"target":34962
		},
		{
			"buffer":0,
			"byteLength":1760,
			"byteOffset":238940,
			"target":34962
		},
		{
			"buffer":0,
			"byteLength":2640,
			"byteOffset":240700,
			"target":34962
		},
		{
			"buffer":0,
			"byteLength":2640,
			"byteOffset":243340,
			"target":34962
		},
		{
			"buffer":0,
			"byteLength":1760,
			"byteOffset":245980,
			"target":34962
		},
		{
			"buffer":0,
			"byteLength":2640,
			"byteOffset":247740,
			"target":34962
		},
		{
			"buffer":0,
			"byteLength":2640,
			"byteOffset":250380,
			"target":34962
		},
		{
			"buffer":0,
			"byteLength":1760,
			"byteOffset":253020,
			"target":34962
		},
		{
			"buffer":0,
			"byteLength":2640,
			"byteOffset":254780,
			"target":34962
		},
		{
			"buffer":0,
			"byteLength":2640,
			"byteOffset":257420,
			"target":34962
		},
		{
			"buffer":0,
			"byteLength":1760,
			"byteOffset":260060,
			"target":34962
		},
		{
			"buffer":0,
			"byteLength":2640,
			"byteOffset":261820,
			"target":34962
		},
		{
			"buffer":0,
			"byteLength":2640,
			"byteOffset":264460,
			"target":34962
		},
		{
			"buffer":0,
			"byteLength":1760,
			"byteOffset":267100,
			"target":34962
		},
		{
			"buffer":0,
			"byteLength":2640,
			"byteOffset":268860,
			"target":34962
		},
		{
			"buffer":0,
			"byteLength":2640,
			"byteOffset":271500,
			"target":34962
		},
		{
			"buffer":0,
			"byteLength":1760,
			"byteOffset":274140,
			"target":34962
		},
		{
			"buffer":0,
			"byteLength":2640,
			"byteOffset":275900,
			"target":34962
		},
		{
			"buffer":0,
			"byteLength":2640,
			"byteOffset":278540,
			"target":34962
		},
		{
			"buffer":0,
			"byteLength":1760,
			"byteOffset":281180,
			"target":34962
		},
		{
			"buffer":0,
			"byteLength":2640,
			"byteOffset":282940,
			"target":34962
		},
		{
			"buffer":0,
			"byteLength":2640,
			"byteOffset":285580,
			"target":34962
		},
		{
			"buffer":0,
			"byteLength":1760,
			"byteOffset":288220,
			"target":34962
		},
		{
			"buffer":0,
			"byteLength":2640,
			"byteOffset":289980,
			"target":34962
		},
		{
			"buffer":0,
			"byteLength":2640,
			"byteOffset":292620,
			"target":34962
		},
		{
			"buffer":0,
			"byteLength":1760,
			"byteOffset":295260,
			"target":34962
		},
		{
			"buffer":0,
			"byteLength":2640,
			"byteOffset":297020,
			"target":34962
		},
		{
			"buffer":0,
			"byteLength":2640,
			"byteOffset":299660,
			"target":34962
		},
		{
			"buffer":0,
			"byteLength":1760,
			"byteOffset":302300,
			"target":34962
		},
		{
			"buffer":0,
			"byteLength":2640,
			"byteOffset":304060,
			"target":34962
		},
		{
			"buffer":0,
			"byteLength":2640,
			"byteOffset":306700,
			"target":34962
		},
		{
			"buffer":0,
			"byteLength":1760,
			"byteOffset":309340,
			"target":34962
		},
		{
			"buffer":0,
			"byteLength":2640,
			"byteOffset":311100,
			"target":34962
		},
		{
			"buffer":0,
			"byteLength":2640,
			"byteOffset":313740,
			"target":34962
		},
		{
			"buffer":0,
			"byteLength":1760,
			"byteOffset":316380,
			"target":34962
		},
		{
			"buffer":0,
			"byteLength":2640,
			"byteOffset":318140,
			"target":34962
		},
		{
			"buffer":0,
			"byteLength":2640,
			"byteOffset":320780,
			"target":34962
		},
		{
			"buffer":0,
			"byteLength":1760,
			"byteOffset":323420,
			"target":34962
		},
		{
			"buffer":0,
			"byteLength":2640,
			"byteOffset":325180,
			"target":34962
		},
		{
			"buffer":0,
			"byteLength":2640,
			"byteOffset":327820,
			"target":34962
		},
		{
			"buffer":0,
			"byteLength":1760,
			"byteOffset":330460,
			"target":34962
		},
		{
			"buffer":0,
			"byteLength":2640,
			"byteOffset":332220,
			"target":34962
		},
		{
			"buffer":0,
			"byteLength":2640,
			"byteOffset":334860,
			"target":34962
		},
		{
			"buffer":0,
			"byteLength":1760,
			"byteOffset":337500,
			"target":34962
		},
		{
			"buffer":0,
			"byteLength":4080,
			"byteOffset":339260,
			"target":34962
		},
		{
			"buffer":0,
			"byteLength":4080,
			"byteOffset":343340,
			"target":34962
		},
		{
			"buffer":0,
			"byteLength":2720,
			"byteOffset":347420,
			"target":34962
		},
		{
			"buffer":0,
			"byteLength":1056,
			"byteOffset":350140,
			"target":34963
		},
		{
			"buffer":0,
			"byteLength":2640,
			"byteOffset":351196,
			"target":34962
		},
		{
			"buffer":0,
			"byteLength":2640,
			"byteOffset":353836,
			"target":34962
		},
		{
			"buffer":0,
			"byteLength":1760,
			"byteOffset":356476,
			"target":34962
		},
		{
			"buffer":0,
			"byteLength":2640,
			"byteOffset":358236,
			"target":34962
		},
		{
			"buffer":0,
			"byteLength":2640,
			"byteOffset":360876,
			"target":34962
		},
		{
			"buffer":0,
			"byteLength":1760,
			"byteOffset":363516,
			"target":34962
		},
		{
			"buffer":0,
			"byteLength":2640,
			"byteOffset":365276,
			"target":34962
		},
		{
			"buffer":0,
			"byteLength":2640,
			"byteOffset":367916,
			"target":34962
		},
		{
			"buffer":0,
			"byteLength":1760,
			"byteOffset":370556,
			"target":34962
		},
		{
			"buffer":0,
			"byteLength":2640,
			"byteOffset":372316,
			"target":34962
		},
		{
			"buffer":0,
			"byteLength":2640,
			"byteOffset":374956,
			"target":34962
		},
		{
			"buffer":0,
			"byteLength":1760,
			"byteOffset":377596,
			"target":34962
		},
		{
			"buffer":0,
			"byteLength":2640,
			"byteOffset":379356,
			"target":34962
		},
		{
			"buffer":0,
			"byteLength":2640,
			"byteOffset":381996,
			"target":34962
		},
		{
			"buffer":0,
			"byteLength":1760,
			"byteOffset":384636,
			"target":34962
		}
	],
	"samplers":[
		{
			"magFilter":9729,
			"minFilter":9987
		}
	],
	"buffers":[
		{
			"byteLength":386396,
			"uri":"Shop.bin"
		}
	]
}
