{
	"asset":{
		"generator":"Khronos glTF Blender I/O v5.2.39",
		"version":"2.0"
	},
	"scene":0,
	"scenes":[
		{
			"name":"Scene",
			"nodes":[
				7
			]
		}
	],
	"nodes":[
		{
			"name":"Band3",
			"rotation":[
				-0.7071067690849304,
				0,
				0,
				0.7071067690849304
			],
			"translation":[
				0,
				1.652616262435913,
				0
			]
		},
		{
			"children":[
				0
			],
			"name":"Band2",
			"rotation":[
				-0.7071067690849304,
				0,
				0,
				0.7071067690849304
			],
			"translation":[
				0,
				1.371352195739746,
				-5.960464477539063e-08
			]
		},
		{
			"children":[
				1
			],
			"name":"Band1",
			"translation":[
				0,
				0,
				0.8469170928001404
			]
		},
		{
			"name":"TopL",
			"rotation":[
				0.5000000596046448,
				-0.5,
				0.5,
				0.5
			],
			"scale":[
				1,
				0.9999999403953552,
				1
			],
			"translation":[
				0.7733032703399658,
				1.357527732849121,
				0
			]
		},
		{
			"name":"TopR",
			"rotation":[
				-2.6692536181371906e-08,
				-2.6692536181371906e-08,
				-0.7071067690849304,
				0.7071067690849304
			],
			"scale":[
				0.9999999403953552,
				0.9999999403953552,
				1
			],
			"translation":[
				-0.7710729241371155,
				1.357527732849121,
				0
			]
		},
		{
			"children":[
				2,
				3,
				4
			],
			"name":"Root"
		},
		{
			"mesh":0,
			"name":"box_A-convcol",
			"skin":0
		},
		{
			"children":[
				6,
				5
			],
			"name":"Armature",
			"scale":[
				0.6000000238418579,
				0.6000000238418579,
				0.6000000238418579
			]
		}
	],
	"animations":[
		{
			"channels":[
				{
					"sampler":0,
					"target":{
						"node":5,
						"path":"translation"
					}
				},
				{
					"sampler":1,
					"target":{
						"node":5,
						"path":"rotation"
					}
				},
				{
					"sampler":2,
					"target":{
						"node":5,
						"path":"scale"
					}
				},
				{
					"sampler":3,
					"target":{
						"node":2,
						"path":"translation"
					}
				},
				{
					"sampler":4,
					"target":{
						"node":2,
						"path":"rotation"
					}
				},
				{
					"sampler":5,
					"target":{
						"node":2,
						"path":"scale"
					}
				},
				{
					"sampler":6,
					"target":{
						"node":1,
						"path":"translation"
					}
				},
				{
					"sampler":7,
					"target":{
						"node":1,
						"path":"rotation"
					}
				},
				{
					"sampler":8,
					"target":{
						"node":1,
						"path":"scale"
					}
				},
				{
					"sampler":9,
					"target":{
						"node":0,
						"path":"translation"
					}
				},
				{
					"sampler":10,
					"target":{
						"node":0,
						"path":"rotation"
					}
				},
				{
					"sampler":11,
					"target":{
						"node":0,
						"path":"scale"
					}
				},
				{
					"sampler":12,
					"target":{
						"node":3,
						"path":"translation"
					}
				},
				{
					"sampler":13,
					"target":{
						"node":3,
						"path":"rotation"
					}
				},
				{
					"sampler":14,
					"target":{
						"node":3,
						"path":"scale"
					}
				},
				{
					"sampler":15,
					"target":{
						"node":4,
						"path":"translation"
					}
				},
				{
					"sampler":16,
					"target":{
						"node":4,
						"path":"rotation"
					}
				},
				{
					"sampler":17,
					"target":{
						"node":4,
						"path":"scale"
					}
				}
			],
			"name":"Open",
			"samplers":[
				{
					"input":7,
					"interpolation":"STEP",
					"output":8
				},
				{
					"input":7,
					"interpolation":"STEP",
					"output":9
				},
				{
					"input":10,
					"interpolation":"LINEAR",
					"output":11
				},
				{
					"input":10,
					"interpolation":"LINEAR",
					"output":12
				},
				{
					"input":10,
					"interpolation":"LINEAR",
					"output":13
				},
				{
					"input":10,
					"interpolation":"LINEAR",
					"output":14
				},
				{
					"input":7,
					"interpolation":"LINEAR",
					"output":15
				},
				{
					"input":10,
					"interpolation":"LINEAR",
					"output":16
				},
				{
					"input":7,
					"interpolation":"STEP",
					"output":17
				},
				{
					"input":7,
					"interpolation":"LINEAR",
					"output":18
				},
				{
					"input":10,
					"interpolation":"LINEAR",
					"output":19
				},
				{
					"input":7,
					"interpolation":"STEP",
					"output":17
				},
				{
					"input":10,
					"interpolation":"LINEAR",
					"output":20
				},
				{
					"input":10,
					"interpolation":"LINEAR",
					"output":21
				},
				{
					"input":7,
					"interpolation":"STEP",
					"output":22
				},
				{
					"input":10,
					"interpolation":"LINEAR",
					"output":23
				},
				{
					"input":10,
					"interpolation":"LINEAR",
					"output":24
				},
				{
					"input":7,
					"interpolation":"STEP",
					"output":25
				}
			]
		}
	],
	"materials":[
		{
			"doubleSided":true,
			"name":"Common",
			"pbrMetallicRoughness":{
				"baseColorTexture":{
					"index":0
				},
				"metallicFactor":0,
				"roughnessFactor":0.5
			}
		}
	],
	"meshes":[
		{
			"name":"box_A",
			"primitives":[
				{
					"attributes":{
						"POSITION":0,
						"NORMAL":1,
						"TEXCOORD_0":2,
						"JOINTS_0":3,
						"WEIGHTS_0":4
					},
					"indices":5,
					"material":0
				}
			]
		}
	],
	"textures":[
		{
			"sampler":0,
			"source":0
		}
	],
	"images":[
		{
			"mimeType":"image/png",
			"name":"Common.png",
			"uri":"textures/Common.png"
		}
	],
	"skins":[
		{
			"inverseBindMatrices":6,
			"joints":[
				5,
				2,
				1,
				0,
				3,
				4
			],
			"name":"Armature"
		}
	],
	"accessors":[
		{
			"bufferView":0,
			"componentType":5126,
			"count":303,
			"max":[
				0.4888855814933777,
				0.8632100224494934,
				0.4922984838485718
			],
			"min":[
				-0.4888855814933777,
				-0.014411396346986294,
				-0.4922986924648285
			],
			"type":"VEC3"
		},
		{
			"bufferView":1,
			"componentType":5126,
			"count":303,
			"type":"VEC3"
		},
		{
			"bufferView":2,
			"componentType":5126,
			"count":303,
			"type":"VEC2"
		},
		{
			"bufferView":3,
			"componentType":5121,
			"count":303,
			"type":"VEC4"
		},
		{
			"bufferView":4,
			"componentType":5126,
			"count":303,
			"type":"VEC4"
		},
		{
			"bufferView":5,
			"componentType":5123,
			"count":516,
			"type":"SCALAR"
		},
		{
			"bufferView":6,
			"componentType":5126,
			"count":6,
			"type":"MAT4"
		},
		{
			"bufferView":7,
			"componentType":5126,
			"count":2,
			"max":[
				0.4583333333333333
			],
			"min":[
				0.041666666666666664
			],
			"type":"SCALAR"
		},
		{
			"bufferView":8,
			"componentType":5126,
			"count":2,
			"type":"VEC3"
		},
		{
			"bufferView":9,
			"componentType":5126,
			"count":2,
			"type":"VEC4"
		},
		{
			"bufferView":10,
			"componentType":5126,
			"count":11,
			"max":[
				0.4583333333333333
			],
			"min":[
				0.041666666666666664
			],
			"type":"SCALAR"
		},
		{
			"bufferView":11,
			"componentType":5126,
			"count":11,
			"type":"VEC3"
		},
		{
			"bufferView":12,
			"componentType":5126,
			"count":11,
			"type":"VEC3"
		},
		{
			"bufferView":13,
			"componentType":5126,
			"count":11,
			"type":"VEC4"
		},
		{
			"bufferView":14,
			"componentType":5126,
			"count":11,
			"type":"VEC3"
		},
		{
			"bufferView":15,
			"componentType":5126,
			"count":2,
			"type":"VEC3"
		},
		{
			"bufferView":16,
			"componentType":5126,
			"count":11,
			"type":"VEC4"
		},
		{
			"bufferView":17,
			"componentType":5126,
			"count":2,
			"type":"VEC3"
		},
		{
			"bufferView":18,
			"componentType":5126,
			"count":2,
			"type":"VEC3"
		},
		{
			"bufferView":19,
			"componentType":5126,
			"count":11,
			"type":"VEC4"
		},
		{
			"bufferView":20,
			"componentType":5126,
			"count":11,
			"type":"VEC3"
		},
		{
			"bufferView":21,
			"componentType":5126,
			"count":11,
			"type":"VEC4"
		},
		{
			"bufferView":22,
			"componentType":5126,
			"count":2,
			"type":"VEC3"
		},
		{
			"bufferView":23,
			"componentType":5126,
			"count":11,
			"type":"VEC3"
		},
		{
			"bufferView":24,
			"componentType":5126,
			"count":11,
			"type":"VEC4"
		},
		{
			"bufferView":25,
			"componentType":5126,
			"count":2,
			"type":"VEC3"
		}
	],
	"bufferViews":[
		{
			"buffer":0,
			"byteLength":3636,
			"byteOffset":0,
			"target":34962
		},
		{
			"buffer":0,
			"byteLength":3636,
			"byteOffset":3636,
			"target":34962
		},
		{
			"buffer":0,
			"byteLength":2424,
			"byteOffset":7272,
			"target":34962
		},
		{
			"buffer":0,
			"byteLength":1212,
			"byteOffset":9696,
			"target":34962
		},
		{
			"buffer":0,
			"byteLength":4848,
			"byteOffset":10908,
			"target":34962
		},
		{
			"buffer":0,
			"byteLength":1032,
			"byteOffset":15756,
			"target":34963
		},
		{
			"buffer":0,
			"byteLength":384,
			"byteOffset":16788
		},
		{
			"buffer":0,
			"byteLength":8,
			"byteOffset":17172
		},
		{
			"buffer":0,
			"byteLength":24,
			"byteOffset":17180
		},
		{
			"buffer":0,
			"byteLength":32,
			"byteOffset":17204
		},
		{
			"buffer":0,
			"byteLength":44,
			"byteOffset":17236
		},
		{
			"buffer":0,
			"byteLength":132,
			"byteOffset":17280
		},
		{
			"buffer":0,
			"byteLength":132,
			"byteOffset":17412
		},
		{
			"buffer":0,
			"byteLength":176,
			"byteOffset":17544
		},
		{
			"buffer":0,
			"byteLength":132,
			"byteOffset":17720
		},
		{
			"buffer":0,
			"byteLength":24,
			"byteOffset":17852
		},
		{
			"buffer":0,
			"byteLength":176,
			"byteOffset":17876
		},
		{
			"buffer":0,
			"byteLength":24,
			"byteOffset":18052
		},
		{
			"buffer":0,
			"byteLength":24,
			"byteOffset":18076
		},
		{
			"buffer":0,
			"byteLength":176,
			"byteOffset":18100
		},
		{
			"buffer":0,
			"byteLength":132,
			"byteOffset":18276
		},
		{
			"buffer":0,
			"byteLength":176,
			"byteOffset":18408
		},
		{
			"buffer":0,
			"byteLength":24,
			"byteOffset":18584
		},
		{
			"buffer":0,
			"byteLength":132,
			"byteOffset":18608
		},
		{
			"buffer":0,
			"byteLength":176,
			"byteOffset":18740
		},
		{
			"buffer":0,
			"byteLength":24,
			"byteOffset":18916
		}
	],
	"samplers":[
		{
			"magFilter":9729,
			"minFilter":9987
		}
	],
	"buffers":[
		{
			"byteLength":18940,
			"uri":"Treasure-box.bin"
		}
	]
}
